<svg id="ehvua95aqwdt1" xmlns="http://www.w3.org/2000/svg" xmlns:xlink="http://www.w3.org/1999/xlink" viewBox="0 0 192 326" shape-rendering="geometricPrecision" text-rendering="geometricPrecision"><path id="ehvua95aqwdt2" d="M186.243000,325.007000L191.111000,321.868000L191.111000,197.142000L186.243000,194.944000L186.243000,325.007000Z" fill="rgb(80,91,117)" stroke="none" stroke-width="1"/><path id="ehvua95aqwdt3" d="M57.250000,194.698285L57.250000,324.369285L186.243000,324.369285L186.243000,194.306285L57.250000,194.698285Z" fill="rgb(242,242,242)" stroke="none" stroke-width="1"/><g id="ehvua95aqwdt4"><path id="ehvua95aqwdt5" d="M135.323765,308.654507L127.513149,301.560645L108.379211,322.841561L87.096651,297.724859L78.761700,304.135911L103.294765,328.464034L79.128661,355.314538L80.963402,356.733712L107.855075,332.930415L131.025189,355.945133L134.013093,353.108124L113.045015,328.358935L135.323765,308.654507Z" transform="matrix(1.02542224842054 0 0 1.00222249580492 9.66051549341715 -67.34334188088627)" opacity="0" fill="rgb(255,27,40)" stroke="none" stroke-width="1"/></g><path id="ehvua95aqwdt6" d="M184.908000,198.947000C184.908000,199.889000,184.201000,200.595000,183.259000,200.595000C182.317000,200.595000,181.610000,199.810000,181.610000,198.947000C181.610000,198.005000,182.317000,197.298000,183.259000,197.298000C184.201000,197.298000,184.908000,198.083000,184.908000,198.947000Z" fill="rgb(198,198,198)" stroke="none" stroke-width="1"/><path id="ehvua95aqwdt7" d="M63.294500,198.947000C63.294500,199.889000,62.587900,200.595000,61.645800,200.595000C60.703700,200.595000,59.997100,199.810000,59.997100,198.947000C59.997100,198.005000,60.782200,197.298000,61.645800,197.298000C62.509400,197.298000,63.294500,198.083000,63.294500,198.947000Z" fill="rgb(198,198,198)" stroke="none" stroke-width="1"/><path id="ehvua95aqwdt8" d="M184.908000,320.926000C184.908000,321.868000,184.201000,322.575000,183.259000,322.575000C182.317000,322.575000,181.610000,321.790000,181.610000,320.926000C181.610000,319.984000,182.317000,319.278000,183.259000,319.278000C184.201000,319.278000,184.908000,320.063000,184.908000,320.926000Z" fill="rgb(198,198,198)" stroke="none" stroke-width="1"/><path id="ehvua95aqwdt9" d="M63.294500,320.926000C63.294500,321.868000,62.587900,322.575000,61.645800,322.575000C60.703700,322.575000,59.997100,321.790000,59.997100,320.926000C59.997100,319.984000,60.782200,319.278000,61.645800,319.278000C62.509400,319.278000,63.294500,320.063000,63.294500,320.926000Z" fill="rgb(198,198,198)" stroke="none" stroke-width="1"/><path id="ehvua95aqwdt10" d="M102.159000,168.884000C102.080000,168.805000,93.208500,163.075000,78.998000,177.911000L88.026800,184.582000C88.105300,184.504000,92.266400,174.143000,102.159000,168.884000Z" fill="rgb(17,177,200)" stroke="none" stroke-width="1"/><path id="ehvua95aqwdt11" d="M84.651400,182.071000L88.027300,184.583000C88.027300,184.583000,92.109900,174.457000,101.767000,169.120000C95.093300,171.788000,89.519000,176.498000,84.651400,182.071000Z" fill="rgb(20,157,177)" stroke="none" stroke-width="1"/><path id="ehvua95aqwdt12" d="M144.713000,174.849000C130.267000,171.631000,102.160000,168.805000,102.160000,168.805000C92.267500,174.064000,88.106400,184.504000,88.106400,184.504000L88.106400,195.258000L148.952000,195.258000L148.952000,188.193000L149.423000,188.978000C147.147000,185.367000,144.713000,174.849000,144.713000,174.849000Z" fill="rgb(249,202,41)" stroke="none" stroke-width="1"/><path id="ehvua95aqwdt13" d="M88.106400,193.766000L88.106400,195.258000L148.952000,195.258000L148.952000,193.609000C128.618000,193.609000,108.362000,193.688000,88.106400,193.766000Z" fill="rgb(246,185,43)" stroke="none" stroke-width="1"/><path id="ehvua95aqwdt14" d="M164.341000,187.252000C164.341000,187.252000,161.043000,180.109000,150.052000,176.341000C148.638000,175.870000,146.833000,175.399000,144.713000,174.928000C144.713000,174.928000,147.147000,185.446000,149.424000,189.057000L152.407000,193.845000C152.407000,193.767000,160.337000,191.804000,164.341000,187.252000Z" fill="rgb(17,177,200)" stroke="none" stroke-width="1"/><path id="ehvua95aqwdt15" d="M145.340000,177.283000C146.203000,180.579000,147.852000,186.466000,149.422000,188.978000L152.406000,193.766000C152.406000,193.766000,153.741000,193.452000,155.546000,192.746000C152.484000,187.330000,149.736000,181.600000,145.340000,177.283000Z" fill="rgb(20,157,177)" stroke="none" stroke-width="1"/><g id="ehvua95aqwdt16" style="mix-blend-mode:multiply"><path id="ehvua95aqwdt17" d="M147.774000,185.446000C151.307000,184.112000,154.605000,182.306000,157.588000,180.187000C155.625000,178.774000,153.113000,177.440000,150.051000,176.341000C148.638000,175.870000,146.832000,175.399000,144.712000,174.928000C130.266000,171.710000,102.160000,168.884000,102.160000,168.884000C102.081000,168.806000,97.213400,165.744000,88.969700,170.061000C90.382900,172.102000,91.953100,173.986000,93.680400,175.791000C107.184000,189.135000,129.874000,192.432000,147.774000,185.446000Z" fill="rgb(212,212,212)" stroke="none" stroke-width="1"/></g><g id="ehvua95aqwdt18" style="mix-blend-mode:multiply"><path id="ehvua95aqwdt19" d="M121.236000,207.110000C118.723000,206.718000,114.013000,206.247000,114.013000,206.247000C114.013000,206.247000,121.079000,203.970000,121.707000,202.715000C122.335000,201.380000,120.843000,201.537000,118.645000,202.244000C116.525000,202.950000,112.678000,204.049000,112.678000,204.049000C112.678000,204.049000,114.798000,201.694000,114.562000,200.046000C114.327000,198.397000,109.302000,203.578000,108.988000,203.813000C108.596000,204.049000,106.633000,203.107000,105.220000,203.342000C105.220000,203.342000,89.831500,198.554000,83.550600,195.258000C79.546500,195.258000,74.678900,195.336000,70.674800,195.415000C74.521800,200.360000,104.591000,208.209000,104.591000,208.209000C104.591000,208.209000,105.298000,211.035000,108.753000,211.977000C108.753000,211.977000,111.500000,214.489000,112.286000,216.294000C113.149000,218.099000,115.583000,217.942000,115.112000,216.294000C114.641000,214.646000,112.521000,212.134000,112.521000,212.134000C112.521000,212.134000,116.211000,213.468000,118.331000,214.959000C120.451000,216.529000,122.099000,215.823000,121.079000,213.390000C119.980000,211.035000,113.856000,209.465000,113.856000,209.465000C113.856000,209.465000,119.823000,209.622000,121.550000,209.700000C123.513000,209.857000,123.748000,207.503000,121.236000,207.110000Z" fill="rgb(198,198,198)" stroke="none" stroke-width="1"/></g><g id="ehvua95aqwdt20" style="mix-blend-mode:multiply"><path id="ehvua95aqwdt21" d="M157.274000,195.022000L158.452000,197.770000L138.274000,203.735000L135.291000,202.322000C135.291000,202.322000,134.113000,199.261000,132.464000,199.261000C130.816000,199.261000,132.307000,201.145000,133.093000,202.793000C133.799000,204.441000,134.270000,206.011000,134.270000,206.011000C134.270000,206.011000,128.225000,202.008000,126.341000,201.459000C124.456000,200.988000,125.006000,202.793000,126.341000,203.500000C127.675000,204.206000,131.836000,206.953000,131.836000,206.953000C131.836000,206.953000,125.163000,206.011000,124.456000,206.953000C123.750000,207.895000,129.952000,208.288000,130.973000,208.366000C132.072000,208.523000,123.514000,211.584000,124.927000,212.526000C126.341000,213.468000,133.878000,209.465000,133.014000,211.113000C132.150000,212.762000,128.225000,217.550000,130.423000,217.079000C132.543000,216.608000,135.448000,211.820000,135.448000,211.820000C135.448000,211.820000,138.667000,211.349000,139.373000,209.308000C139.373000,209.308000,164.340000,204.441000,165.125000,199.575000C165.361000,198.005000,165.125000,196.514000,164.732000,195.101000C162.142000,195.022000,159.708000,194.944000,157.274000,195.022000Z" fill="rgb(198,198,198)" stroke="none" stroke-width="1"/></g><path id="ehvua95aqwdt22" d="M113.936000,177.911000C113.936000,177.911000,110.952000,188.350000,119.824000,188.193000C128.696000,188.036000,128.931000,179.324000,128.931000,179.324000L113.936000,177.911000Z" fill="rgb(239,202,166)" stroke="none" stroke-width="1"/><path id="ehvua95aqwdt23" d="M191.111000,103.185000C194.880000,101.066000,181.376000,100.124000,181.376000,100.124000C181.376000,100.124000,182.554000,96.591700,181.376000,92.510100C180.198000,88.506900,177.372000,97.769100,177.372000,97.769100C167.401000,69.276000,118.175000,65.665300,98.939400,87.329500C79.704200,108.994000,88.968500,137.251000,88.968500,137.251000C88.968500,137.251000,96.113000,118.884000,111.815000,106.168000C111.815000,106.168000,105.456000,114.802000,107.890000,115.273000C110.245000,115.666000,116.447000,112.369000,143.220000,107.895000C143.220000,107.895000,137.802000,114.488000,141.335000,115.273000C144.790000,115.980000,158.137000,111.898000,158.137000,111.898000C158.137000,111.898000,154.839000,128.853000,160.335000,126.184000C165.909000,123.515000,167.636000,119.276000,167.636000,119.276000C167.636000,119.276000,175.331000,136.152000,170.777000,157.424000C208.305000,123.201000,183.339000,105.304000,183.339000,105.304000C183.339000,105.304000,187.264000,105.304000,191.111000,103.185000Z" fill="rgb(236,123,35)" stroke="none" stroke-width="1"/><path id="ehvua95aqwdt24" d="M167.480000,119.198000C167.480000,119.198000,165.674000,123.358000,160.178000,126.105000C154.604000,128.774000,157.980000,111.819000,157.980000,111.819000C157.980000,111.819000,144.633000,115.901000,141.179000,115.194000C137.724000,114.488000,143.063000,107.816000,143.063000,107.816000C116.291000,112.290000,110.088000,115.587000,107.733000,115.194000C105.378000,114.802000,111.658000,106.089000,111.658000,106.089000C95.956200,118.727000,88.811700,137.173000,88.811700,137.173000C88.811700,137.173000,81.667200,148.868000,88.576200,162.290000C97.369400,179.245000,116.134000,183.562000,133.956000,183.562000C157.038000,183.562000,170.542000,157.345000,170.542000,157.345000C175.252000,136.074000,167.480000,119.198000,167.480000,119.198000Z" fill="rgb(244,217,191)" stroke="none" stroke-width="1"/><path id="ehvua95aqwdt25" d="M92.972800,128.852000C92.972800,128.852000,93.915000,122.180000,87.869600,122.887000C81.824300,123.593000,81.274700,136.623000,88.419200,138.036000C88.419200,138.036000,90.853100,132.384000,92.972800,128.852000Z" fill="rgb(239,202,166)" stroke="none" stroke-width="1"/><path id="ehvua95aqwdt26" d="M170.776000,156.796000C170.776000,156.796000,173.603000,150.046000,179.570000,152.557000C185.536000,155.069000,180.198000,164.567000,173.289000,166.215000C166.380000,167.864000,166.615000,163.782000,166.615000,163.782000L170.776000,156.796000Z" fill="rgb(239,202,166)" stroke="none" stroke-width="1"/><path id="ehvua95aqwdt27" d="M121.786000,169.512000C121.786000,169.512000,121.550000,167.236000,119.588000,168.335000C117.546000,169.434000,115.819000,175.634000,117.939000,176.184000C119.980000,176.655000,121.707000,171.396000,121.786000,169.512000Z" transform="matrix(0.48231995221131 0 0 0.22375950087452 61.79954667323497 133.60996358808754)" fill="rgb(255,255,255)" stroke="none" stroke-width="1"/><path id="ehvua95aqwdt28" d="M112.444000,123.122000C112.444000,123.122000,112.758000,122.651000,113.308000,122.181000C113.936000,121.710000,114.878000,121.317000,115.899000,121.239000C116.370000,121.239000,116.919000,121.239000,117.391000,121.396000C117.862000,121.553000,118.254000,121.788000,118.568000,122.024000C118.725000,122.181000,118.882000,122.259000,118.961000,122.416000C119.039000,122.495000,119.118000,122.652000,119.196000,122.808000C119.275000,123.044000,119.353000,123.122000,119.353000,123.122000C119.353000,123.122000,119.196000,123.122000,118.961000,123.122000C118.725000,123.122000,118.490000,123.122000,118.176000,123.044000C117.862000,123.044000,117.469000,123.044000,117.155000,123.044000C116.762000,123.044000,116.370000,123.122000,115.977000,123.122000C115.192000,123.201000,114.329000,123.201000,113.622000,123.201000C112.994000,123.201000,112.444000,123.122000,112.444000,123.122000Z" transform="matrix(0.97815210774722 -0.20789048585653 0.20789048585653 0.97815210774722 -22.98440867386400 27.37897921997738)" fill="rgb(169,90,22)" stroke="none" stroke-width="1"/><path id="ehvua95aqwdt29" d="M145.497000,129.323000C145.497000,129.323000,146.125000,128.852000,147.146000,128.538000C148.166000,128.146000,149.580000,127.989000,151.071000,128.146000C151.464000,128.224000,151.778000,128.303000,152.170000,128.381000C152.563000,128.460000,152.877000,128.617000,153.191000,128.774000C153.505000,128.931000,153.819000,129.166000,154.055000,129.323000C154.290000,129.559000,154.526000,129.794000,154.683000,130.030000C154.840000,130.265000,154.997000,130.501000,155.075000,130.736000C155.232000,130.893000,155.232000,131.129000,155.232000,131.286000C155.311000,131.600000,155.311000,131.757000,155.311000,131.757000C155.311000,131.757000,155.154000,131.678000,154.918000,131.443000C154.761000,131.364000,154.683000,131.207000,154.526000,131.129000C154.369000,131.050000,154.133000,130.893000,153.976000,130.815000C153.741000,130.736000,153.505000,130.658000,153.270000,130.579000C153.034000,130.501000,152.799000,130.422000,152.485000,130.344000C152.170000,130.265000,151.935000,130.187000,151.621000,130.187000C151.307000,130.108000,150.993000,130.030000,150.679000,130.030000C150.051000,129.951000,149.423000,129.873000,148.795000,129.794000C148.166000,129.716000,147.617000,129.637000,147.067000,129.559000C146.282000,129.480000,145.497000,129.323000,145.497000,129.323000Z" fill="rgb(169,90,22)" stroke="none" stroke-width="1"/><path id="ehvua95aqwdt30" d="M121.787000,151.929000C121.787000,151.929000,118.018000,156.246000,120.531000,157.345000C123.043000,158.444000,126.105000,157.345000,126.105000,157.345000C126.105000,157.345000,121.551000,158.130000,121.159000,155.697000C120.766000,153.263000,121.787000,151.929000,121.787000,151.929000Z" fill="rgb(195,147,104)" stroke="none" stroke-width="1"/><path id="ehvua95aqwdt31" d="M85.279300,130.422000C85.279300,130.422000,85.593300,130.186000,86.221400,130.029000C86.535500,129.951000,86.928000,129.872000,87.320600,129.951000C87.713100,129.951000,88.184200,130.108000,88.576700,130.265000C88.812300,130.343000,88.969300,130.500000,89.126300,130.657000C89.283300,130.814000,89.440400,130.971000,89.597400,131.128000C89.754400,131.285000,89.832900,131.521000,89.911400,131.678000C89.989900,131.835000,89.989900,131.992000,90.068400,132.149000C90.147000,132.463000,90.147000,132.698000,90.147000,132.934000C90.147000,133.091000,90.147000,133.248000,90.147000,133.248000C90.147000,133.248000,90.068400,133.169000,89.989900,133.012000C89.911400,132.934000,89.911400,132.855000,89.832900,132.777000C89.754400,132.698000,89.675900,132.541000,89.597400,132.463000C89.518900,132.384000,89.440400,132.227000,89.361900,132.070000C89.283300,131.992000,89.204800,131.835000,89.047800,131.756000C88.812300,131.521000,88.576800,131.364000,88.262700,131.207000C88.105700,131.128000,87.948700,131.050000,87.791600,130.971000C87.634600,130.971000,87.477600,130.814000,87.320600,130.814000C87.006500,130.736000,86.692500,130.657000,86.378500,130.579000C85.671900,130.500000,85.279300,130.422000,85.279300,130.422000Z" fill="rgb(195,147,104)" stroke="none" stroke-width="1"/><path id="ehvua95aqwdt32" d="M79.547500,178.303000C79.547500,178.303000,67.456800,190.391000,70.361700,195.336000C73.345200,200.281000,103.964000,208.602000,103.964000,208.602000C103.964000,208.602000,104.671000,211.427000,108.126000,212.369000C108.126000,212.369000,110.873000,214.881000,111.659000,216.686000C112.522000,218.492000,114.956000,218.335000,114.485000,216.686000C114.014000,215.038000,111.894000,212.526000,111.894000,212.526000C111.894000,212.526000,115.584000,213.861000,117.704000,215.352000C119.824000,216.922000,121.472000,216.215000,120.452000,213.782000C119.353000,211.427000,113.229000,209.857000,113.229000,209.857000C113.229000,209.857000,119.196000,210.014000,120.923000,210.093000C122.650000,210.250000,122.886000,207.817000,120.373000,207.503000C117.861000,207.110000,113.150000,206.639000,113.150000,206.639000C113.150000,206.639000,120.216000,204.363000,120.844000,203.107000C121.472000,201.773000,119.981000,201.930000,117.782000,202.636000C115.663000,203.343000,111.816000,204.441000,111.816000,204.441000C111.816000,204.441000,113.935000,202.087000,113.700000,200.438000C113.464000,198.790000,108.440000,203.970000,108.126000,204.206000C107.733000,204.441000,105.770000,203.500000,104.357000,203.735000C104.357000,203.735000,81.274800,196.514000,80.018600,193.766000C78.683900,191.019000,85.592900,182.934000,85.592900,182.934000L79.547500,178.303000Z" fill="rgb(244,217,191)" stroke="none" stroke-width="1"/><path id="ehvua95aqwdt33" d="M176.666000,159.857000C176.666000,159.857000,176.588000,159.779000,176.352000,159.700000C176.195000,159.622000,175.881000,159.543000,175.646000,159.386000C175.489000,159.386000,175.332000,159.308000,175.175000,159.308000C175.018000,159.229000,174.782000,159.229000,174.625000,159.229000C174.468000,159.229000,174.233000,159.151000,173.997000,159.151000C173.761000,159.151000,173.604000,159.151000,173.369000,159.229000C173.133000,159.229000,172.976000,159.229000,172.741000,159.308000C172.505000,159.386000,172.348000,159.386000,172.113000,159.386000C171.956000,159.465000,171.720000,159.386000,171.563000,159.465000C171.406000,159.543000,171.249000,159.543000,171.014000,159.622000C170.386000,159.779000,169.836000,159.857000,169.836000,159.857000C169.836000,159.857000,170.150000,159.543000,170.778000,159.151000C170.935000,159.072000,171.092000,158.915000,171.249000,158.837000C171.406000,158.758000,171.642000,158.680000,171.877000,158.601000C172.113000,158.523000,172.348000,158.444000,172.505000,158.366000C172.741000,158.287000,172.976000,158.287000,173.212000,158.287000C173.447000,158.287000,173.683000,158.287000,173.919000,158.287000C174.154000,158.287000,174.390000,158.366000,174.625000,158.444000C174.861000,158.523000,175.096000,158.523000,175.253000,158.680000C175.410000,158.758000,175.646000,158.915000,175.803000,158.994000C176.117000,159.229000,176.274000,159.465000,176.431000,159.622000C176.666000,159.700000,176.666000,159.857000,176.666000,159.857000Z" fill="rgb(195,147,104)" stroke="none" stroke-width="1"/><path id="ehvua95aqwdt34" d="M146.518000,144.551000C145.576000,146.984000,144.006000,148.633000,142.985000,148.240000C141.965000,147.848000,141.808000,145.571000,142.750000,143.138000C143.692000,140.705000,145.262000,139.056000,146.283000,139.449000C147.303000,139.841000,147.382000,142.118000,146.518000,144.551000Z" transform="matrix(1 0 0 1 0.09482862499999 -0.07849999999996)" fill="rgb(61,26,11)" stroke="none" stroke-width="1"/><path id="ehvua95aqwdt35" d="M144.948000,141.882000C144.634000,142.588000,144.085000,143.059000,143.770000,142.902000C143.456000,142.745000,143.456000,142.039000,143.849000,141.332000C144.163000,140.626000,144.713000,140.155000,145.027000,140.312000C145.341000,140.469000,145.341000,141.176000,144.948000,141.882000Z" transform="matrix(1 0 0 1 -0.29012774999998 3.48425399000013)" fill="rgb(255,255,255)" stroke="none" stroke-width="1"/><path id="ehvua95aqwdt36" d="M115.977000,136.073000C115.035000,138.507000,113.465000,140.155000,112.444000,139.763000C111.423000,139.370000,111.266000,137.094000,112.209000,134.661000C113.151000,132.227000,114.721000,130.579000,115.742000,130.971000C116.762000,131.364000,116.919000,133.640000,115.977000,136.073000Z" fill="rgb(61,26,11)" stroke="none" stroke-width="1"/><path id="ehvua95aqwdt37" d="M114.486000,133.405000C114.172000,134.112000,113.623000,134.582000,113.309000,134.425000C112.995000,134.269000,112.995000,133.562000,113.387000,132.856000C113.701000,132.149000,114.251000,131.678000,114.565000,131.835000C114.879000,131.992000,114.879000,132.699000,114.486000,133.405000Z" transform="matrix(1 0 0 1 -0.46719777000004 3.58070165000001)" fill="rgb(255,255,255)" stroke="none" stroke-width="1"/><path id="ehvua95aqwdt38" d="M155.311000,158.758000C154.997000,160.406000,151.542000,161.113000,147.617000,160.328000C143.691000,159.543000,140.708000,157.580000,141.022000,155.932000C141.336000,154.284000,144.790000,153.577000,148.716000,154.362000C152.720000,155.147000,155.625000,157.110000,155.311000,158.758000Z" transform="matrix(0.99956578042403 0.02946609246744 -0.02946609246744 0.99956578042403 4.81822295770738 -4.21857338826376)" fill="rgb(249,203,192)" stroke="none" stroke-width="1"/><path id="ehvua95aqwdt39" d="M110.480000,145.179000C110.166000,146.827000,106.711000,147.534000,102.786000,146.749000C98.860000,145.964000,95.876600,144.002000,96.190700,142.353000C96.504700,140.705000,99.959200,139.998000,103.885000,140.783000C107.889000,141.647000,110.872000,143.609000,110.480000,145.179000Z" fill="rgb(249,203,192)" stroke="none" stroke-width="1"/><path id="ehvua95aqwdt40" d="M155.467000,192.746000L157.744000,198.083000L137.566000,204.049000L134.583000,202.636000C134.583000,202.636000,133.405000,199.575000,131.756000,199.575000C130.108000,199.575000,131.599000,201.459000,132.385000,203.107000C133.091000,204.755000,133.562000,206.325000,133.562000,206.325000C133.562000,206.325000,127.517000,202.322000,125.633000,201.773000C123.748000,201.302000,124.298000,203.107000,125.633000,203.813000C126.967000,204.520000,131.128000,207.267000,131.128000,207.267000C131.128000,207.267000,124.455000,206.325000,123.748000,207.267000C123.042000,208.209000,129.244000,208.602000,130.265000,208.680000C131.364000,208.837000,122.806000,211.898000,124.219000,212.840000C125.633000,213.782000,133.170000,209.779000,132.306000,211.427000C131.442000,213.076000,127.517000,217.864000,129.715000,217.393000C131.835000,216.922000,134.740000,212.134000,134.740000,212.134000C134.740000,212.134000,137.959000,211.663000,138.665000,209.622000C138.665000,209.622000,163.632000,204.755000,164.417000,199.889000C165.202000,195.022000,161.434000,189.763000,161.434000,189.763000C161.434000,189.763000,157.822000,191.961000,155.467000,192.746000Z" fill="rgb(244,217,191)" stroke="none" stroke-width="1"/><g id="ehvua95aqwdt41" opacity="0.4"><path id="ehvua95aqwdt42" d="M92.972700,128.852000C96.584200,122.415000,102.787000,113.310000,111.737000,106.089000L116.840000,101.615000C98.546900,109.778000,92.972700,128.852000,92.972700,128.852000Z" opacity="0.4" fill="rgb(215,113,31)" stroke="none" stroke-width="1"/><path id="ehvua95aqwdt43" d="M107.732000,115.194000C110.088000,115.587000,116.290000,112.290000,143.062000,107.816000C143.062000,107.816000,142.984000,107.894000,142.905000,108.051000C146.438000,104.990000,150.521000,102.714000,150.521000,102.714000C131.914000,104.362000,107.732000,115.194000,107.732000,115.194000Z" opacity="0.4" fill="rgb(215,113,31)" stroke="none" stroke-width="1"/><path id="ehvua95aqwdt44" d="M140.236000,114.645000C140.393000,114.959000,140.707000,115.116000,141.178000,115.194000C144.633000,115.901000,157.980000,111.819000,157.980000,111.819000C157.980000,111.819000,157.980000,111.976000,157.901000,112.212000C159.786000,108.993000,162.062000,105.461000,162.062000,105.461000C150.286000,113.782000,140.393000,114.566000,140.236000,114.645000Z" opacity="0.4" fill="rgb(215,113,31)" stroke="none" stroke-width="1"/><path id="ehvua95aqwdt45" d="M165.909000,111.662000C167.008000,121.631000,159,126.340000,158.922000,126.340000C159.314000,126.419000,159.707000,126.340000,160.178000,126.105000C165.752000,123.436000,167.480000,119.198000,167.480000,119.198000C167.480000,119.198000,175.095000,135.760000,170.698000,156.796000C181.533000,135.681000,165.909000,111.662000,165.909000,111.662000Z" opacity="0.4" fill="rgb(215,113,31)" stroke="none" stroke-width="1"/></g><path id="ehvua95aqwdt46" d="M1.970900,13.073700C2.857460,10.026900,5.960400,8.420330,8.564670,7.035390C23.026700,-0.443295,40.203800,-0.554091,56.051000,0.443067C73.172700,1.551020,90.183600,4.653290,106.031000,11.245600C110.630000,13.184500,115.229000,15.234200,119.385000,17.893300C123.042000,20.275400,124.261000,23.987100,123.817000,28.197300C123.319000,32.739900,111.406000,60.106300,103.537000,62.045200C99.049200,63.153200,94.394700,63.430200,90.183500,62.377600C81.595000,60.272500,73.671400,56.727100,65.747800,53.015400C65.581500,53.624800,65.470700,54.234200,65.526100,54.898900C65.581500,57.391800,66.689700,59.884700,67.853300,62.045200C70.014300,66.089300,73.782200,69.191500,77.494700,71.739800C79.877300,73.346400,82.370700,74.731300,84.919600,75.950100C86.692700,77.058000,88.687500,77.999800,90.516000,78.830700C90.848500,78.996900,91.236300,79.163100,91.568800,79.384700C91.291700,79.329300,91.070100,79.273900,90.793100,79.218500C87.413100,78.719900,84.199300,78.055200,80.930100,77.002600C75.887800,75.340700,70.956300,73.291000,66.024800,71.296600C65.082800,70.853500,64.140900,70.410300,63.254300,69.911700C58.045800,67.252600,53.391300,63.928800,49.401800,59.718500C47.240800,57.447200,45.633900,55.342100,44.581100,52.904600C36.158800,53.514000,27.791900,54.345000,19.369600,54.178800C16.765300,54.123400,14.105700,54.178800,11.778400,52.849200C9.174160,51.408900,7.567290,47.918800,6.182040,45.426000C2.414160,38.833600,0.862686,31.188800,0.918098,23.654700C1.028920,20.164600,0.973518,16.453000,1.970900,13.073700ZM98.550500,58.499800C102.706000,58.167400,105.255000,56.616300,107.471000,53.015400C110.187000,48.583600,112.735000,44.096400,115.007000,39.387600C116.891000,35.454400,119.717000,30.801000,119.994000,26.424600C120.216000,22.989900,118.997000,20.774000,116.503000,18.502700C116.337000,18.336500,116.171000,18.558100,116.282000,18.724300C120.050000,23.266900,118.387000,27.698700,116.171000,32.518300C114.730000,35.565200,113.345000,38.667400,111.738000,41.658900C109.910000,45.093600,107.970000,48.472800,105.975000,51.852100C105.200000,53.126200,103.925000,55.231300,102.706000,56.006900C101.321000,56.948700,99.824900,57.225600,98.218000,57.668800C97.774700,57.835000,98.162600,58.555200,98.550500,58.499800ZM88.188800,57.225700C89.851100,57.502600,91.513400,57.613400,93.231100,57.724200C84.365500,55.452900,76.109400,51.852100,67.520900,48.805200C74.059300,52.627600,80.930100,55.508300,88.188800,57.225700ZM79.877300,75.119100C80.098900,75.174500,80.154400,74.897500,79.988100,74.786700C75.001200,72.460000,69.626400,69.523900,66.911400,64.427300C64.528700,59.884700,62.534000,54.345000,64.196300,49.248400C64.251700,49.137600,64.030000,48.971400,63.974600,49.082200C58.212000,60.438700,70.125100,71.850600,79.877300,75.119100Z" transform="matrix(0.28594904562433 0 0 0.28594904562433 47.86327357626791 35.02208648323025)" opacity="0" fill="rgb(230,109,116)" stroke="none" stroke-width="1"/><g id="ehvua95aqwdt47" opacity="0"><path id="ehvua95aqwdt48" d="M74.835000,36.063800C74.835000,34.568100,75.887800,33.515500,77.383800,33.515500C78.879900,33.515500,79.877300,34.568100,79.877300,36.063800C79.877300,37.559600,78.879900,38.612100,77.383800,38.612100C75.832400,38.667500,74.835000,37.559600,74.835000,36.063800ZM75.776900,32.075200L75.112000,19.278300L79.600200,19.278300L78.990700,32.075200L75.776900,32.075200Z" fill="rgb(255,255,255)" stroke="none" stroke-width="1"/><path id="ehvua95aqwdt49" d="M35.714800,38.335100L35.714800,19.278300L40.757100,19.278300L44.691300,26.258400C45.799500,28.252800,46.963100,30.634900,47.794200,32.795400L47.905000,32.795400C47.628000,30.302500,47.517200,27.698800,47.517200,24.873500L47.517200,19.333700L51.451300,19.333700L51.451300,38.390500L46.907700,38.390500L42.862700,31.022600C41.754500,28.972900,40.480100,26.535400,39.538100,24.319500L39.427300,24.374900C39.538100,26.867800,39.593500,29.582300,39.593500,32.684600L39.593500,38.445900L35.714800,38.445900L35.714800,38.335100Z" fill="rgb(255,255,255)" stroke="none" stroke-width="1"/><path id="ehvua95aqwdt50" d="M72.617100,28.640500C72.617100,34.900400,68.849200,38.667400,63.252800,38.667400C57.601000,38.667400,54.276400,34.401800,54.276400,28.972800C54.276400,23.266900,57.933400,19.001300,63.529800,19.001300C69.458700,19.001300,72.617100,23.377700,72.617100,28.640500ZM58.875400,28.862000C58.875400,32.573700,60.648500,35.232800,63.529800,35.232800C66.466600,35.232800,68.128900,32.462900,68.128900,28.751300C68.128900,25.316600,66.466600,22.380500,63.529800,22.380500C60.593100,22.380500,58.875400,25.150400,58.875400,28.862000Z" fill="rgb(255,255,255)" stroke="none" stroke-width="1"/></g><script><![CDATA[!function(t,n){"object"==typeof exports&&"undefined"!=typeof module?module.exports=n():"function"==typeof define&&define.amd?define(n):(t=t||self).__SVGATOR_PLAYER__=n()}(this,(function(){"use strict";function t(n){return(t="function"==typeof Symbol&&"symbol"==typeof Symbol.iterator?function(t){return typeof t}:function(t){return t&&"function"==typeof Symbol&&t.constructor===Symbol&&t!==Symbol.prototype?"symbol":typeof t})(n)}function n(t,n){if(!(t instanceof n))throw new TypeError("Cannot call a class as a function")}function r(t,n){for(var r=0;r<n.length;r++){var e=n[r];e.enumerable=e.enumerable||!1,e.configurable=!0,"value"in e&&(e.writable=!0),Object.defineProperty(t,e.key,e)}}function e(t,n,e){return n&&r(t.prototype,n),e&&r(t,e),t}function i(t){return(i=Object.setPrototypeOf?Object.getPrototypeOf:function(t){return t.__proto__||Object.getPrototypeOf(t)})(t)}function o(t,n){return(o=Object.setPrototypeOf||function(t,n){return t.__proto__=n,t})(t,n)}function u(t,n){return!n||"object"!=typeof n&&"function"!=typeof n?function(t){if(void 0===t)throw new ReferenceError("this hasn't been initialised - super() hasn't been called");return t}(t):n}function a(t){var n=function(){if("undefined"==typeof Reflect||!Reflect.construct)return!1;if(Reflect.construct.sham)return!1;if("function"==typeof Proxy)return!0;try{return Date.prototype.toString.call(Reflect.construct(Date,[],(function(){}))),!0}catch(t){return!1}}();return function(){var r,e=i(t);if(n){var o=i(this).constructor;r=Reflect.construct(e,arguments,o)}else r=e.apply(this,arguments);return u(this,r)}}function l(t,n,r){return(l="undefined"!=typeof Reflect&&Reflect.get?Reflect.get:function(t,n,r){var e=function(t,n){for(;!Object.prototype.hasOwnProperty.call(t,n)&&null!==(t=i(t)););return t}(t,n);if(e){var o=Object.getOwnPropertyDescriptor(e,n);return o.get?o.get.call(r):o.value}})(t,n,r||t)}var f=Math.abs;function s(t){return t}function c(t,n,r){var e=1-r;return 3*r*e*(t*e+n*r)+r*r*r}function h(){var t=arguments.length>0&&void 0!==arguments[0]?arguments[0]:0,n=arguments.length>1&&void 0!==arguments[1]?arguments[1]:0,r=arguments.length>2&&void 0!==arguments[2]?arguments[2]:1,e=arguments.length>3&&void 0!==arguments[3]?arguments[3]:1;return t<0||t>1||r<0||r>1?null:f(t-n)<=1e-5&&f(r-e)<=1e-5?s:function(i){if(i<=0)return t>0?i*n/t:0===n&&r>0?i*e/r:0;if(i>=1)return r<1?1+(i-1)*(e-1)/(r-1):1===r&&t<1?1+(i-1)*(n-1)/(t-1):1;for(var o,u=0,a=1;u<a;){var l=c(t,r,o=(u+a)/2);if(f(i-l)<1e-5)break;l<i?u=o:a=o}return c(n,e,o)}}function v(){return 1}function y(t){return 1===t?1:0}function d(){var t=arguments.length>0&&void 0!==arguments[0]?arguments[0]:1,n=arguments.length>1&&void 0!==arguments[1]?arguments[1]:0;if(1===t){if(0===n)return y;if(1===n)return v}var r=1/t;return function(t){return t>=1?1:(t+=n*r)-t%r}}function g(t){var n=arguments.length>1&&void 0!==arguments[1]?arguments[1]:2;if(Number.isInteger(t))return t;var r=Math.pow(10,n);return Math.round(t*r)/r}var p=Math.PI/180;function m(t,n,r){return t>=.5?r:n}function w(t,n,r){return 0===t||n===r?n:t*(r-n)+n}function b(t,n,r){var e=w(t,n,r);return e<=0?0:e}function k(t,n,r){return 0===t?n:1===t?r:{x:w(t,n.x,r.x),y:w(t,n.y,r.y)}}function x(t,n,r){var e=function(t,n,r){return Math.round(w(t,n,r))}(t,n,r);return e<=0?0:e>=255?255:e}function A(t,n,r){return 0===t?n:1===t?r:{r:x(t,n.r,r.r),g:x(t,n.g,r.g),b:x(t,n.b,r.b),a:w(t,null==n.a?1:n.a,null==r.a?1:r.a)}}function _(t,n,r){if(0===t)return n;if(1===t)return r;var e=n.length;if(e!==r.length)return m(t,n,r);for(var i=[],o=0;o<e;o++)i.push(A(t,n[o],r[o]));return i}function S(t,n){for(var r=[],e=0;e<t;e++)r.push(n);return r}function O(t,n){if(--n<=0)return t;var r=(t=Object.assign([],t)).length;do{for(var e=0;e<r;e++)t.push(t[e])}while(--n>0);return t}var M,j=function(){function t(r){n(this,t),this.list=r,this.length=r.length}return e(t,[{key:"setAttribute",value:function(t,n){for(var r=this.list,e=0;e<this.length;e++)r[e].setAttribute(t,n)}},{key:"removeAttribute",value:function(t){for(var n=this.list,r=0;r<this.length;r++)n[r].removeAttribute(t)}},{key:"style",value:function(t,n){for(var r=this.list,e=0;e<this.length;e++)r[e].style[t]=n}}]),t}(),F=/-./g,P=function(t,n){return n.toUpperCase()};function I(t){return"function"==typeof t?t:m}function q(t){return t?"function"==typeof t?t:Array.isArray(t)?function(t){var n=arguments.length>1&&void 0!==arguments[1]?arguments[1]:s;if(!Array.isArray(t))return n;switch(t.length){case 1:return d(t[0])||n;case 2:return d(t[0],t[1])||n;case 4:return h(t[0],t[1],t[2],t[3])||n}return n}(t,null):function(t,n){var r=arguments.length>2&&void 0!==arguments[2]?arguments[2]:s;switch(t){case"linear":return s;case"steps":return d(n.steps||1,n.jump||0)||r;case"bezier":case"cubic-bezier":return h(n.x1||0,n.y1||0,n.x2||0,n.y2||0)||r}return r}(t.type,t.value,null):null}function B(t,n,r){var e=arguments.length>3&&void 0!==arguments[3]&&arguments[3],i=n.length-1;if(t<=n[0].t)return e?[0,0,n[0].v]:n[0].v;if(t>=n[i].t)return e?[i,1,n[i].v]:n[i].v;var o,u=n[0],a=null;for(o=1;o<=i;o++){if(!(t>n[o].t)){a=n[o];break}u=n[o]}return null==a?e?[i,1,n[i].v]:n[i].v:u.t===a.t?e?[o,1,a.v]:a.v:(t=(t-u.t)/(a.t-u.t),u.e&&(t=u.e(t)),e?[o,t,r(t,u.v,a.v)]:r(t,u.v,a.v))}function R(t,n){var r=arguments.length>2&&void 0!==arguments[2]?arguments[2]:null;return t&&t.length?"function"!=typeof n?null:("function"!=typeof r&&(r=null),function(e){var i=B(e,t,n);return null!=i&&r&&(i=r(i)),i}):null}function E(t,n){return t.t-n.t}function T(n,r,e,i,o){var u,a="@"===e[0],l="#"===e[0],f=M[e],s=m;switch(a?(u=e.substr(1),e=u.replace(F,P)):l&&(e=e.substr(1)),t(f)){case"function":if(s=f(i,o,B,q,e,a,r,n),l)return s;break;case"string":s=R(i,I(f));break;case"object":if((s=R(i,I(f.i),f.f))&&"function"==typeof f.u)return f.u(r,s,e,a,n)}return s?function(t,n,r){var e=arguments.length>3&&void 0!==arguments[3]&&arguments[3];if(e)return t instanceof j?function(e){return t.style(n,r(e))}:function(e){return t.style[n]=r(e)};if(Array.isArray(n)){var i=n.length;return function(e){var o=r(e);if(null==o)for(var u=0;u<i;u++)t[u].removeAttribute(n);else for(var a=0;a<i;a++)t[a].setAttribute(n,o)}}return function(e){var i=r(e);null==i?t.removeAttribute(n):t.setAttribute(n,i)}}(r,e,s,a):null}function z(n,r,e,i){if(!i||"object"!==t(i))return null;var o=null,u=null;return Array.isArray(i)?u=function(t){if(!t||!t.length)return null;for(var n=0;n<t.length;n++)t[n].e&&(t[n].e=q(t[n].e));return t.sort(E)}(i):(u=i.keys,o=i.data||null),u?T(n,r,e,u,o):null}function C(t,n,r){if(!r)return null;var e=[];for(var i in r)if(r.hasOwnProperty(i)){var o=z(t,n,i,r[i]);o&&e.push(o)}return e.length?e:null}function D(t,n){if(!n.duration||n.duration<0)return null;var r=function(t,n){if(!n)return null;var r=[];if(Array.isArray(n))for(var e=n.length,i=0;i<e;i++){var o=n[i];if(2===o.length){var u=null;if("string"==typeof o[0])u=t.getElementById(o[0]);else if(Array.isArray(o[0])){u=[];for(var a=0;a<o[0].length;a++)if("string"==typeof o[0][a]){var l=t.getElementById(o[0][a]);l&&u.push(l)}u=u.length?1===u.length?u[0]:new j(u):null}if(u){var f=C(t,u,o[1]);f&&(r=r.concat(f))}}}else for(var s in n)if(n.hasOwnProperty(s)){var c=t.getElementById(s);if(c){var h=C(t,c,n[s]);h&&(r=r.concat(h))}}return r.length?r:null}(t,n.elements);return r?function(t,n){var r=arguments.length>2&&void 0!==arguments[2]?arguments[2]:1/0,e=arguments.length>3&&void 0!==arguments[3]?arguments[3]:1,i=arguments.length>4&&void 0!==arguments[4]&&arguments[4],o=arguments.length>5&&void 0!==arguments[5]?arguments[5]:1,u=t.length,a=e>0?n:0;i&&r%2==0&&(a=n-a);var l=null;return function(f,s){var c=f%n,h=1+(f-c)/n;s*=e,i&&h%2==0&&(s=-s);var v=!1;if(h>r)c=a,v=!0,-1===o&&(c=e>0?0:n);else if(s<0&&(c=n-c),c===l)return!1;l=c;for(var y=0;y<u;y++)t[y](c);return v}}(r,n.duration,n.iterations||1/0,n.direction||1,!!n.alternate,n.fill||1):null}function N(t,n){if(M=n,!t||!t.root||!Array.isArray(t.animations))return null;var r=window.document.getElementById(t.root);if(!r)return null;var e=t.animations.map((function(t){return D(r,t)})).filter((function(t){return!!t}));return e.length?{element:r,animations:e,animationSettings:t.animationSettings,options:t.options||void 0}:null}var L=function(){function t(r,e){var i=arguments.length>2&&void 0!==arguments[2]?arguments[2]:{};n(this,t),this._id=0,this._running=!1,this._rollingBack=!1,this._animations=r,this.duration=e.duration,this.alternate=e.alternate,this.fill=e.fill,this.iterations=e.iterations,this.direction=i.direction||1,this.speed=i.speed||1,this.fps=i.fps||100,this.offset=i.offset||0,this.rollbackStartOffset=0}return e(t,[{key:"_rollback",value:function(){var t=this,n=1/0,r=null;this.rollbackStartOffset=this.offset,this._rollingBack||(this._rollingBack=!0,this._running=!0);this._id=window.requestAnimationFrame((function e(i){if(t._rollingBack){null==r&&(r=i);var o=i-r,u=t.rollbackStartOffset-o,a=Math.round(u*t.speed);if(a>t.duration&&n!=1/0){var l=!!t.alternate&&a/t.duration%2>1,f=a%t.duration;a=(f+=l?t.duration:0)||t.duration}var s=t.fps?1e3/t.fps:0,c=Math.max(0,a);if(c<n-s){t.offset=c,n=c;for(var h=t._animations,v=h.length,y=0;y<v;y++)h[y](c,t.direction)}var d=!1;if(t.iterations>0&&-1===t.fill){var g=t.iterations*t.duration,p=g==a;a=p?0:a,t.offset=p?0:t.offset,d=a>g}a>0&&t.offset>=a&&!d?t._id=window.requestAnimationFrame(e):t.stop()}}))}},{key:"_start",value:function(){var t=this,n=arguments.length>0&&void 0!==arguments[0]?arguments[0]:0,r=-1/0,e=null,i={},o=function o(u){t._running=!0,null==e&&(e=u);var a=Math.round((u-e+n)*t.speed),l=t.fps?1e3/t.fps:0;if(a>r+l&&!t._rollingBack){t.offset=a,r=a;for(var f=t._animations,s=f.length,c=0,h=0;h<s;h++)i[h]?c++:(i[h]=f[h](a,t.direction),i[h]&&c++);if(c===s)return void t._stop()}t._id=window.requestAnimationFrame(o)};this._id=window.requestAnimationFrame(o)}},{key:"_stop",value:function(){this._id&&window.cancelAnimationFrame(this._id),this._running=!1,this._rollingBack=!1}},{key:"play",value:function(){!this._rollingBack&&this._running||(this._rollingBack=!1,this.rollbackStartOffset>this.duration&&(this.offset=this.rollbackStartOffset-(this.rollbackStartOffset-this.offset)%this.duration,this.rollbackStartOffset=0),this._start(this.offset))}},{key:"stop",value:function(){this._stop(),this.offset=0,this.rollbackStartOffset=0;var t=this.direction,n=this._animations;window.requestAnimationFrame((function(){for(var r=0;r<n.length;r++)n[r](0,t)}))}},{key:"reachedToEnd",value:function(){return this.iterations>0&&this.offset>=this.iterations*this.duration}},{key:"restart",value:function(){this._stop(),this.offset=0,this._start()}},{key:"pause",value:function(){this._stop()}},{key:"reverse",value:function(){this.direction=-this.direction}}],[{key:"build",value:function(n,r){return(n=N(n,r))?{el:n.element,options:n.options||{},player:new t(n.animations,n.animationSettings,n.options)}:null}}]),t}();!function(){for(var t=0,n=["ms","moz","webkit","o"],r=0;r<n.length&&!window.requestAnimationFrame;++r)window.requestAnimationFrame=window[n[r]+"RequestAnimationFrame"],window.cancelAnimationFrame=window[n[r]+"CancelAnimationFrame"]||window[n[r]+"CancelRequestAnimationFrame"];window.requestAnimationFrame||(window.requestAnimationFrame=function(n){var r=Date.now(),e=Math.max(0,16-(r-t)),i=window.setTimeout((function(){n(r+e)}),e);return t=r+e,i},window.cancelAnimationFrame=window.clearTimeout)}();var V=/\.0+$/g;function $(t){return Number.isInteger(t)?t+"":t.toFixed(6).replace(V,"")}function G(t){var n=arguments.length>1&&void 0!==arguments[1]?arguments[1]:" ";return t&&t.length?t.map($).join(n):""}function H(t){return t?null==t.a||t.a>=1?"rgb("+t.r+","+t.g+","+t.b+")":"rgba("+t.r+","+t.g+","+t.b+","+t.a+")":"transparent"}var Q={f:null,i:function(t,n,r){return 0===t?n:1===t?r:{x:b(t,n.x,r.x),y:b(t,n.y,r.y)}},u:function(t,n){return function(r){var e=n(r);t.setAttribute("rx",$(e.x)),t.setAttribute("ry",$(e.y))}}},U={f:null,i:function(t,n,r){return 0===t?n:1===t?r:{width:b(t,n.width,r.width),height:b(t,n.height,r.height)}},u:function(t,n){return function(r){var e=n(r);t.setAttribute("width",$(e.width)),t.setAttribute("height",$(e.height))}}},Y=Math.sin,Z=Math.cos,J=Math.acos,K=Math.asin,W=Math.tan,X=Math.atan2,tt=Math.PI/180,nt=180/Math.PI,rt=Math.sqrt,et=function(){function t(){var r=arguments.length>0&&void 0!==arguments[0]?arguments[0]:1,e=arguments.length>1&&void 0!==arguments[1]?arguments[1]:0,i=arguments.length>2&&void 0!==arguments[2]?arguments[2]:0,o=arguments.length>3&&void 0!==arguments[3]?arguments[3]:1,u=arguments.length>4&&void 0!==arguments[4]?arguments[4]:0,a=arguments.length>5&&void 0!==arguments[5]?arguments[5]:0;n(this,t),this.m=[r,e,i,o,u,a],this.i=null,this.w=null,this.s=null}return e(t,[{key:"point",value:function(t,n){var r=this.m;return{x:r[0]*t+r[2]*n+r[4],y:r[1]*t+r[3]*n+r[5]}}},{key:"translateSelf",value:function(){var t=arguments.length>0&&void 0!==arguments[0]?arguments[0]:0,n=arguments.length>1&&void 0!==arguments[1]?arguments[1]:0;if(!t&&!n)return this;var r=this.m;return r[4]+=r[0]*t+r[2]*n,r[5]+=r[1]*t+r[3]*n,this.w=this.s=this.i=null,this}},{key:"rotateSelf",value:function(){var t=arguments.length>0&&void 0!==arguments[0]?arguments[0]:0;if(t%=360){var n=Y(t*=tt),r=Z(t),e=this.m,i=e[0],o=e[1];e[0]=i*r+e[2]*n,e[1]=o*r+e[3]*n,e[2]=e[2]*r-i*n,e[3]=e[3]*r-o*n,this.w=this.s=this.i=null}return this}},{key:"scaleSelf",value:function(){var t=arguments.length>0&&void 0!==arguments[0]?arguments[0]:1,n=arguments.length>1&&void 0!==arguments[1]?arguments[1]:1;if(1!==t||1!==n){var r=this.m;r[0]*=t,r[1]*=t,r[2]*=n,r[3]*=n,this.w=this.s=this.i=null}return this}},{key:"skewSelf",value:function(t,n){if(n%=360,(t%=360)||n){var r=this.m,e=r[0],i=r[1],o=r[2],u=r[3];t&&(t=W(t*tt),r[2]+=e*t,r[3]+=i*t),n&&(n=W(n*tt),r[0]+=o*n,r[1]+=u*n),this.w=this.s=this.i=null}return this}},{key:"resetSelf",value:function(){var t=arguments.length>0&&void 0!==arguments[0]?arguments[0]:1,n=arguments.length>1&&void 0!==arguments[1]?arguments[1]:0,r=arguments.length>2&&void 0!==arguments[2]?arguments[2]:0,e=arguments.length>3&&void 0!==arguments[3]?arguments[3]:1,i=arguments.length>4&&void 0!==arguments[4]?arguments[4]:0,o=arguments.length>5&&void 0!==arguments[5]?arguments[5]:0,u=this.m;return u[0]=t,u[1]=n,u[2]=r,u[3]=e,u[4]=i,u[5]=o,this.w=this.s=this.i=null,this}},{key:"recomposeSelf",value:function(){var t=arguments.length>0&&void 0!==arguments[0]?arguments[0]:null,n=arguments.length>1&&void 0!==arguments[1]?arguments[1]:null,r=arguments.length>2&&void 0!==arguments[2]?arguments[2]:null,e=arguments.length>3&&void 0!==arguments[3]?arguments[3]:null,i=arguments.length>4&&void 0!==arguments[4]?arguments[4]:null;return this.isIdentity||this.resetSelf(),t&&(t.x||t.y)&&this.translateSelf(t.x,t.y),n&&this.rotateSelf(n),r&&(r.x&&this.skewSelf(r.x,0),r.y&&this.skewSelf(0,r.y)),!e||1===e.x&&1===e.y||this.scaleSelf(e.x,e.y),i&&(i.x||i.y)&&this.translateSelf(i.x,i.y),this}},{key:"decompose",value:function(){var t=arguments.length>0&&void 0!==arguments[0]?arguments[0]:0,n=arguments.length>1&&void 0!==arguments[1]?arguments[1]:0,r=this.m,e=r[0]*r[0]+r[1]*r[1],i=[[r[0],r[1]],[r[2],r[3]]],o=rt(e);if(0===o)return{origin:{x:r[4],y:r[5]},translate:{x:t,y:n},scale:{x:0,y:0},skew:{x:0,y:0},rotate:0};i[0][0]/=o,i[0][1]/=o;var u=r[0]*r[3]-r[1]*r[2]<0;u&&(o=-o);var a=i[0][0]*i[1][0]+i[0][1]*i[1][1];i[1][0]-=i[0][0]*a,i[1][1]-=i[0][1]*a;var l=rt(i[1][0]*i[1][0]+i[1][1]*i[1][1]);if(0===l)return{origin:{x:r[4],y:r[5]},translate:{x:t,y:n},scale:{x:o,y:0},skew:{x:0,y:0},rotate:0};i[1][0]/=l,i[1][1]/=l,a/=l;var f=0;return i[1][1]<0?(f=J(i[1][1])*nt,i[0][1]<0&&(f=360-f)):f=K(i[0][1])*nt,u&&(f=-f),a=X(a,rt(i[0][0]*i[0][0]+i[0][1]*i[0][1]))*nt,{origin:{x:r[4],y:r[5]},translate:{x:t,y:n},scale:{x:o,y:l},skew:{x:a,y:0},rotate:f}}},{key:"toString",value:function(){return null===this.s&&(this.s="matrix("+this.m.map(ot).join(" ")+")"),this.s}},{key:"determinant",get:function(){var t=this.m;return t[0]*t[3]-t[1]*t[2]}},{key:"isIdentity",get:function(){if(null===this.i){var t=this.m;this.i=1===t[0]&&0===t[1]&&0===t[2]&&1===t[3]&&0===t[4]&&0===t[5]}return this.i}}]),t}(),it=/\.0+$/;function ot(t){return Number.isInteger(t)?t:t.toFixed(14).replace(it,"")}Object.freeze({M:2,L:2,Z:0,H:1,V:1,C:6,Q:4,T:2,S:4,A:7});function ut(t,n,r){return t+(n-t)*r}function at(t,n,r){var e=arguments.length>3&&void 0!==arguments[3]&&arguments[3],i={x:ut(t.x,n.x,r),y:ut(t.y,n.y,r)};return e&&(i.a=lt(t,n)),i}function lt(t,n){return Math.atan2(n.y-t.y,n.x-t.x)}function ft(t,n,r,e){var i=1-e;return i*i*t+2*i*e*n+e*e*r}function st(t,n,r,e){return 2*(1-e)*(n-t)+2*e*(r-n)}function ct(t,n,r,e){var i=arguments.length>4&&void 0!==arguments[4]&&arguments[4],o={x:ft(t.x,n.x,r.x,e),y:ft(t.y,n.y,r.y,e)};return i&&(o.a=ht(t,n,r,e)),o}function ht(t,n,r,e){return Math.atan2(st(t.y,n.y,r.y,e),st(t.x,n.x,r.x,e))}function vt(t,n,r,e,i){var o=i*i;return i*o*(e-t+3*(n-r))+3*o*(t+r-2*n)+3*i*(n-t)+t}function yt(t,n,r,e,i){var o=1-i;return 3*(o*o*(n-t)+2*o*i*(r-n)+i*i*(e-r))}function dt(t,n,r,e,i){var o=arguments.length>5&&void 0!==arguments[5]&&arguments[5],u={x:vt(t.x,n.x,r.x,e.x,i),y:vt(t.y,n.y,r.y,e.y,i)};return o&&(u.a=gt(t,n,r,e,i)),u}function gt(t,n,r,e,i){return Math.atan2(yt(t.y,n.y,r.y,e.y,i),yt(t.x,n.x,r.x,e.x,i))}function pt(t,n,r){var e=arguments.length>3&&void 0!==arguments[3]&&arguments[3];if(wt(n)){if(bt(r))return ct(n,r.start,r,t,e)}else if(wt(r)){if(n.end)return ct(n,n.end,r,t,e)}else{if(n.end)return r.start?dt(n,n.end,r.start,r,t,e):ct(n,n.end,r,t,e);if(r.start)return ct(n,r.start,r,t,e)}return at(n,r,t,e)}function mt(t,n,r){var e=pt(t,n,r,!0);return e.a=function(t){var n=arguments.length>1&&void 0!==arguments[1]&&arguments[1];return n?t+Math.PI:t}(e.a)/p,e}function wt(t){return!t.type||"corner"===t.type}function bt(t){return null!=t.start&&!wt(t)}var kt=new et;var xt={f:$,i:w},At={f:$,i:function(t,n,r){var e=w(t,n,r);return e<=0?0:e>=1?1:e}};function _t(t,n,r,e,i,o,u,a){return n=function(t,n,r){for(var e,i,o,u=t.length-1,a={},l=0;l<=u;l++)(e=t[l]).e&&(e.e=n(e.e)),e.v&&"g"===(i=e.v).t&&i.r&&(o=r.getElementById(i.r))&&(a[i.r]=o.querySelectorAll("stop"));return a}(t,e,a),function(e){var i,o=r(e,t,St);return o?"c"===o.t?H(o.v):"g"===o.t?(n[o.r]&&function(t,n){for(var r=0,e=t.length;r<e;r++)t[r].setAttribute("stop-color",H(n[r]))}(n[o.r],o.v),(i=o.r)?"url(#"+i+")":"none"):"none":"none"}}function St(t,n,r){if(0===t)return n;if(1===t)return r;if(n&&r){var e=n.t;if(e===r.t)switch(n.t){case"c":return{t:e,v:A(t,n.v,r.v)};case"g":if(n.r===r.r)return{t:e,v:_(t,n.v,r.v),r:n.r}}}return m(t,n,r)}var Ot={fill:_t,"fill-opacity":At,stroke:_t,"stroke-opacity":At,"stroke-width":xt,"stroke-dashoffset":{f:$,i:w},"stroke-dasharray":{f:function(t){var n=arguments.length>1&&void 0!==arguments[1]?arguments[1]:" ";return t&&t.length>0&&(t=t.map((function(t){return Math.floor(1e4*t)/1e4}))),G(t,n)},i:function(t,n,r){var e,i,o,u=n.length,a=r.length;if(u!==a)if(0===u)n=S(u=a,0);else if(0===a)a=u,r=S(u,0);else{var l=(o=(e=u)*(i=a)/function(t,n){for(var r;n;)r=n,n=t%n,t=r;return t||1}(e,i))<0?-o:o;n=O(n,Math.floor(l/u)),r=O(r,Math.floor(l/a)),u=a=l}for(var f=[],s=0;s<u;s++)f.push(g(b(t,n[s],r[s]),6));return f}},opacity:At,transform:function(n,r,e,i){if(!(n=function(n,r){if(!n||"object"!==t(n))return null;var e=!1;for(var i in n)n.hasOwnProperty(i)&&(n[i]&&n[i].length?(n[i].forEach((function(t){t.e&&(t.e=r(t.e))})),e=!0):delete n[i]);return e?n:null}(n,i)))return null;var o=function(t,i,o){var u=arguments.length>3&&void 0!==arguments[3]?arguments[3]:null;return n[t]?e(i,n[t],o):r&&r[t]?r[t]:u};return r&&r.a&&n.o?function(t){var r=e(t,n.o,mt);return kt.recomposeSelf(r,o("r",t,w,0)+r.a,o("k",t,k),o("s",t,k),o("t",t,k)).toString()}:function(t){return kt.recomposeSelf(o("o",t,pt,null),o("r",t,w,0),o("k",t,k),o("s",t,k),o("t",t,k)).toString()}},r:xt,"#size":U,"#radius":Q,_:function(t,n){if(Array.isArray(t))for(var r=0;r<t.length;r++)this[t[r]]=n;else this[t]=n}};return function(t){!function(t,n){if("function"!=typeof n&&null!==n)throw new TypeError("Super expression must either be null or a function");t.prototype=Object.create(n&&n.prototype,{constructor:{value:t,writable:!0,configurable:!0}}),n&&o(t,n)}(u,t);var r=a(u);function u(){return n(this,u),r.apply(this,arguments)}return e(u,null,[{key:"build",value:function(t){var n=l(i(u),"build",this).call(this,t,Ot),r=(n.el,n.options,n.player);return function(t){t.play()}(r),r}}]),u}(L)}));
__SVGATOR_PLAYER__.build({"root":"ehvua95aqwdt1","animations":[{"duration":5000,"direction":1,"iterations": Infinity,"fill":1,"alternate":false,"elements":{"ehvua95aqwdt5":{"transform":{"data":{"s":{"x":1.0254222484205433,"y":1.0022224958049195},"t":{"x":-108.69457872171635,"y":-326.5929847271796}},"keys":{"o":[{"t":0,"v":{"x":121.11835479736328,"y":259.9754943847656,"type":"corner"}},{"t":1700,"v":{"x":122.88603906,"y":249.281555,"type":"corner"}},{"t":2300,"v":{"x":122.88603906,"y":259.337785,"type":"corner"}}]}},"opacity":[{"t":0,"v":0,"e":[0.55,0.055,0.675,0.19]},{"t":1700,"v":1,"e":[0.55,0.055,0.675,0.19]}]},"ehvua95aqwdt27":{"transform":{"data":{"o":{"x":119.37788009643555,"y":172.12444305419922,"type":"corner"},"t":{"x":-119.37788009643555,"y":-172.12444305419922}},"keys":{"s":[{"t":0,"v":{"x":0.4823199522113124,"y":0.22375950087451607}},{"t":800,"v":{"x":1.9659691741270389,"y":1.0181824790260863}},{"t":1300,"v":{"x":2.008549408026392,"y":0.8441277023347326}},{"t":1800,"v":{"x":2.322960594370268,"y":1.000924507664357}}]}}},"ehvua95aqwdt29":{"transform":{"data":{"o":{"x":150.40399932861328,"y":129.92141723632812,"type":"corner"},"t":{"x":-150.40399932861328,"y":-129.92141723632812}},"keys":{"r":[{"t":0,"v":0},{"t":800,"v":31.673054148588243},{"t":1400,"v":19.682047370463483},{"t":1800,"v":20.798907032417212}]}}},"ehvua95aqwdt35":{"transform":{"data":{"t":{"x":-144.39849853515625,"y":-141.60699462890625}},"keys":{"o":[{"t":0,"v":{"x":144.10837078515627,"y":145.09124861890638,"type":"corner"}},{"t":1700,"v":{"x":144.95338570515642,"y":141.7876414189066,"type":"corner"}}]}}},"ehvua95aqwdt37":{"transform":{"data":{"t":{"x":-113.93694686889648,"y":-133.1300277709961}},"keys":{"o":[{"t":100,"v":{"x":113.46974909889644,"y":136.7107294209961,"type":"corner"}},{"t":1700,"v":{"x":114.09262819389643,"y":133.36058745599595,"type":"corner"}}]}}},"ehvua95aqwdt38":{"transform":{"data":{"o":{"x":148.28431462505858,"y":157.42400132570316,"type":"corner"},"r":1.688527141382016,"t":{"x":-148.1667709350586,"y":-157.34500122070312}},"keys":{"s":[{"t":0,"v":{"x":1,"y":1}},{"t":1500,"v":{"x":0.9497760811547834,"y":1.1480942289169453}},{"t":2000,"v":{"x":1.190420864502372,"y":1.577088935790643}},{"t":2800,"v":{"x":0.8617219144902604,"y":0.9802223102417604}}]}}},"ehvua95aqwdt46":{"transform":{"data":{"o":{"x":65.70946923215934,"y":46.37207551338749,"type":"corner"},"t":{"x":-62.410404682159424,"y":-39.69234800338745}},"keys":{"s":[{"t":0,"v":{"x":0.28594904562432544,"y":0.28594904562432544}},{"t":1700,"v":{"x":1.0312762131433884,"y":1.0312762131433884}}]}},"opacity":[{"t":0,"v":0},{"t":1600,"v":1}]},"ehvua95aqwdt47":{"opacity":[{"t":0,"v":0},{"t":1700,"v":1}]}}}],"options":{"start":"load","hover":"freeze","click":"freeze","scroll":25,"exportedIds":"unique","title":"Guy"},"animationSettings":{"duration":5000,"direction":1,"iterations":1,"fill":1,"alternate":false}})]]></script></svg>
