<svg id="eej1y1wlp6m91" xmlns="http://www.w3.org/2000/svg" xmlns:xlink="http://www.w3.org/1999/xlink" viewBox="0 0 205 313" shape-rendering="geometricPrecision" text-rendering="geometricPrecision"><path id="eej1y1wlp6m92" d="M159.113000,137.725000C159.525000,136.491000,164.940000,129.431000,163.569000,128.335000C162.198000,127.238000,158.428000,135.257000,157.331000,134.572000C156.234000,133.886000,158.565000,122.509000,155.823000,124.085000C153.081000,125.593000,154.589000,134.915000,153.218000,134.024000C151.847000,133.064000,150.887000,122.029000,148.762000,123.948000C146.705000,125.867000,151.778000,135.737000,149.721000,135.326000C147.665000,134.915000,144.786000,133.612000,142.660000,134.914000C140.535000,136.148000,148.213000,136.834000,148.899000,138.821000C149.584000,140.740000,149.447000,141.563000,149.447000,141.563000C149.447000,141.563000,140.878000,157.601000,127.647000,167.265000C114.691000,176.723000,97.431075,182.707342,93.729175,182.776342C88.840013,187.498642,96.643541,192.823703,101.451509,193.865135L100.500000,187.758000C100.500000,187.758000,131.760000,185.496000,155.891000,141.083000C155.891000,141.083000,157.125000,141.494000,158.222000,140.260000C158.222000,140.260000,166.517000,139.438000,166.517000,137.793000C166.449000,136.080000,158.702000,138.958000,159.113000,137.725000Z" transform="matrix(0.83448867110610 0.00893113358204 -0.01187248660270 1.10931669275770 19.64002428466777 -22.67431018756025)" fill="rgb(239,202,166)" stroke="none" stroke-width="1"/><path id="eej1y1wlp6m93" d="M57.738300,197.926000L57.738300,198.556000L101.553000,198.556000L101.381000,197.754000C86.833300,197.754000,72.285800,197.869000,57.738300,197.926000Z" fill="rgb(255,255,255)" stroke="none" stroke-width="1"/><path id="eej1y1wlp6m94" d="M23.239300,199.135000L23.239300,312.361000L135.873000,312.361000L135.873000,198.793000L23.239300,199.135000Z" fill="rgb(242,242,242)" stroke="none" stroke-width="1"/><path id="eej1y1wlp6m95" d="M135.873000,312.361000L140.123000,309.619000L140.123000,200.712000L135.873000,198.793000L135.873000,312.361000Z" fill="rgb(80,91,117)" stroke="none" stroke-width="1"/><path id="eej1y1wlp6m96" d="M133.679000,201.808000C133.679000,202.631000,133.062000,203.247000,132.239000,203.247000C131.417000,203.247000,130.800000,202.562000,130.800000,201.808000C130.800000,200.986000,131.417000,200.369000,132.239000,200.369000C132.994000,200.300000,133.679000,200.986000,133.679000,201.808000Z" fill="rgb(198,198,198)" stroke="none" stroke-width="1"/><path id="eej1y1wlp6m97" d="M27.490600,201.809000C27.490600,202.631000,26.873600,203.248000,26.051000,203.248000C25.228300,203.248000,24.611300,202.563000,24.611300,201.809000C24.611300,200.986000,25.228300,200.369000,26.051000,200.369000C26.805100,200.301000,27.490600,200.986000,27.490600,201.809000Z" fill="rgb(198,198,198)" stroke="none" stroke-width="1"/><path id="eej1y1wlp6m98" d="M133.679000,308.317000C133.679000,309.140000,133.062000,309.757000,132.239000,309.757000C131.417000,309.757000,130.800000,309.071000,130.800000,308.317000C130.800000,307.495000,131.417000,306.878000,132.239000,306.878000C132.994000,306.810000,133.679000,307.495000,133.679000,308.317000Z" fill="rgb(198,198,198)" stroke="none" stroke-width="1"/><path id="eej1y1wlp6m99" d="M27.490600,308.317000C27.490600,309.140000,26.873600,309.757000,26.051000,309.757000C25.228300,309.757000,24.611300,309.071000,24.611300,308.317000C24.611300,307.495000,25.228300,306.878000,26.051000,306.878000C26.805100,306.810000,27.490600,307.495000,27.490600,308.317000Z" fill="rgb(198,198,198)" stroke="none" stroke-width="1"/><g id="eej1y1wlp6m910" opacity="0"><path id="eej1y1wlp6m911" d="M52.100800,249.649000L41.337900,255.954000C41.337900,255.954000,52.649200,279.668000,54.980100,291.525000C54.980100,291.525000,65.811500,266.098000,117.775000,216.202000L115.719000,214.077000C115.719000,214.077000,74.106500,244.371000,59.710300,269.182000L52.100800,249.649000Z" fill="rgb(38,181,69)" fill-rule="evenodd" stroke="none" stroke-width="1"/></g><path id="eej1y1wlp6m912" d="M95.700100,182.002000C95.631500,182.002000,95.563000,182.002000,95.494400,182.002000C92.203800,181.865000,64.371100,181.934000,62.862900,182.002000C62.862900,182.002000,59.915100,182.139000,55.733300,182.756000C58.955300,191.324000,53.059700,193.859000,50.249000,194.476000L50.249000,199.068000L102.693000,199.068000L101.596000,193.380000C96.659800,191.598000,95.700100,186.115000,95.700100,182.002000Z" fill="rgb(0,106,176)" stroke="none" stroke-width="1"/><path id="eej1y1wlp6m913" d="M95.700400,183.166000C95.700400,182.754000,95.631800,182.412000,95.631800,182C95.563200,182,95.494700,182,95.426100,182C92.135600,181.863000,64.302800,181.932000,62.794600,182C62.794600,182,59.846800,182.138000,55.665000,182.754000C55.733600,182.823000,55.733600,182.960000,55.733600,183.029000C69.101600,183.029000,82.401000,183.097000,95.700400,183.166000Z" fill="rgb(255,255,255)" stroke="none" stroke-width="1"/><path id="eej1y1wlp6m914" d="M56.624200,187.209000C56.624200,187.620000,56.624200,187.963000,56.555700,188.306000C69.923600,188.374000,83.360100,188.443000,96.728100,188.443000C96.522400,187.963000,96.385300,187.483000,96.248200,187.003000C83.017400,187.003000,69.786500,187.140000,56.624200,187.209000Z" fill="rgb(255,255,255)" stroke="none" stroke-width="1"/><path id="eej1y1wlp6m915" d="M100.019000,192.624000C84.663200,192.624000,69.307200,192.624000,54.019700,192.761000C53.471300,193.172000,52.854300,193.515000,52.237300,193.789000C68.690200,193.857000,85.211600,193.857000,101.664000,193.857000L101.596000,193.446000C100.979000,193.172000,100.430000,192.898000,100.019000,192.624000Z" fill="rgb(255,255,255)" stroke="none" stroke-width="1"/><g id="eej1y1wlp6m916" style="mix-blend-mode:multiply"><path id="eej1y1wlp6m917" d="M68.074100,208.251000C71.638900,207.428000,74.175400,204.481000,69.993700,204.687000C65.811900,204.824000,63.755300,207.565000,63.206800,207.428000C62.864100,207.360000,55.391700,202.768000,49.290400,199.067000C45.657100,199.067000,42.092300,199.067000,38.459000,199.135000C45.931300,203.796000,59.436400,211.746000,59.436400,211.746000C59.436400,211.746000,58.750900,213.391000,59.984800,215.516000C59.984800,215.516000,59.710600,225.317000,61.493000,224.906000C63.275400,224.494000,62.041400,215.242000,62.864100,216.887000C63.686700,218.531000,67.183000,225.591000,68.279800,223.809000C69.376700,222.027000,63.686700,213.460000,66.360300,215.516000C68.965300,217.572000,73.147100,221.616000,73.969800,219.697000C74.792400,217.778000,65.674800,212.774000,69.513800,213.460000C73.421300,214.145000,79.179800,214.693000,76.574800,212.089000C74.038300,209.416000,64.440800,209.142000,68.074100,208.251000Z" fill="rgb(198,198,198)" stroke="none" stroke-width="1"/></g><path id="eej1y1wlp6m918" d="M123.944000,126.485000C123.944000,126.485000,146.361000,129.774000,151.366000,159.520000L147.047000,165.346000L143.482000,157.327000L145.950000,167.402000L139.849000,171.172000L136.970000,161.919000L138.341000,171.172000L129.223000,173.091000C129.223000,173.091000,129.634000,153.694000,124.493000,146.361000L123.944000,126.485000Z" fill="rgb(224,136,4)" stroke="none" stroke-width="1"/><path id="eej1y1wlp6m919" d="M127.441000,153.763000C130.732000,145.675000,130.869000,136.491000,128.812000,127.924000C125.933000,126.759000,124.014000,126.485000,124.014000,126.485000L124.562000,146.429000C125.796000,148.280000,126.756000,150.884000,127.441000,153.763000Z" opacity="0.3" fill="rgb(224,136,4)" stroke="none" stroke-width="1"/><path id="eej1y1wlp6m920" d="M70.677800,179.602000C70.677800,179.602000,68.209900,192.213000,74.448300,193.036000C80.686600,193.858000,83.017500,182.823000,82.743200,179.602000L70.677800,179.602000Z" fill="rgb(239,202,166)" stroke="none" stroke-width="1"/><path id="eej1y1wlp6m921" d="M55.666300,182.755000C51.004700,183.440000,44.766300,184.743000,39.350600,187.141000C28.999000,191.733000,30.232900,194.201000,32.632300,196.120000C34.963100,198.039000,58.202800,211.747000,58.202800,211.747000C58.202800,211.747000,57.517300,213.392000,58.751200,215.516000C58.751200,215.516000,58.477000,225.317000,60.259400,224.906000C62.041800,224.495000,60.807800,215.242000,61.630500,216.887000C62.453100,218.532000,65.949400,225.591000,67.046200,223.809000C68.143100,222.027000,62.453100,213.460000,65.126700,215.516000C67.731800,217.572000,71.913500,221.616000,72.736200,219.697000C73.558800,217.778000,64.441200,212.775000,68.280200,213.460000C72.187800,214.145000,77.946200,214.694000,75.341200,212.089000C72.736200,209.485000,63.138700,209.211000,66.772000,208.320000C70.336800,207.497000,72.873300,204.550000,68.691500,204.756000C64.509700,204.893000,62.453100,207.634000,61.904700,207.497000C61.356300,207.360000,40.173200,194.338000,40.173200,194.338000C40.173200,194.338000,46.822900,191.322000,50.113500,190.431000L50.113500,194.475000C52.992700,193.790000,58.888300,191.322000,55.666300,182.755000Z" fill="rgb(239,202,166)" stroke="none" stroke-width="1"/><path id="eej1y1wlp6m922" d="M55.048000,188.786000C55.048000,188.786000,54.773700,188.992000,54.362400,189.198000C53.951100,189.403000,53.334100,189.677000,52.717100,189.883000C52.100200,190.089000,51.483200,190.226000,51.003300,190.294000C50.523400,190.363000,50.180700,190.363000,50.180700,190.363000C50.180700,190.363000,50.454900,190.157000,50.866200,189.951000C51.277500,189.746000,51.894500,189.472000,52.511500,189.266000C53.128500,189.060000,53.745400,188.923000,54.225300,188.855000C54.705200,188.786000,55.048000,188.786000,55.048000,188.786000Z" fill="rgb(195,147,104)" stroke="none" stroke-width="1"/><path id="eej1y1wlp6m923" d="M99.334000,183.372000C99.334000,183.372000,99.539600,183.715000,99.745300,184.195000C99.951000,184.674000,100.157000,185.360000,100.362000,186.045000C100.499000,186.731000,100.636000,187.416000,100.705000,187.964000C100.774000,188.513000,100.705000,188.855000,100.705000,188.855000C100.705000,188.855000,100.499000,188.513000,100.294000,188.033000C100.088000,187.553000,99.882400,186.868000,99.745300,186.182000C99.608200,185.497000,99.471100,184.811000,99.402500,184.263000C99.334000,183.715000,99.334000,183.372000,99.334000,183.372000Z" fill="rgb(195,147,104)" stroke="none" stroke-width="1"/><g id="eej1y1wlp6m924" style="mix-blend-mode:multiply"><path id="eej1y1wlp6m925" d="M67.799900,192.144000C72.872900,192.830000,78.083000,192.761000,83.155900,191.870000C93.233300,190.019000,102.762000,185.153000,109.549000,177.546000C103.036000,180.424000,97.620700,182,95.632700,182C95.564100,182,95.495600,182,95.427000,182C94.056000,181.932000,88.640200,181.932000,82.607500,181.932000C82.744600,181.041000,82.744600,180.218000,82.676100,179.670000L70.610600,179.670000C70.610600,179.670000,70.405000,180.561000,70.267800,181.932000C66.223200,181.932000,63.206800,182,62.726900,182C62.726900,182,59.779100,182.138000,55.597400,182.754000C53.883500,183.029000,51.895500,183.371000,49.838900,183.782000C54.157700,188.991000,61.355900,191.253000,67.799900,192.144000Z" fill="rgb(212,212,212)" stroke="none" stroke-width="1"/></g><path id="eej1y1wlp6m926" d="M32.631500,128.198000C32.631500,128.198000,25.570500,125.182000,14.876100,133.886000C4.181770,142.591000,0,160.479000,0,160.479000L3.084910,162.261000C3.084910,162.261000,8.774860,150.404000,13.984900,145.469000C13.984900,145.469000,6.649700,156.435000,5.141520,164.454000C5.141520,164.454000,11.585600,166.922000,14.190600,167.127000C14.190600,167.127000,16.864200,154.242000,18.852200,151.638000C18.852200,151.638000,15.973000,162.535000,16.247200,168.155000C16.247200,168.155000,21.868600,169.800000,26.324600,169.184000C26.324600,169.184000,25.159200,153.214000,32.014500,143.207000L32.631500,128.198000Z" fill="rgb(224,136,4)" stroke="none" stroke-width="1"/><path id="eej1y1wlp6m927" d="M27.422300,127.855000C26.462600,130.597000,25.845600,133.612000,25.571400,135.874000C24.954400,140.192000,24.748700,144.510000,25.365700,148.828000C25.777000,151.569000,26.325500,154.242000,27.148100,156.847000C27.902200,152.323000,29.341800,147.251000,32.152500,143.208000L32.700900,128.129000C32.632400,128.198000,30.712900,127.375000,27.422300,127.855000Z" opacity="0.3" fill="rgb(224,136,4)" stroke="none" stroke-width="1"/><path id="eej1y1wlp6m928" d="M127.304000,135.600000C124.013000,105.238000,90.970100,78.713300,54.431000,100.166000C54.431000,100.166000,32.219600,110.652000,28.449200,137.108000C24.678700,163.564000,38.800800,173.707000,45.861800,175.489000C45.861800,175.489000,34.344800,162.467000,37.841000,140.192000C37.841000,140.192000,46.273100,140.946000,58.544200,141.357000C59.366900,136.560000,61.423500,128.129000,66.496400,122.852000C66.496400,122.852000,61.697700,131.145000,61.423500,141.426000C66.016600,141.563000,71.089500,141.563000,76.436700,141.494000C76.573800,137.382000,77.259400,130.460000,80.207200,124.565000C80.207200,124.565000,78.699000,132.927000,78.699000,141.426000C86.445500,141.289000,94.603400,140.809000,102.487000,139.918000C102.556000,136.491000,102.487000,131.282000,101.459000,126.485000C101.459000,126.485000,103.790000,132.584000,105.161000,139.575000C109.205000,139.096000,113.113000,138.410000,116.815000,137.656000C116.815000,137.656000,118.734000,153.283000,111.947000,169.801000C112.153000,169.527000,112.222000,169.321000,112.222000,169.321000C112.222000,169.321000,130.320000,163.358000,127.304000,135.600000Z" fill="rgb(243,159,0)" stroke="none" stroke-width="1"/><path id="eej1y1wlp6m929" d="M116.952000,137.724000C113.181000,138.478000,109.274000,139.164000,105.298000,139.644000C103.927000,132.653000,101.596000,126.553000,101.596000,126.553000C102.624000,131.350000,102.693000,136.628000,102.624000,139.986000C94.740400,140.877000,86.582500,141.357000,78.836000,141.494000C78.836000,132.995000,80.344100,124.634000,80.344100,124.634000C77.327800,130.528000,76.710800,137.450000,76.573700,141.563000C71.295100,141.631000,66.222100,141.631000,61.560500,141.494000C61.834700,131.213000,66.633400,122.920000,66.633400,122.920000C61.560400,128.198000,59.435300,136.559000,58.681200,141.425000C46.478700,141.083000,37.978000,140.260000,37.978000,140.260000C37.429600,143.619000,37.292500,146.771000,37.361000,149.719000C37.498100,154.790000,38.320800,159.108000,39.486200,162.809000C42.022700,171.103000,46.067300,175.626000,46.067300,175.626000C46.067300,175.626000,58.338400,190.499000,81.783800,187.346000C102.761000,184.536000,110.782000,172.542000,112.222000,170.006000C113.318000,167.264000,114.210000,164.591000,114.895000,161.987000C115.923000,158.012000,116.540000,154.311000,116.883000,151.021000C117.569000,143.070000,116.952000,137.724000,116.952000,137.724000Z" fill="rgb(244,217,191)" stroke="none" stroke-width="1"/><path id="eej1y1wlp6m930" d="M45.929900,114.490000C45.175800,115.313000,44.421700,116.204000,43.736200,117.095000C43.050600,117.986000,42.365100,118.945000,41.679500,119.836000L40.719800,121.276000L39.828600,122.715000C39.280200,123.674000,38.663200,124.702000,38.183300,125.731000C37.909100,126.210000,37.634900,126.759000,37.429200,127.238000L36.743700,128.815000L36.126700,130.391000C35.921000,130.939000,35.715400,131.488000,35.578300,132.036000C35.372600,132.584000,35.235500,133.133000,35.029900,133.681000L34.618500,135.326000C34.481400,135.874000,34.344300,136.423000,34.207200,136.971000L33.864400,138.684000L33.795900,138.479000C34.070100,138.684000,34.412900,138.890000,34.755600,139.096000C35.098400,139.301000,35.441200,139.438000,35.783900,139.575000C36.126700,139.712000,36.469500,139.849000,36.880800,139.918000C37.223600,140.055000,37.634900,140.055000,37.977700,140.192000C37.566300,140.124000,37.223600,140.192000,36.812200,140.055000C36.400900,139.987000,36.058200,139.918000,35.715400,139.781000C35.372600,139.644000,34.961300,139.507000,34.618500,139.370000C34.275800,139.233000,33.933000,139.027000,33.590200,138.821000L33.453100,138.753000L33.453100,138.616000L33.727300,136.902000C33.795900,136.354000,33.864400,135.737000,34.001600,135.189000L34.344300,133.475000C34.481400,132.927000,34.687100,132.379000,34.824200,131.830000C34.961300,131.282000,35.167000,130.734000,35.372600,130.186000L35.989600,128.541000L36.675100,126.964000C36.880800,126.416000,37.155000,125.936000,37.429200,125.388000C37.703400,124.908000,37.977700,124.360000,38.251900,123.880000C38.526100,123.400000,38.868900,122.852000,39.143100,122.372000L40.102800,120.933000L41.131100,119.562000C41.816700,118.671000,42.570700,117.712000,43.393400,116.889000C44.216000,116.067000,45.038700,115.176000,45.929900,114.490000Z" fill="rgb(204,104,9)" stroke="none" stroke-width="1"/><path id="eej1y1wlp6m931" d="M113.182000,114.490000C113.524000,114.833000,113.867000,115.244000,114.141000,115.587000C114.416000,115.998000,114.690000,116.409000,114.964000,116.821000C115.512000,117.643000,115.924000,118.534000,116.404000,119.425000L117.021000,120.727000C117.226000,121.207000,117.432000,121.618000,117.638000,122.098000C117.843000,122.578000,117.980000,122.989000,118.186000,123.469000C118.392000,123.949000,118.529000,124.428000,118.666000,124.908000C118.803000,125.388000,119.009000,125.868000,119.077000,126.347000L119.489000,127.787000L119.831000,129.226000C119.968000,129.706000,120.037000,130.186000,120.106000,130.665000L120.311000,132.105000L120.448000,133.612000C120.517000,134.572000,120.517000,135.600000,120.517000,136.560000L120.517000,136.697000L120.380000,136.765000C119.283000,137.039000,118.118000,137.382000,117.021000,137.656000C118.118000,137.176000,119.146000,136.765000,120.243000,136.354000L120.106000,136.560000C120.037000,135.600000,119.968000,134.641000,119.831000,133.681000L119.626000,132.242000L119.351000,130.802000C119.283000,130.323000,119.146000,129.843000,119.077000,129.363000L118.734000,127.924000L118.323000,126.484000C118.186000,126.005000,118.049000,125.525000,117.912000,125.114000C117.775000,124.634000,117.638000,124.154000,117.432000,123.743000C117.295000,123.263000,117.158000,122.783000,116.952000,122.372000C116.609000,121.481000,116.267000,120.522000,115.855000,119.631000C115.444000,118.740000,115.033000,117.849000,114.621000,116.958000C114.416000,116.546000,114.210000,116.067000,113.936000,115.655000C113.662000,115.244000,113.524000,114.833000,113.182000,114.490000Z" fill="rgb(204,104,9)" stroke="none" stroke-width="1"/><path id="eej1y1wlp6m932" d="M86.582000,147.731000C86.582000,147.731000,88.364400,144.716000,90.421000,145.264000C92.477700,145.812000,93.231700,147.731000,93.506000,148.554000C93.848700,149.376000,91.038000,145.538000,86.582000,147.731000Z" transform="matrix(0.99613870785782 -0.08779336368631 0.08779336368631 0.99613870785782 -12.55213019612694 8.47385955603005)" fill="rgb(204,104,9)" stroke="none" stroke-width="1"/><path id="eej1y1wlp6m933" d="M55.390600,148.759000C55.390600,148.759000,57.173000,145.743000,59.229600,146.292000C61.286200,146.840000,62.040300,148.759000,62.314500,149.581000C62.657300,150.404000,59.846600,146.566000,55.390600,148.759000Z" fill="rgb(204,104,9)" stroke="none" stroke-width="1"/><path id="eej1y1wlp6m934" d="M62.109400,171.925000C62.109400,171.925000,74.928900,180.561000,90.764800,171.309000C90.764800,171.309000,87.817000,183.234000,76.368500,183.508000C64.851500,183.783000,62.109400,171.925000,62.109400,171.925000Z" fill="rgb(255,255,255)" stroke="none" stroke-width="1"/><path id="eej1y1wlp6m935" d="M74.791400,163.289000C74.791400,163.289000,74.654300,163.289000,74.448600,163.289000C74.242900,163.289000,73.900200,163.289000,73.557400,163.358000C73.420300,163.427000,73.214600,163.495000,73.077500,163.564000C72.940400,163.701000,72.871900,163.838000,72.734800,163.975000C72.734800,164.043000,72.666200,164.180000,72.666200,164.249000C72.666200,164.386000,72.597700,164.523000,72.666200,164.592000C72.666200,164.729000,72.734800,164.934000,72.871900,165.140000C73.009000,165.346000,73.146100,165.483000,73.283200,165.688000C73.420300,165.825000,73.626000,166.031000,73.831600,166.168000C74.037300,166.305000,74.174400,166.442000,74.380000,166.579000C74.585700,166.716000,74.722800,166.785000,74.928500,166.922000C75.271200,167.128000,75.545500,167.265000,75.751100,167.333000C75.956800,167.402000,76.093900,167.402000,76.093900,167.402000C76.093900,167.402000,75.956800,167.470000,75.751100,167.470000C75.476900,167.470000,75.134100,167.470000,74.722800,167.333000C74.311500,167.196000,73.831600,167.059000,73.420300,166.785000C73.214600,166.648000,72.940400,166.511000,72.734800,166.305000C72.529100,166.100000,72.323400,165.894000,72.186300,165.620000C72.049200,165.346000,71.912100,165.071000,71.912100,164.660000C71.912100,164.455000,71.980700,164.386000,71.980700,164.249000C72.049200,164.043000,72.117800,163.975000,72.186300,163.769000C72.323400,163.495000,72.597600,163.290000,72.803300,163.152000C73.077500,163.015000,73.283200,162.947000,73.557400,162.947000C74.037300,162.947000,74.311500,163.084000,74.585700,163.152000C74.722800,163.221000,74.791400,163.289000,74.791400,163.289000Z" fill="rgb(195,147,104)" stroke="none" stroke-width="1"/><path id="eej1y1wlp6m936" d="M33.178200,149.787000C28.448000,151.638000,30.367500,162.398000,39.348100,162.672000C38.182600,159.040000,37.360000,154.654000,37.222900,149.582000C36.263100,149.239000,34.960600,149.102000,33.178200,149.787000Z" fill="rgb(239,202,166)" stroke="none" stroke-width="1"/><path id="eej1y1wlp6m937" d="M121.202000,149.787000C119.351000,149.444000,117.843000,149.993000,116.746000,150.815000C116.403000,154.105000,115.786000,157.875000,114.758000,161.781000C116.060000,161.781000,117.569000,161.576000,119.282000,161.027000C124.904000,159.451000,125.726000,150.747000,121.202000,149.787000Z" fill="rgb(239,202,166)" stroke="none" stroke-width="1"/><path id="eej1y1wlp6m938" d="M32.630900,154.722000C32.630900,154.722000,33.110700,154.585000,33.864800,154.654000C34.207600,154.654000,34.687500,154.722000,35.098800,154.859000C35.510100,154.996000,35.990000,155.202000,36.401300,155.476000C36.812600,155.750000,37.223900,156.093000,37.498200,156.436000C37.635300,156.641000,37.772400,156.778000,37.909500,156.984000C38.046600,157.190000,38.115100,157.327000,38.183700,157.532000C38.320800,157.875000,38.389400,158.218000,38.389400,158.423000C38.389400,158.629000,38.389400,158.766000,38.389400,158.766000C38.389400,158.766000,38.320800,158.697000,38.183700,158.492000C38.115100,158.423000,38.046600,158.286000,37.978000,158.149000C37.909500,158.012000,37.772400,157.944000,37.703800,157.738000C37.635300,157.601000,37.498200,157.464000,37.361100,157.327000C37.223900,157.190000,37.086800,157.053000,36.949700,156.915000C36.812600,156.778000,36.607000,156.641000,36.469900,156.504000C36.332700,156.367000,36.127100,156.230000,35.921400,156.162000C35.715800,156.024000,35.578700,155.956000,35.373000,155.819000C35.167300,155.750000,34.961700,155.613000,34.824600,155.545000C34.413200,155.339000,34.070500,155.202000,33.727700,155.065000C33.042200,154.859000,32.630900,154.722000,32.630900,154.722000Z" fill="rgb(195,147,104)" stroke="none" stroke-width="1"/><path id="eej1y1wlp6m939" d="M121.064000,155.750000C121.064000,155.750000,120.653000,155.613000,120.036000,155.613000C119.899000,155.613000,119.693000,155.613000,119.556000,155.681000C119.419000,155.681000,119.213000,155.750000,119.076000,155.818000C118.733000,155.956000,118.391000,156.093000,118.048000,156.298000C117.911000,156.367000,117.705000,156.504000,117.568000,156.641000C117.431000,156.778000,117.225000,156.915000,117.157000,157.052000C117.019000,157.189000,116.882000,157.326000,116.745000,157.463000C116.608000,157.600000,116.471000,157.738000,116.403000,157.806000C116.197000,158.012000,115.991000,158.217000,115.854000,158.354000C115.717000,158.491000,115.648000,158.560000,115.648000,158.560000C115.648000,158.560000,115.648000,158.423000,115.717000,158.286000C115.717000,158.217000,115.786000,158.080000,115.854000,157.943000C115.923000,157.806000,115.923000,157.669000,116.060000,157.532000C116.197000,157.258000,116.403000,156.847000,116.677000,156.572000C116.814000,156.435000,116.951000,156.230000,117.157000,156.093000C117.294000,155.956000,117.499000,155.750000,117.705000,155.681000C117.911000,155.544000,118.116000,155.476000,118.322000,155.339000C118.528000,155.270000,118.802000,155.202000,119.008000,155.133000C119.213000,155.133000,119.487000,155.065000,119.693000,155.133000C119.899000,155.133000,120.104000,155.202000,120.242000,155.270000C120.790000,155.407000,121.064000,155.750000,121.064000,155.750000Z" fill="rgb(195,147,104)" stroke="none" stroke-width="1"/><path id="eej1y1wlp6m940" d="M63.823300,159.383000C63.960400,161.918000,63.137700,163.975000,61.972300,164.043000C60.875500,164.112000,59.847100,162.055000,59.778600,159.520000C59.641500,156.984000,60.464100,154.928000,61.629500,154.859000C62.726400,154.859000,63.754700,156.847000,63.823300,159.383000Z" fill="rgb(103,49,33)" stroke="none" stroke-width="1"/><path id="eej1y1wlp6m941" d="M61.491600,157.601000C61.491600,158.355000,61.148900,158.971000,60.806100,158.971000C60.463300,158.971000,60.189100,158.355000,60.257600,157.532000C60.257600,156.778000,60.600400,156.161000,60.943200,156.161000C61.286000,156.161000,61.491600,156.847000,61.491600,157.601000Z" fill="rgb(255,255,255)" stroke="none" stroke-width="1"/><path id="eej1y1wlp6m942" d="M92.272500,157.463000C92.409600,159.999000,91.586900,162.055000,90.421500,162.124000C89.324700,162.192000,88.296400,160.136000,88.227800,157.600000C88.090700,155.064000,88.913300,153.008000,90.078700,152.940000C91.175600,152.940000,92.135400,154.927000,92.272500,157.463000Z" fill="rgb(103,49,33)" stroke="none" stroke-width="1"/><path id="eej1y1wlp6m943" d="M89.872700,155.681000C89.872700,156.435000,89.529900,157.052000,89.187100,157.052000C88.844300,157.052000,88.638700,156.435000,88.638700,155.613000C88.638700,154.859000,88.981400,154.242000,89.324200,154.242000C89.667000,154.242000,89.872700,154.859000,89.872700,155.681000Z" fill="rgb(255,255,255)" stroke="none" stroke-width="1"/><path id="eej1y1wlp6m944" d="M58.955100,167.402000C58.955100,168.842000,56.075800,170.007000,52.579600,170.007000C49.083400,170.007000,46.204100,168.842000,46.204100,167.334000C46.204100,165.895000,49.083400,164.729000,52.579600,164.729000C56.144400,164.729000,58.955100,165.963000,58.955100,167.402000Z" fill="rgb(249,203,192)" stroke="none" stroke-width="1"/><path id="eej1y1wlp6m945" d="M107.011000,164.797000C107.011000,166.237000,104.131000,167.402000,100.635000,167.402000C97.139000,167.402000,94.259800,166.237000,94.259800,164.729000C94.259800,163.290000,97.139000,162.056000,100.635000,162.124000C104.131000,162.124000,107.011000,163.290000,107.011000,164.797000Z" fill="rgb(249,203,192)" stroke="none" stroke-width="1"/><path id="eej1y1wlp6m946" d="M56.008800,141.289000C56.831400,141.289000,57.654100,141.358000,58.545300,141.358000C59.367900,136.560000,61.424500,128.130000,66.497500,122.852000C60.464800,126.416000,57.242800,136.423000,56.008800,141.289000Z" fill="rgb(204,104,9)" stroke="none" stroke-width="1"/><path id="eej1y1wlp6m947" d="M76.436700,141.495000C76.573800,137.382000,77.259300,130.460000,80.207100,124.566000C75.476900,129.363000,74.037300,137.794000,73.626000,141.495000C74.585700,141.495000,75.476900,141.495000,76.436700,141.495000Z" fill="rgb(204,104,9)" stroke="none" stroke-width="1"/><path id="eej1y1wlp6m948" d="M96.730500,140.535000C98.650000,140.398000,100.638000,140.193000,102.558000,139.987000C102.626000,136.629000,102.558000,131.488000,101.598000,126.759000C99.541200,121.207000,97.004700,117.781000,97.004700,117.781000C99.609700,125.800000,97.758800,136.217000,96.730500,140.535000Z" fill="rgb(204,104,9)" stroke="none" stroke-width="1"/><path id="eej1y1wlp6m949" d="M50.181600,197.559000L50.181600,199.067000L102.625000,199.067000L102.282000,197.353000C84.938300,197.285000,67.525700,197.353000,50.181600,197.559000Z" fill="rgb(212,212,212)" stroke="none" stroke-width="1"/><path id="eej1y1wlp6m950" d="M204.324000,24.920500C204.382000,32.781000,202.751000,40.874400,198.791000,47.745100C197.335000,50.365200,195.646000,53.975300,192.909000,55.547300C190.463000,56.944800,187.667000,56.886500,184.930000,56.944800C176.078000,57.119400,167.284000,56.246100,158.431000,55.605600C157.325000,58.167500,155.578000,60.380100,153.365000,62.767400C149.172000,67.192500,144.279000,70.686100,138.805000,73.480900C137.815000,73.946700,136.883000,74.470700,135.893000,74.936600C130.710000,77.032700,125.527000,79.187000,120.227000,80.933800C116.791000,82.040100,113.413000,82.738800,109.860000,83.262900C109.569000,83.321100,109.336000,83.379300,109.045000,83.437500C109.394000,83.262900,109.802000,83.088200,110.152000,82.855300C112.132000,81.981900,114.228000,80.992100,116.034000,79.827500C118.713000,78.546600,121.333000,77.090900,123.838000,75.402400C127.740000,72.724000,131.700000,69.463300,133.971000,65.212800C135.194000,62.942000,136.359000,60.380100,136.417000,57.701700C136.417000,57.003000,136.359000,56.362500,136.184000,55.722000C127.856000,59.623200,119.528000,63.349600,110.501000,65.562200C106.075000,66.668500,101.125000,66.377400,96.465400,65.212800C88.253700,63.174900,75.674100,34.411400,75.150000,29.636800C74.684100,25.211700,75.965300,21.310500,79.809100,18.806800C84.177000,15.953800,89.069100,13.799400,93.844700,11.819700C110.559000,4.890850,128.439000,1.688430,146.434000,0.465687C163.091000,-0.582379,181.145000,-0.465927,196.345000,7.394560C199.140000,8.791980,202.344000,10.480500,203.275000,13.741200C204.324000,17.293000,204.324000,21.194100,204.324000,24.920500ZM102.115000,60.613000C100.426000,60.147200,98.911400,59.856100,97.397200,58.866200C96.116000,57.992800,94.776500,55.780300,93.961100,54.499300C91.864500,51.005700,89.826200,47.454000,87.904300,43.785700C86.215400,40.641500,84.759400,37.380900,83.245200,34.178500C80.857400,29.112800,79.110200,24.454700,83.128700,19.680200C83.245200,19.505500,83.070500,19.272600,82.895800,19.447300C80.275000,21.892800,78.993700,24.163600,79.226700,27.773600C79.576100,32.431700,82.546300,37.322700,84.468200,41.398500C86.797700,46.347700,89.476700,51.064000,92.388700,55.722000C94.718200,59.506700,97.397200,61.137000,101.765000,61.486400C102.231000,61.544600,102.580000,60.787700,102.115000,60.613000ZM134.379000,51.296900C125.352000,54.557500,116.733000,58.284000,107.356000,60.671200C109.161000,60.554800,110.909000,60.438300,112.656000,60.147200C120.285000,58.342200,127.507000,55.314400,134.379000,51.296900ZM138.106000,51.646200C138.048000,51.529800,137.815000,51.646200,137.873000,51.820900C139.620000,57.177700,137.524000,63.000300,135.019000,67.774800C132.166000,73.131600,126.517000,76.217500,121.275000,78.663000C121.100000,78.779500,121.159000,79.070600,121.392000,79.012400C131.642000,75.518800,144.163000,63.524300,138.106000,51.646200Z" transform="matrix(1 0 0 1 -4.69208526611328 74.28124991059303)" opacity="0" fill="rgb(71,173,93)" stroke="none" stroke-width="1"/><g id="eej1y1wlp6m951" opacity="0"><path id="eej1y1wlp6m952" d="M120.284000,39.710400L120.284000,31.500600L113.994000,19.680700L119.177000,19.680700L121.216000,24.513500C121.856000,25.969100,122.264000,27.017200,122.788000,28.356400L122.846000,28.356400C123.312000,27.133600,123.778000,25.969100,124.361000,24.513500L126.399000,19.680700L131.466000,19.680700L124.885000,31.325900L124.885000,39.652200L120.284000,39.652200L120.284000,39.710400Z" fill="rgb(255,255,255)" stroke="none" stroke-width="1"/><path id="eej1y1wlp6m953" d="M149.054000,35.051700C150.277000,35.692200,152.141000,36.274400,154.063000,36.274400C156.159000,36.274400,157.266000,35.401000,157.266000,34.120100C157.266000,32.897300,156.334000,32.140400,153.888000,31.325200C150.568000,30.160700,148.414000,28.297500,148.414000,25.444400C148.414000,22.009100,151.267000,19.388900,155.985000,19.388900C158.256000,19.388900,159.887000,19.854700,161.110000,20.378800L160.120000,24.047000C159.304000,23.639400,157.907000,23.115400,155.926000,23.115400C153.946000,23.115400,153.014000,23.988800,153.014000,25.036800C153.014000,26.317800,154.121000,26.900100,156.742000,27.831700C160.294000,29.112700,161.925000,30.975900,161.925000,33.828900C161.925000,37.206000,159.363000,40.059100,153.830000,40.059100C151.559000,40.059100,149.287000,39.476900,148.181000,38.836400L149.054000,35.051700Z" fill="rgb(255,255,255)" stroke="none" stroke-width="1"/><path id="eej1y1wlp6m954" d="M164.312000,37.322600C164.312000,35.750500,165.419000,34.644200,166.991000,34.644200C168.564000,34.644200,169.612000,35.750500,169.612000,37.322600C169.612000,38.894700,168.564000,40.001000,166.991000,40.001000C165.361000,40.059200,164.312000,38.894700,164.312000,37.322600ZM165.244000,33.130400L164.545000,19.680200L169.263000,19.680200L168.622000,33.130400L165.244000,33.130400Z" fill="rgb(255,255,255)" stroke="none" stroke-width="1"/><path id="eej1y1wlp6m955" d="M144.977000,31.267100L137.639000,31.267100L137.639000,36.041700L145.851000,36.041700L145.851000,39.768100L133.038000,39.768100L133.038000,19.680200L145.385000,19.680200L145.385000,23.406600L137.581000,23.406600L137.581000,27.540700L144.919000,27.540700L144.919000,31.267100L144.977000,31.267100Z" fill="rgb(255,255,255)" stroke="none" stroke-width="1"/></g><script><![CDATA[!function(t,n){"object"==typeof exports&&"undefined"!=typeof module?module.exports=n():"function"==typeof define&&define.amd?define(n):(t=t||self).__SVGATOR_PLAYER__=n()}(this,(function(){"use strict";function t(n){return(t="function"==typeof Symbol&&"symbol"==typeof Symbol.iterator?function(t){return typeof t}:function(t){return t&&"function"==typeof Symbol&&t.constructor===Symbol&&t!==Symbol.prototype?"symbol":typeof t})(n)}function n(t,n){if(!(t instanceof n))throw new TypeError("Cannot call a class as a function")}function r(t,n){for(var r=0;r<n.length;r++){var e=n[r];e.enumerable=e.enumerable||!1,e.configurable=!0,"value"in e&&(e.writable=!0),Object.defineProperty(t,e.key,e)}}function e(t,n,e){return n&&r(t.prototype,n),e&&r(t,e),t}function i(t){return(i=Object.setPrototypeOf?Object.getPrototypeOf:function(t){return t.__proto__||Object.getPrototypeOf(t)})(t)}function o(t,n){return(o=Object.setPrototypeOf||function(t,n){return t.__proto__=n,t})(t,n)}function u(t,n){return!n||"object"!=typeof n&&"function"!=typeof n?function(t){if(void 0===t)throw new ReferenceError("this hasn't been initialised - super() hasn't been called");return t}(t):n}function a(t){var n=function(){if("undefined"==typeof Reflect||!Reflect.construct)return!1;if(Reflect.construct.sham)return!1;if("function"==typeof Proxy)return!0;try{return Date.prototype.toString.call(Reflect.construct(Date,[],(function(){}))),!0}catch(t){return!1}}();return function(){var r,e=i(t);if(n){var o=i(this).constructor;r=Reflect.construct(e,arguments,o)}else r=e.apply(this,arguments);return u(this,r)}}function l(t,n,r){return(l="undefined"!=typeof Reflect&&Reflect.get?Reflect.get:function(t,n,r){var e=function(t,n){for(;!Object.prototype.hasOwnProperty.call(t,n)&&null!==(t=i(t)););return t}(t,n);if(e){var o=Object.getOwnPropertyDescriptor(e,n);return o.get?o.get.call(r):o.value}})(t,n,r||t)}var f=Math.abs;function s(t){return t}function c(t,n,r){var e=1-r;return 3*r*e*(t*e+n*r)+r*r*r}function h(){var t=arguments.length>0&&void 0!==arguments[0]?arguments[0]:0,n=arguments.length>1&&void 0!==arguments[1]?arguments[1]:0,r=arguments.length>2&&void 0!==arguments[2]?arguments[2]:1,e=arguments.length>3&&void 0!==arguments[3]?arguments[3]:1;return t<0||t>1||r<0||r>1?null:f(t-n)<=1e-5&&f(r-e)<=1e-5?s:function(i){if(i<=0)return t>0?i*n/t:0===n&&r>0?i*e/r:0;if(i>=1)return r<1?1+(i-1)*(e-1)/(r-1):1===r&&t<1?1+(i-1)*(n-1)/(t-1):1;for(var o,u=0,a=1;u<a;){var l=c(t,r,o=(u+a)/2);if(f(i-l)<1e-5)break;l<i?u=o:a=o}return c(n,e,o)}}function v(){return 1}function y(t){return 1===t?1:0}function d(){var t=arguments.length>0&&void 0!==arguments[0]?arguments[0]:1,n=arguments.length>1&&void 0!==arguments[1]?arguments[1]:0;if(1===t){if(0===n)return y;if(1===n)return v}var r=1/t;return function(t){return t>=1?1:(t+=n*r)-t%r}}function g(t){var n=arguments.length>1&&void 0!==arguments[1]?arguments[1]:2;if(Number.isInteger(t))return t;var r=Math.pow(10,n);return Math.round(t*r)/r}var p=Math.PI/180;function m(t,n,r){return t>=.5?r:n}function w(t,n,r){return 0===t||n===r?n:t*(r-n)+n}function b(t,n,r){var e=w(t,n,r);return e<=0?0:e}function k(t,n,r){return 0===t?n:1===t?r:{x:w(t,n.x,r.x),y:w(t,n.y,r.y)}}function x(t,n,r){var e=function(t,n,r){return Math.round(w(t,n,r))}(t,n,r);return e<=0?0:e>=255?255:e}function A(t,n,r){return 0===t?n:1===t?r:{r:x(t,n.r,r.r),g:x(t,n.g,r.g),b:x(t,n.b,r.b),a:w(t,null==n.a?1:n.a,null==r.a?1:r.a)}}function _(t,n,r){if(0===t)return n;if(1===t)return r;var e=n.length;if(e!==r.length)return m(t,n,r);for(var i=[],o=0;o<e;o++)i.push(A(t,n[o],r[o]));return i}function S(t,n){for(var r=[],e=0;e<t;e++)r.push(n);return r}function O(t,n){if(--n<=0)return t;var r=(t=Object.assign([],t)).length;do{for(var e=0;e<r;e++)t.push(t[e])}while(--n>0);return t}var M,j=function(){function t(r){n(this,t),this.list=r,this.length=r.length}return e(t,[{key:"setAttribute",value:function(t,n){for(var r=this.list,e=0;e<this.length;e++)r[e].setAttribute(t,n)}},{key:"removeAttribute",value:function(t){for(var n=this.list,r=0;r<this.length;r++)n[r].removeAttribute(t)}},{key:"style",value:function(t,n){for(var r=this.list,e=0;e<this.length;e++)r[e].style[t]=n}}]),t}(),F=/-./g,P=function(t,n){return n.toUpperCase()};function I(t){return"function"==typeof t?t:m}function q(t){return t?"function"==typeof t?t:Array.isArray(t)?function(t){var n=arguments.length>1&&void 0!==arguments[1]?arguments[1]:s;if(!Array.isArray(t))return n;switch(t.length){case 1:return d(t[0])||n;case 2:return d(t[0],t[1])||n;case 4:return h(t[0],t[1],t[2],t[3])||n}return n}(t,null):function(t,n){var r=arguments.length>2&&void 0!==arguments[2]?arguments[2]:s;switch(t){case"linear":return s;case"steps":return d(n.steps||1,n.jump||0)||r;case"bezier":case"cubic-bezier":return h(n.x1||0,n.y1||0,n.x2||0,n.y2||0)||r}return r}(t.type,t.value,null):null}function B(t,n,r){var e=arguments.length>3&&void 0!==arguments[3]&&arguments[3],i=n.length-1;if(t<=n[0].t)return e?[0,0,n[0].v]:n[0].v;if(t>=n[i].t)return e?[i,1,n[i].v]:n[i].v;var o,u=n[0],a=null;for(o=1;o<=i;o++){if(!(t>n[o].t)){a=n[o];break}u=n[o]}return null==a?e?[i,1,n[i].v]:n[i].v:u.t===a.t?e?[o,1,a.v]:a.v:(t=(t-u.t)/(a.t-u.t),u.e&&(t=u.e(t)),e?[o,t,r(t,u.v,a.v)]:r(t,u.v,a.v))}function R(t,n){var r=arguments.length>2&&void 0!==arguments[2]?arguments[2]:null;return t&&t.length?"function"!=typeof n?null:("function"!=typeof r&&(r=null),function(e){var i=B(e,t,n);return null!=i&&r&&(i=r(i)),i}):null}function E(t,n){return t.t-n.t}function T(n,r,e,i,o){var u,a="@"===e[0],l="#"===e[0],f=M[e],s=m;switch(a?(u=e.substr(1),e=u.replace(F,P)):l&&(e=e.substr(1)),t(f)){case"function":if(s=f(i,o,B,q,e,a,r,n),l)return s;break;case"string":s=R(i,I(f));break;case"object":if((s=R(i,I(f.i),f.f))&&"function"==typeof f.u)return f.u(r,s,e,a,n)}return s?function(t,n,r){var e=arguments.length>3&&void 0!==arguments[3]&&arguments[3];if(e)return t instanceof j?function(e){return t.style(n,r(e))}:function(e){return t.style[n]=r(e)};if(Array.isArray(n)){var i=n.length;return function(e){var o=r(e);if(null==o)for(var u=0;u<i;u++)t[u].removeAttribute(n);else for(var a=0;a<i;a++)t[a].setAttribute(n,o)}}return function(e){var i=r(e);null==i?t.removeAttribute(n):t.setAttribute(n,i)}}(r,e,s,a):null}function z(n,r,e,i){if(!i||"object"!==t(i))return null;var o=null,u=null;return Array.isArray(i)?u=function(t){if(!t||!t.length)return null;for(var n=0;n<t.length;n++)t[n].e&&(t[n].e=q(t[n].e));return t.sort(E)}(i):(u=i.keys,o=i.data||null),u?T(n,r,e,u,o):null}function C(t,n,r){if(!r)return null;var e=[];for(var i in r)if(r.hasOwnProperty(i)){var o=z(t,n,i,r[i]);o&&e.push(o)}return e.length?e:null}function D(t,n){if(!n.duration||n.duration<0)return null;var r=function(t,n){if(!n)return null;var r=[];if(Array.isArray(n))for(var e=n.length,i=0;i<e;i++){var o=n[i];if(2===o.length){var u=null;if("string"==typeof o[0])u=t.getElementById(o[0]);else if(Array.isArray(o[0])){u=[];for(var a=0;a<o[0].length;a++)if("string"==typeof o[0][a]){var l=t.getElementById(o[0][a]);l&&u.push(l)}u=u.length?1===u.length?u[0]:new j(u):null}if(u){var f=C(t,u,o[1]);f&&(r=r.concat(f))}}}else for(var s in n)if(n.hasOwnProperty(s)){var c=t.getElementById(s);if(c){var h=C(t,c,n[s]);h&&(r=r.concat(h))}}return r.length?r:null}(t,n.elements);return r?function(t,n){var r=arguments.length>2&&void 0!==arguments[2]?arguments[2]:1/0,e=arguments.length>3&&void 0!==arguments[3]?arguments[3]:1,i=arguments.length>4&&void 0!==arguments[4]&&arguments[4],o=arguments.length>5&&void 0!==arguments[5]?arguments[5]:1,u=t.length,a=e>0?n:0;i&&r%2==0&&(a=n-a);var l=null;return function(f,s){var c=f%n,h=1+(f-c)/n;s*=e,i&&h%2==0&&(s=-s);var v=!1;if(h>r)c=a,v=!0,-1===o&&(c=e>0?0:n);else if(s<0&&(c=n-c),c===l)return!1;l=c;for(var y=0;y<u;y++)t[y](c);return v}}(r,n.duration,n.iterations||1/0,n.direction||1,!!n.alternate,n.fill||1):null}function N(t,n){if(M=n,!t||!t.root||!Array.isArray(t.animations))return null;var r=window.document.getElementById(t.root);if(!r)return null;var e=t.animations.map((function(t){return D(r,t)})).filter((function(t){return!!t}));return e.length?{element:r,animations:e,animationSettings:t.animationSettings,options:t.options||void 0}:null}var L=function(){function t(r,e){var i=arguments.length>2&&void 0!==arguments[2]?arguments[2]:{};n(this,t),this._id=0,this._running=!1,this._rollingBack=!1,this._animations=r,this.duration=e.duration,this.alternate=e.alternate,this.fill=e.fill,this.iterations=e.iterations,this.direction=i.direction||1,this.speed=i.speed||1,this.fps=i.fps||100,this.offset=i.offset||0,this.rollbackStartOffset=0}return e(t,[{key:"_rollback",value:function(){var t=this,n=1/0,r=null;this.rollbackStartOffset=this.offset,this._rollingBack||(this._rollingBack=!0,this._running=!0);this._id=window.requestAnimationFrame((function e(i){if(t._rollingBack){null==r&&(r=i);var o=i-r,u=t.rollbackStartOffset-o,a=Math.round(u*t.speed);if(a>t.duration&&n!=1/0){var l=!!t.alternate&&a/t.duration%2>1,f=a%t.duration;a=(f+=l?t.duration:0)||t.duration}var s=t.fps?1e3/t.fps:0,c=Math.max(0,a);if(c<n-s){t.offset=c,n=c;for(var h=t._animations,v=h.length,y=0;y<v;y++)h[y](c,t.direction)}var d=!1;if(t.iterations>0&&-1===t.fill){var g=t.iterations*t.duration,p=g==a;a=p?0:a,t.offset=p?0:t.offset,d=a>g}a>0&&t.offset>=a&&!d?t._id=window.requestAnimationFrame(e):t.stop()}}))}},{key:"_start",value:function(){var t=this,n=arguments.length>0&&void 0!==arguments[0]?arguments[0]:0,r=-1/0,e=null,i={},o=function o(u){t._running=!0,null==e&&(e=u);var a=Math.round((u-e+n)*t.speed),l=t.fps?1e3/t.fps:0;if(a>r+l&&!t._rollingBack){t.offset=a,r=a;for(var f=t._animations,s=f.length,c=0,h=0;h<s;h++)i[h]?c++:(i[h]=f[h](a,t.direction),i[h]&&c++);if(c===s)return void t._stop()}t._id=window.requestAnimationFrame(o)};this._id=window.requestAnimationFrame(o)}},{key:"_stop",value:function(){this._id&&window.cancelAnimationFrame(this._id),this._running=!1,this._rollingBack=!1}},{key:"play",value:function(){!this._rollingBack&&this._running||(this._rollingBack=!1,this.rollbackStartOffset>this.duration&&(this.offset=this.rollbackStartOffset-(this.rollbackStartOffset-this.offset)%this.duration,this.rollbackStartOffset=0),this._start(this.offset))}},{key:"stop",value:function(){this._stop(),this.offset=0,this.rollbackStartOffset=0;var t=this.direction,n=this._animations;window.requestAnimationFrame((function(){for(var r=0;r<n.length;r++)n[r](0,t)}))}},{key:"reachedToEnd",value:function(){return this.iterations>0&&this.offset>=this.iterations*this.duration}},{key:"restart",value:function(){this._stop(),this.offset=0,this._start()}},{key:"pause",value:function(){this._stop()}},{key:"reverse",value:function(){this.direction=-this.direction}}],[{key:"build",value:function(n,r){return(n=N(n,r))?{el:n.element,options:n.options||{},player:new t(n.animations,n.animationSettings,n.options)}:null}}]),t}();!function(){for(var t=0,n=["ms","moz","webkit","o"],r=0;r<n.length&&!window.requestAnimationFrame;++r)window.requestAnimationFrame=window[n[r]+"RequestAnimationFrame"],window.cancelAnimationFrame=window[n[r]+"CancelAnimationFrame"]||window[n[r]+"CancelRequestAnimationFrame"];window.requestAnimationFrame||(window.requestAnimationFrame=function(n){var r=Date.now(),e=Math.max(0,16-(r-t)),i=window.setTimeout((function(){n(r+e)}),e);return t=r+e,i},window.cancelAnimationFrame=window.clearTimeout)}();var V=/\.0+$/g;function $(t){return Number.isInteger(t)?t+"":t.toFixed(6).replace(V,"")}function G(t){var n=arguments.length>1&&void 0!==arguments[1]?arguments[1]:" ";return t&&t.length?t.map($).join(n):""}function H(t){return t?null==t.a||t.a>=1?"rgb("+t.r+","+t.g+","+t.b+")":"rgba("+t.r+","+t.g+","+t.b+","+t.a+")":"transparent"}var Q={f:null,i:function(t,n,r){return 0===t?n:1===t?r:{x:b(t,n.x,r.x),y:b(t,n.y,r.y)}},u:function(t,n){return function(r){var e=n(r);t.setAttribute("rx",$(e.x)),t.setAttribute("ry",$(e.y))}}},U={f:null,i:function(t,n,r){return 0===t?n:1===t?r:{width:b(t,n.width,r.width),height:b(t,n.height,r.height)}},u:function(t,n){return function(r){var e=n(r);t.setAttribute("width",$(e.width)),t.setAttribute("height",$(e.height))}}},Y=Math.sin,Z=Math.cos,J=Math.acos,K=Math.asin,W=Math.tan,X=Math.atan2,tt=Math.PI/180,nt=180/Math.PI,rt=Math.sqrt,et=function(){function t(){var r=arguments.length>0&&void 0!==arguments[0]?arguments[0]:1,e=arguments.length>1&&void 0!==arguments[1]?arguments[1]:0,i=arguments.length>2&&void 0!==arguments[2]?arguments[2]:0,o=arguments.length>3&&void 0!==arguments[3]?arguments[3]:1,u=arguments.length>4&&void 0!==arguments[4]?arguments[4]:0,a=arguments.length>5&&void 0!==arguments[5]?arguments[5]:0;n(this,t),this.m=[r,e,i,o,u,a],this.i=null,this.w=null,this.s=null}return e(t,[{key:"point",value:function(t,n){var r=this.m;return{x:r[0]*t+r[2]*n+r[4],y:r[1]*t+r[3]*n+r[5]}}},{key:"translateSelf",value:function(){var t=arguments.length>0&&void 0!==arguments[0]?arguments[0]:0,n=arguments.length>1&&void 0!==arguments[1]?arguments[1]:0;if(!t&&!n)return this;var r=this.m;return r[4]+=r[0]*t+r[2]*n,r[5]+=r[1]*t+r[3]*n,this.w=this.s=this.i=null,this}},{key:"rotateSelf",value:function(){var t=arguments.length>0&&void 0!==arguments[0]?arguments[0]:0;if(t%=360){var n=Y(t*=tt),r=Z(t),e=this.m,i=e[0],o=e[1];e[0]=i*r+e[2]*n,e[1]=o*r+e[3]*n,e[2]=e[2]*r-i*n,e[3]=e[3]*r-o*n,this.w=this.s=this.i=null}return this}},{key:"scaleSelf",value:function(){var t=arguments.length>0&&void 0!==arguments[0]?arguments[0]:1,n=arguments.length>1&&void 0!==arguments[1]?arguments[1]:1;if(1!==t||1!==n){var r=this.m;r[0]*=t,r[1]*=t,r[2]*=n,r[3]*=n,this.w=this.s=this.i=null}return this}},{key:"skewSelf",value:function(t,n){if(n%=360,(t%=360)||n){var r=this.m,e=r[0],i=r[1],o=r[2],u=r[3];t&&(t=W(t*tt),r[2]+=e*t,r[3]+=i*t),n&&(n=W(n*tt),r[0]+=o*n,r[1]+=u*n),this.w=this.s=this.i=null}return this}},{key:"resetSelf",value:function(){var t=arguments.length>0&&void 0!==arguments[0]?arguments[0]:1,n=arguments.length>1&&void 0!==arguments[1]?arguments[1]:0,r=arguments.length>2&&void 0!==arguments[2]?arguments[2]:0,e=arguments.length>3&&void 0!==arguments[3]?arguments[3]:1,i=arguments.length>4&&void 0!==arguments[4]?arguments[4]:0,o=arguments.length>5&&void 0!==arguments[5]?arguments[5]:0,u=this.m;return u[0]=t,u[1]=n,u[2]=r,u[3]=e,u[4]=i,u[5]=o,this.w=this.s=this.i=null,this}},{key:"recomposeSelf",value:function(){var t=arguments.length>0&&void 0!==arguments[0]?arguments[0]:null,n=arguments.length>1&&void 0!==arguments[1]?arguments[1]:null,r=arguments.length>2&&void 0!==arguments[2]?arguments[2]:null,e=arguments.length>3&&void 0!==arguments[3]?arguments[3]:null,i=arguments.length>4&&void 0!==arguments[4]?arguments[4]:null;return this.isIdentity||this.resetSelf(),t&&(t.x||t.y)&&this.translateSelf(t.x,t.y),n&&this.rotateSelf(n),r&&(r.x&&this.skewSelf(r.x,0),r.y&&this.skewSelf(0,r.y)),!e||1===e.x&&1===e.y||this.scaleSelf(e.x,e.y),i&&(i.x||i.y)&&this.translateSelf(i.x,i.y),this}},{key:"decompose",value:function(){var t=arguments.length>0&&void 0!==arguments[0]?arguments[0]:0,n=arguments.length>1&&void 0!==arguments[1]?arguments[1]:0,r=this.m,e=r[0]*r[0]+r[1]*r[1],i=[[r[0],r[1]],[r[2],r[3]]],o=rt(e);if(0===o)return{origin:{x:r[4],y:r[5]},translate:{x:t,y:n},scale:{x:0,y:0},skew:{x:0,y:0},rotate:0};i[0][0]/=o,i[0][1]/=o;var u=r[0]*r[3]-r[1]*r[2]<0;u&&(o=-o);var a=i[0][0]*i[1][0]+i[0][1]*i[1][1];i[1][0]-=i[0][0]*a,i[1][1]-=i[0][1]*a;var l=rt(i[1][0]*i[1][0]+i[1][1]*i[1][1]);if(0===l)return{origin:{x:r[4],y:r[5]},translate:{x:t,y:n},scale:{x:o,y:0},skew:{x:0,y:0},rotate:0};i[1][0]/=l,i[1][1]/=l,a/=l;var f=0;return i[1][1]<0?(f=J(i[1][1])*nt,i[0][1]<0&&(f=360-f)):f=K(i[0][1])*nt,u&&(f=-f),a=X(a,rt(i[0][0]*i[0][0]+i[0][1]*i[0][1]))*nt,{origin:{x:r[4],y:r[5]},translate:{x:t,y:n},scale:{x:o,y:l},skew:{x:a,y:0},rotate:f}}},{key:"toString",value:function(){return null===this.s&&(this.s="matrix("+this.m.map(ot).join(" ")+")"),this.s}},{key:"determinant",get:function(){var t=this.m;return t[0]*t[3]-t[1]*t[2]}},{key:"isIdentity",get:function(){if(null===this.i){var t=this.m;this.i=1===t[0]&&0===t[1]&&0===t[2]&&1===t[3]&&0===t[4]&&0===t[5]}return this.i}}]),t}(),it=/\.0+$/;function ot(t){return Number.isInteger(t)?t:t.toFixed(14).replace(it,"")}Object.freeze({M:2,L:2,Z:0,H:1,V:1,C:6,Q:4,T:2,S:4,A:7});function ut(t,n,r){return t+(n-t)*r}function at(t,n,r){var e=arguments.length>3&&void 0!==arguments[3]&&arguments[3],i={x:ut(t.x,n.x,r),y:ut(t.y,n.y,r)};return e&&(i.a=lt(t,n)),i}function lt(t,n){return Math.atan2(n.y-t.y,n.x-t.x)}function ft(t,n,r,e){var i=1-e;return i*i*t+2*i*e*n+e*e*r}function st(t,n,r,e){return 2*(1-e)*(n-t)+2*e*(r-n)}function ct(t,n,r,e){var i=arguments.length>4&&void 0!==arguments[4]&&arguments[4],o={x:ft(t.x,n.x,r.x,e),y:ft(t.y,n.y,r.y,e)};return i&&(o.a=ht(t,n,r,e)),o}function ht(t,n,r,e){return Math.atan2(st(t.y,n.y,r.y,e),st(t.x,n.x,r.x,e))}function vt(t,n,r,e,i){var o=i*i;return i*o*(e-t+3*(n-r))+3*o*(t+r-2*n)+3*i*(n-t)+t}function yt(t,n,r,e,i){var o=1-i;return 3*(o*o*(n-t)+2*o*i*(r-n)+i*i*(e-r))}function dt(t,n,r,e,i){var o=arguments.length>5&&void 0!==arguments[5]&&arguments[5],u={x:vt(t.x,n.x,r.x,e.x,i),y:vt(t.y,n.y,r.y,e.y,i)};return o&&(u.a=gt(t,n,r,e,i)),u}function gt(t,n,r,e,i){return Math.atan2(yt(t.y,n.y,r.y,e.y,i),yt(t.x,n.x,r.x,e.x,i))}function pt(t,n,r){var e=arguments.length>3&&void 0!==arguments[3]&&arguments[3];if(wt(n)){if(bt(r))return ct(n,r.start,r,t,e)}else if(wt(r)){if(n.end)return ct(n,n.end,r,t,e)}else{if(n.end)return r.start?dt(n,n.end,r.start,r,t,e):ct(n,n.end,r,t,e);if(r.start)return ct(n,r.start,r,t,e)}return at(n,r,t,e)}function mt(t,n,r){var e=pt(t,n,r,!0);return e.a=function(t){var n=arguments.length>1&&void 0!==arguments[1]&&arguments[1];return n?t+Math.PI:t}(e.a)/p,e}function wt(t){return!t.type||"corner"===t.type}function bt(t){return null!=t.start&&!wt(t)}var kt=new et;var xt={f:$,i:w},At={f:$,i:function(t,n,r){var e=w(t,n,r);return e<=0?0:e>=1?1:e}};function _t(t,n,r,e,i,o,u,a){return n=function(t,n,r){for(var e,i,o,u=t.length-1,a={},l=0;l<=u;l++)(e=t[l]).e&&(e.e=n(e.e)),e.v&&"g"===(i=e.v).t&&i.r&&(o=r.getElementById(i.r))&&(a[i.r]=o.querySelectorAll("stop"));return a}(t,e,a),function(e){var i,o=r(e,t,St);return o?"c"===o.t?H(o.v):"g"===o.t?(n[o.r]&&function(t,n){for(var r=0,e=t.length;r<e;r++)t[r].setAttribute("stop-color",H(n[r]))}(n[o.r],o.v),(i=o.r)?"url(#"+i+")":"none"):"none":"none"}}function St(t,n,r){if(0===t)return n;if(1===t)return r;if(n&&r){var e=n.t;if(e===r.t)switch(n.t){case"c":return{t:e,v:A(t,n.v,r.v)};case"g":if(n.r===r.r)return{t:e,v:_(t,n.v,r.v),r:n.r}}}return m(t,n,r)}var Ot={fill:_t,"fill-opacity":At,stroke:_t,"stroke-opacity":At,"stroke-width":xt,"stroke-dashoffset":{f:$,i:w},"stroke-dasharray":{f:function(t){var n=arguments.length>1&&void 0!==arguments[1]?arguments[1]:" ";return t&&t.length>0&&(t=t.map((function(t){return Math.floor(1e4*t)/1e4}))),G(t,n)},i:function(t,n,r){var e,i,o,u=n.length,a=r.length;if(u!==a)if(0===u)n=S(u=a,0);else if(0===a)a=u,r=S(u,0);else{var l=(o=(e=u)*(i=a)/function(t,n){for(var r;n;)r=n,n=t%n,t=r;return t||1}(e,i))<0?-o:o;n=O(n,Math.floor(l/u)),r=O(r,Math.floor(l/a)),u=a=l}for(var f=[],s=0;s<u;s++)f.push(g(b(t,n[s],r[s]),6));return f}},opacity:At,transform:function(n,r,e,i){if(!(n=function(n,r){if(!n||"object"!==t(n))return null;var e=!1;for(var i in n)n.hasOwnProperty(i)&&(n[i]&&n[i].length?(n[i].forEach((function(t){t.e&&(t.e=r(t.e))})),e=!0):delete n[i]);return e?n:null}(n,i)))return null;var o=function(t,i,o){var u=arguments.length>3&&void 0!==arguments[3]?arguments[3]:null;return n[t]?e(i,n[t],o):r&&r[t]?r[t]:u};return r&&r.a&&n.o?function(t){var r=e(t,n.o,mt);return kt.recomposeSelf(r,o("r",t,w,0)+r.a,o("k",t,k),o("s",t,k),o("t",t,k)).toString()}:function(t){return kt.recomposeSelf(o("o",t,pt,null),o("r",t,w,0),o("k",t,k),o("s",t,k),o("t",t,k)).toString()}},r:xt,"#size":U,"#radius":Q,_:function(t,n){if(Array.isArray(t))for(var r=0;r<t.length;r++)this[t[r]]=n;else this[t]=n}};return function(t){!function(t,n){if("function"!=typeof n&&null!==n)throw new TypeError("Super expression must either be null or a function");t.prototype=Object.create(n&&n.prototype,{constructor:{value:t,writable:!0,configurable:!0}}),n&&o(t,n)}(u,t);var r=a(u);function u(){return n(this,u),r.apply(this,arguments)}return e(u,null,[{key:"build",value:function(t){var n=l(i(u),"build",this).call(this,t,Ot),r=(n.el,n.options,n.player);return function(t){t.play()}(r),r}}]),u}(L)}));
__SVGATOR_PLAYER__.build({"root":"eej1y1wlp6m91","animations":[{"duration":3000,"direction":1,"iterations":Infinity,"fill":1,"alternate":false,"elements":{"eej1y1wlp6m910":{"opacity":[{"t":0,"v":0},{"t":3000,"v":1}]},"eej1y1wlp6m932":{"transform":{"data":{"o":{"x":90.05809020996094,"y":146.93446350097656,"type":"corner"},"t":{"x":-90.05809020996094,"y":-146.93446350097656}},"keys":{"r":[{"t":0,"v":-5.0366735681465205},{"t":400,"v":15.814530162005642},{"t":1300,"v":28.57155210428741},{"t":3000,"v":-4.0580537255163245}]}}},"eej1y1wlp6m933":{"transform":{"data":{"o":{"x":58.86664581298828,"y":147.9619903564453,"type":"corner"},"t":{"x":-58.86664581298828,"y":-147.9619903564453}},"keys":{"r":[{"t":0,"v":0},{"t":300,"v":-12.934104453462906},{"t":1400,"v":-19.353165586541724},{"t":3000,"v":3.7513398462084484}]}}},"eej1y1wlp6m934":{"transform":{"data":{"o":{"x":76.43710136413574,"y":177.41085815429688,"type":"corner"},"t":{"x":-76.43710136413574,"y":-177.41085815429688}},"keys":{"s":[{"t":0,"v":{"x":1,"y":1}},{"t":300,"v":{"x":1,"y":0.566218942295919}},{"t":1500,"v":{"x":1,"y":1.0647825885984943}},{"t":2200,"v":{"x":1,"y":0.5510884941742603}},{"t":3000,"v":{"x":1,"y":0.6592196890173153}}]}}},"eej1y1wlp6m945":{"transform":{"data":{"o":{"x":100.63540267944336,"y":164.76165008544922,"type":"corner"},"t":{"x":-100.63540267944336,"y":-164.76165008544922}},"keys":{"s":[{"t":0,"v":{"x":1,"y":1}},{"t":1300,"v":{"x":1,"y":0.34061930173405447}},{"t":3000,"v":{"x":1,"y":1.04017446806183}}]}}},"eej1y1wlp6m950":{"transform":{"data":{"t":{"x":-139.69208526611328,"y":-41.71875008940697}},"keys":{"o":[{"t":0,"v":{"x":135,"y":116,"type":"corner"}},{"t":3000,"v":{"x":139,"y":41,"type":"corner"}}]}},"opacity":[{"t":0,"v":0},{"t":1700,"v":0},{"t":3000,"v":1}]},"eej1y1wlp6m951":{"opacity":[{"t":0,"v":0},{"t":2500,"v":0},{"t":3000,"v":1}]}}}],"options":{"start":"load","hover":"freeze","click":"freeze","scroll":25,"exportedIds":"unique","title":"Group"},"animationSettings":{"duration":3000,"direction":1,"iterations":1,"fill":1,"alternate":false}})]]></script></svg>
