<svg id="ejzl8oyh07p1" xmlns="http://www.w3.org/2000/svg" xmlns:xlink="http://www.w3.org/1999/xlink" viewBox="0 0 335 342" shape-rendering="geometricPrecision" text-rendering="geometricPrecision"><g id="ejzl8oyh07p2" opacity="0.11"><path id="ejzl8oyh07p3" d="M33.968100,339.358000C49.653400,339.358000,62.368800,336.781000,62.368800,333.603000C62.368800,330.425000,49.653400,327.848000,33.968100,327.848000C18.282800,327.848000,5.567380,330.425000,5.567380,333.603000C5.567380,336.781000,18.282800,339.358000,33.968100,339.358000Z" fill="rgb(0,0,0)" stroke="none" stroke-width="1"/></g><path id="ejzl8oyh07p4" d="M27.091800,322.187000L27.091800,328.597000L30.834900,328.644000L30.834900,321.485000L27.091800,322.187000Z" fill="rgb(237,211,184)" stroke="none" stroke-width="1"/><path id="ejzl8oyh07p5" d="M44.123000,321.252000L44.824900,328.176000L48.895500,327.755000L48.053300,320.082000L44.123000,321.252000Z" fill="rgb(237,211,184)" stroke="none" stroke-width="1"/><path id="ejzl8oyh07p6" d="M48.850300,327.521000L45.200800,328.316000L44.031100,329.346000L43.937500,332.059000L53.388800,333.791000C54.324600,332.668000,53.950300,331.030000,52.640200,330.422000L52.219100,330.235000L48.850300,327.521000Z" fill="rgb(59,69,90)" stroke="none" stroke-width="1"/><path id="ejzl8oyh07p7" d="M27.185400,328.176000L30.928500,328.176000L32.238600,329.907000L32.098200,332.949000L22.506500,333.557000L22.132200,332.621000C21.570800,331.405000,22.366200,330.001000,23.723000,329.814000L23.957000,329.767000L27.185400,328.176000Z" fill="rgb(59,69,90)" stroke="none" stroke-width="1"/><path id="ejzl8oyh07p8" d="M16.049800,263.373000L19.605700,295.096000L21.009400,326.117000L33.034100,326.164000L37.853300,241.289000L18.482800,241.570000L16.049800,263.373000Z" fill="rgb(59,69,90)" stroke="none" stroke-width="1"/><path id="ejzl8oyh07p9" d="M51.935400,259.162000L54.555600,290.090000L51.233600,326.070000L39.583200,325.743000L37.898800,290.885000L35.886900,262.671000L33.875000,241.663000L47.864800,241.289000L51.935400,259.162000Z" fill="rgb(59,69,90)" stroke="none" stroke-width="1"/><path id="ejzl8oyh07p10" d="M41.830800,193.331000L28.308900,193.799000L21.103400,200.255000L16.658500,223.977000L14.178700,244.284000L45.901400,244.424000L53.808700,242.412000L51.328900,221.123000L50.112400,197.635000L41.830800,193.331000Z" fill="rgb(247,247,247)" stroke="none" stroke-width="1"/><path id="ejzl8oyh07p11" d="M39.959300,172.228000C38.462100,170.637000,36.263000,169.702000,34.064000,169.655000C26.437400,169.561000,25.688800,176.954000,26.998900,182.756000C27.560400,185.282000,28.776900,187.809000,30.882400,189.400000C31.443800,189.821000,32.098900,190.148000,32.753900,190.382000C32.613500,190.757000,32.566700,195.529000,32.192400,195.482000C33.970400,195.763000,35.795200,195.576000,37.479600,194.921000C37.479600,193.517000,37.666700,191.739000,37.573100,190.195000C37.807100,190.102000,37.994200,189.961000,38.181400,189.821000C40.240100,188.370000,40.988700,185.703000,41.409800,183.224000C41.971300,180.089000,42.392400,174.802000,39.959300,172.228000Z" fill="rgb(234,197,176)" stroke="none" stroke-width="1"/><path id="ejzl8oyh07p12" d="M38.743100,175.691000C40.193600,177.422000,40.287200,179.855000,40.240400,182.101000C40.146800,185.095000,39.819300,188.137000,38.462400,190.757000C40.334000,189.353000,42.158700,187.950000,44.030300,186.546000C44.732100,186.031000,45.433900,185.470000,45.855000,184.721000C46.276100,183.926000,46.369700,183.037000,46.416500,182.148000C46.744000,177.469000,46.510100,172.369000,43.562400,168.673000C41.690800,166.333000,38.836700,164.836000,35.889000,164.649000C33.456000,164.462000,23.349700,167.550000,27.326700,171.340000C28.496400,172.416000,31.303700,172.603000,32.801000,172.977000C34.906500,173.492000,37.245900,173.913000,38.743100,175.691000Z" fill="rgb(26,49,81)" stroke="none" stroke-width="1"/><path id="ejzl8oyh07p13" d="M29.899400,174.614000C29.618700,174.614000,29.291200,174.661000,29.057200,174.801000C28.729700,174.989000,28.542600,175.269000,28.402200,175.597000C25.969200,179.995000,25.828800,185.610000,28.121500,190.101000C24.238000,188.885000,21.383900,185.235000,20.588500,181.258000C19.839900,177.281000,21.009600,173.070000,23.442600,169.795000C25.688500,166.754000,29.338000,164.368000,33.081100,164.789000C35.326900,165.069000,37.432400,166.333000,38.695700,168.204000C43.374600,175.363000,34.437900,174.380000,29.899400,174.614000Z" fill="rgb(26,49,81)" stroke="none" stroke-width="1"/><path id="ejzl8oyh07p14" d="M14.082900,162.123000C14.129700,161.983000,14.176500,161.889000,14.270100,161.795000C15.018700,160.860000,16.375600,160.111000,17.404900,159.456000C18.200300,158.988000,19.089300,159.737000,19.697600,160.158000C19.884700,160.298000,20.071900,160.439000,20.071900,160.626000C20.071900,160.766000,20.071900,160.860000,20.025100,161C19.744300,161.655000,18.995700,161.842000,18.574600,162.310000C18.387500,162.544000,18.153500,162.825000,18.200300,163.152000C18.340700,163.901000,18.995700,163.246000,19.370000,163.059000C20.118600,163.761000,19.370000,164.228000,18.761800,164.696000C18.013200,165.258000,17.264500,165.726000,16.469100,166.194000C15.860900,166.521000,15.580100,166.755000,14.971900,166.334000C14.831500,166.240000,13.381100,165.351000,13.427900,165.258000C13.615000,164.556000,13.755400,163.854000,13.942500,163.105000C13.942500,162.778000,13.942500,162.404000,14.082900,162.123000Z" fill="rgb(234,197,176)" stroke="none" stroke-width="1"/><path id="ejzl8oyh07p15" d="M35.372200,201.659000C35.419000,201.472000,35.419000,201.238000,35.419000,201.004000C35.325400,194.828000,26.342000,193.612000,21.990600,192.582000C18.528300,191.740000,15.580600,190.477000,12.960400,188.137000C13.568700,180.651000,14.832000,173.165000,16.843900,165.960000C15.487000,165.071000,14.083400,164.182000,12.726500,163.339000C12.679700,163.293000,7.720090,175.317000,7.345780,176.440000C5.708180,180.932000,3.743050,185.424000,2.292610,190.009000C1.684350,192.021000,3.883430,193.659000,5.193510,195.156000C6.737540,196.981000,8.328350,198.805000,9.965950,200.583000C13.194400,204.139000,16.563200,207.602000,20.072300,210.970000C20.119100,211.017000,20.212700,211.111000,20.259500,211.158000C20.774100,211.672000,21.335600,212.140000,21.990600,212.374000C23.253900,212.795000,24.610800,212.093000,25.733700,211.391000C27.792400,210.128000,29.757600,208.678000,31.629100,207.134000C33.360300,205.683000,35.091500,203.858000,35.372200,201.659000Z" fill="rgb(247,247,247)" stroke="none" stroke-width="1"/><path id="ejzl8oyh07p16" d="M51.703000,165.492000C51.562700,165.352000,51.328700,165.165000,51.141600,165.024000C50.720500,164.744000,50.159000,164.650000,49.691100,164.369000C49.223200,164.088000,48.708600,163.761000,48.802100,163.153000C48.895700,162.544000,49.784700,162.872000,50.205800,162.966000C50.673700,163.059000,51.094800,163.059000,51.469100,162.685000C51.843400,162.310000,51.796600,161.609000,51.469100,161.141000C51.141600,160.720000,50.673700,160.439000,50.299400,160.065000C51.469100,160.065000,52.545200,160.111000,53.481000,160.860000C53.948900,161.234000,54.182800,161.749000,54.463600,162.264000C55.352500,163.948000,56.335100,165.586000,57.317700,167.177000C56.522300,167.317000,55.773700,167.504000,55.025000,167.785000C54.323200,168.065000,54.089300,168.112000,53.527800,167.551000C52.919500,166.989000,52.451600,166.288000,51.843400,165.679000C51.843400,165.632000,51.796600,165.586000,51.703000,165.492000Z" fill="rgb(234,197,176)" stroke="none" stroke-width="1"/><path id="ejzl8oyh07p17" d="M48.427900,211.532000C46.415900,206.432000,44.638000,201.098000,42.672900,196.139000C46.556300,192.957000,52.685600,194.361000,54.370000,188.185000C56.101200,182.008000,55.212200,173.961000,52.404900,167.504000C54.136100,166.755000,55.867200,166.241000,57.738800,165.632000C62.230500,173.586000,65.271800,181.634000,64.242400,191.039000C63.213100,200.396000,53.948900,204.795000,48.427900,211.532000Z" fill="rgb(247,247,247)" stroke="none" stroke-width="1"/><path id="ejzl8oyh07p18" d="M23.112300,184.160000L23.112300,189.447000C23.112300,191.179000,24.469200,192.535000,26.153600,192.535000L39.722300,192.535000C41.406700,192.535000,42.763500,191.132000,42.763500,189.447000L42.763500,184.160000L23.112300,184.160000Z" fill="rgb(59,69,90)" stroke="none" stroke-width="1"/><path id="ejzl8oyh07p19" d="M65.878400,113.182000C65.878400,94.606600,51.140000,79.493900,32.939200,79.493900C14.738400,79.493900,0,94.559800,0,113.182000C0,119.779000,1.871540,125.955000,5.099960,131.149000C14.270500,146.870000,16.376000,160.017000,16.376000,160.017000L32.939200,160.017000L49.502400,160.017000C49.502400,160.017000,51.607900,146.870000,60.778500,131.149000C64.006900,125.955000,65.878400,119.826000,65.878400,113.182000Z" fill="rgb(140,171,239)" stroke="none" stroke-width="1"/><path id="ejzl8oyh07p20" d="M16.001000,160.018000L16.001000,182.476000C16.001000,183.412000,16.749600,184.160000,17.638600,184.160000L48.331900,184.160000C49.220900,184.160000,49.969500,183.412000,49.969500,182.476000L49.969500,160.018000L16.001000,160.018000Z" fill="rgb(158,166,173)" stroke="none" stroke-width="1"/><path id="ejzl8oyh07p21" d="M65.316000,106.912000C56.940800,123.615000,40.705100,149.443000,16.375000,159.923000C16.375000,159.970000,16.375000,160.017000,16.375000,160.017000L32.938200,160.017000L49.501400,160.017000C49.501400,160.017000,51.606900,146.869000,60.777500,131.148000C64.005900,125.955000,65.877400,119.779000,65.877400,113.181000C65.877400,111.029000,65.690300,108.924000,65.316000,106.912000Z" fill="rgb(121,159,226)" stroke="none" stroke-width="1"/><path id="ejzl8oyh07p22" d="M5.380800,115.989000C5.380800,99.753200,18.247700,86.605600,34.155800,86.605600C43.420000,86.605600,51.701600,91.097300,56.941900,98.068800C51.982300,89.272500,42.671400,83.330400,32.003500,83.330400C16.142200,83.330400,3.228520,96.478000,3.228520,112.714000C3.228520,119.451000,5.474380,125.674000,9.170680,130.634000C6.784460,126.329000,5.380800,121.323000,5.380800,115.989000Z" fill="rgb(214,225,242)" stroke="none" stroke-width="1"/><path id="ejzl8oyh07p23" d="M26.529900,160.018000L22.552800,116.925000L28.120700,121.651000L32.939900,113.791000L37.899500,121.417000L43.327000,116.879000L39.350000,160.018000L41.034400,160.018000L45.432500,112.948000L38.273800,118.844000L32.939900,110.609000L27.699600,119.078000L20.494100,112.902000L24.845500,160.018000L26.529900,160.018000Z" fill="rgb(246,247,247)" stroke="none" stroke-width="1"/><path id="ejzl8oyh07p24" d="M24.423800,155.712000L24.844900,160.017000L26.529300,160.017000L26.014600,154.730000C25.500000,155.057000,24.985300,155.385000,24.423800,155.712000Z" fill="rgb(237,236,237)" stroke="none" stroke-width="1"/><path id="ejzl8oyh07p25" d="M40.986200,142.237000L39.348600,160.017000L41.033000,160.017000L42.857800,140.272000C42.249500,140.927000,41.641300,141.582000,40.986200,142.237000Z" fill="rgb(237,236,237)" stroke="none" stroke-width="1"/><path id="ejzl8oyh07p26" d="M49.923700,165.585000L16.002000,165.585000L16.002000,169.749000L49.923700,169.749000L49.923700,165.585000Z" fill="rgb(59,69,90)" stroke="none" stroke-width="1"/><path id="ejzl8oyh07p27" d="M49.922800,174.428000L16.001000,174.428000L16.001000,178.592000L49.922800,178.592000L49.922800,174.428000Z" fill="rgb(59,69,90)" stroke="none" stroke-width="1"/><path id="ejzl8oyh07p28" d="M49.362400,160.018000C47.818300,162.029000,46.227500,163.901000,44.636700,165.585000C43.233000,167.083000,41.829400,168.486000,40.425700,169.750000C38.460600,171.528000,36.495500,173.118000,34.577100,174.475000C32.237700,176.113000,29.945100,177.516000,27.746000,178.639000C23.254300,180.932000,19.230500,182.242000,16.048800,182.944000C16.236000,183.693000,16.844200,184.207000,17.592900,184.207000L48.286200,184.207000C49.175200,184.207000,49.923800,183.459000,49.923800,182.523000L49.923800,178.639000L49.923800,174.475000L49.923800,169.750000L49.923800,165.585000L49.923800,160.018000L49.362400,160.018000Z" opacity="0.11" fill="rgb(0,0,0)" stroke="none" stroke-width="1"/><g id="ejzl8oyh07p29" opacity="0.11"><path id="ejzl8oyh07p30" d="M122.119000,339.358000C137.804000,339.358000,150.519000,336.781000,150.519000,333.603000C150.519000,330.425000,137.804000,327.848000,122.119000,327.848000C106.433000,327.848000,93.717800,330.425000,93.717800,333.603000C93.717800,336.781000,106.433000,339.358000,122.119000,339.358000Z" fill="rgb(0,0,0)" stroke="none" stroke-width="1"/></g><path id="ejzl8oyh07p31" d="M112.199000,332.293000L111.638000,335.101000L105.695000,337.019000L103.590000,333.744000L106.818000,331.358000L112.714000,329.486000L112.199000,332.293000Z" fill="rgb(59,69,90)" stroke="none" stroke-width="1"/><path id="ejzl8oyh07p32" d="M128.715000,329.112000L128.949000,332.059000L134.704000,334.493000L137.230000,331.311000L134.236000,328.644000L128.715000,329.112000Z" fill="rgb(59,69,90)" stroke="none" stroke-width="1"/><path id="ejzl8oyh07p33" d="M103.588000,246.155000L101.062000,255.232000L102.372000,259.396000L102.231000,259.396000L103.775000,283.352000L107.097000,331.638000L112.665000,331.451000L122.631000,275.024000L123.333000,277.644000L128.714000,329.767000L133.814000,329.299000L141.721000,261.268000L141.721000,247.465000L103.588000,246.155000Z" fill="rgb(59,69,90)" stroke="none" stroke-width="1"/><path id="ejzl8oyh07p34" d="M126.188000,183.178000L119.685000,182.616000C105.133000,181.400000,104.104000,201.612000,102.232000,211.672000C99.518700,226.223000,98.302200,241.149000,99.705800,255.934000C104.291000,253.454000,110.608000,253.969000,115.801000,253.782000C125.393000,253.454000,135.265000,253.174000,144.529000,254.671000C146.261000,254.951000,145.512000,242.552000,145.138000,240.260000C144.436000,235.581000,143.734000,230.902000,142.985000,226.223000C141.722000,217.754000,140.412000,209.286000,139.149000,200.817000C139.102000,200.583000,139.055000,200.302000,139.055000,200.068000C138.915000,199.179000,138.634000,198.290000,138.166000,197.495000L132.130000,186.968000C130.867000,184.815000,128.668000,183.412000,126.188000,183.178000Z" fill="rgb(247,247,247)" stroke="none" stroke-width="1"/><path id="ejzl8oyh07p35" d="M132.177000,164.650000C127.825000,166.007000,122.913000,163.340000,118.748000,165.305000C116.503000,166.334000,114.444000,168.861000,114.631000,171.387000C114.818000,174.054000,115.614000,177.096000,117.251000,179.248000C118.702000,181.166000,119.169000,181.915000,118.468000,184.208000C119.403000,184.909000,120.292000,185.611000,121.228000,186.313000C121.415000,186.453000,121.649000,186.641000,121.930000,186.687000C122.304000,186.781000,122.679000,186.641000,123.006000,186.500000C123.661000,186.266000,124.363000,185.986000,125.018000,185.752000C125.720000,185.471000,125.626000,183.038000,125.720000,182.383000C125.767000,182.102000,125.813000,181.775000,125.954000,181.541000C126.141000,181.260000,126.469000,181.073000,126.749000,180.886000C130.305000,178.686000,133.159000,174.382000,133.113000,170.124000C133.159000,168.206000,132.691000,166.381000,132.177000,164.650000Z" fill="rgb(234,197,176)" stroke="none" stroke-width="1"/><path id="ejzl8oyh07p36" d="M121.555000,165.211000C121.742000,165.211000,121.883000,165.164000,122.070000,165.164000C124.503000,165.024000,126.983000,165.398000,129.275000,166.287000C130.819000,166.895000,132.504000,167.971000,132.597000,169.796000C132.644000,170.638000,132.457000,171.434000,132.223000,172.276000C131.942000,173.305000,131.661000,174.288000,131.427000,175.317000C131.381000,175.504000,131.334000,175.692000,131.381000,175.879000C131.521000,176.440000,132.363000,176.440000,132.831000,176.066000C134.469000,174.756000,136.621000,172.604000,137.510000,170.732000C138.259000,169.235000,138.118000,167.176000,139.194000,165.866000C139.896000,164.977000,140.458000,163.573000,141.487000,163.105000C142.844000,162.450000,144.294000,161.702000,145.230000,160.532000C146.213000,159.362000,146.587000,157.584000,145.792000,156.274000C144.996000,155.058000,143.405000,154.637000,141.955000,154.590000C140.504000,154.543000,138.960000,154.683000,137.604000,154.122000C136.995000,153.888000,136.481000,153.561000,135.826000,153.420000C133.814000,152.999000,130.632000,153.654000,128.807000,154.590000C127.076000,155.479000,125.439000,156.602000,123.520000,156.929000C121.976000,157.163000,120.385000,156.836000,118.841000,156.976000C116.268000,157.210000,113.835000,158.707000,112.431000,160.860000C110.840000,163.293000,110.185000,166.661000,111.636000,169.282000C112.338000,170.592000,112.852000,171.948000,113.414000,173.352000C113.601000,173.820000,114.864000,175.738000,115.145000,174.148000C115.379000,172.884000,115.192000,171.621000,115.379000,170.358000C115.847000,167.223000,118.701000,165.538000,121.555000,165.211000Z" fill="rgb(59,69,90)" stroke="none" stroke-width="1"/><path id="ejzl8oyh07p37" d="M106.116000,160.110000L102.935000,158.753000L104.619000,153.186000L108.222000,152.577000L110.280000,154.917000L108.128000,156.648000L108.690000,156.882000L109.579000,156.554000L109.906000,157.443000L106.116000,160.110000Z" fill="rgb(234,197,176)" stroke="none" stroke-width="1"/><path id="ejzl8oyh07p38" d="M109.345000,203.624000C112.245000,197.822000,113.181000,191.084000,111.965000,184.768000C108.362000,184.347000,104.900000,182.896000,102.046000,180.650000C101.858000,180.510000,101.718000,180.370000,101.578000,180.182000C101.344000,179.808000,101.484000,179.293000,101.624000,178.872000C103.683000,172.509000,106.023000,166.193000,107.707000,159.783000L102.935000,157.443000C101.437000,160.110000,99.940100,162.824000,98.442800,165.491000C96.664900,168.672000,94.933700,171.854000,93.155700,175.036000C92.500700,176.205000,91.845600,177.375000,91.190600,178.545000C90.956600,178.966000,90.675900,179.387000,90.442000,179.808000C89.225500,181.960000,90.769500,185.610000,91.518100,187.762000C92.594200,190.803000,94.044700,193.751000,95.495100,196.652000C97.086000,199.880000,98.723600,203.156000,100.314000,206.384000C100.969000,207.741000,101.858000,209.238000,103.356000,209.472000C106.023000,209.893000,107.894000,206.291000,108.923000,204.372000C109.111000,204.091000,109.251000,203.858000,109.345000,203.624000Z" fill="rgb(247,247,247)" stroke="none" stroke-width="1"/><path id="ejzl8oyh07p39" d="M140.506000,162.731000L143.875000,161.749000L142.939000,156.040000L139.477000,154.964000L137.091000,157.023000L139.009000,158.988000L138.401000,159.175000L137.605000,158.707000L137.138000,159.550000L140.506000,162.731000Z" fill="rgb(234,197,176)" stroke="none" stroke-width="1"/><path id="ejzl8oyh07p40" d="M131.475000,205.403000C129.369000,199.273000,126.703000,191.179000,128.761000,185.050000C132.364000,185.096000,138.634000,185.471000,141.768000,183.599000C141.956000,183.506000,142.143000,183.365000,142.283000,183.178000C142.564000,182.804000,142.470000,182.289000,142.424000,181.868000C141.254000,175.318000,139.757000,168.720000,138.961000,162.123000L144.014000,160.439000C145.137000,163.293000,146.260000,166.147000,147.383000,169.001000C148.693000,172.370000,150.050000,175.785000,151.360000,179.154000C151.828000,180.418000,152.343000,181.634000,152.811000,182.897000C152.998000,183.365000,153.185000,183.786000,153.372000,184.254000C154.308000,186.547000,152.296000,189.962000,151.220000,191.974000C149.723000,194.875000,147.898000,197.542000,146.073000,200.256000C144.061000,203.250000,142.002000,206.245000,139.991000,209.239000C139.148000,210.456000,138.072000,211.860000,136.575000,211.860000C133.861000,211.906000,132.504000,208.070000,131.756000,206.058000C131.615000,205.871000,131.522000,205.637000,131.475000,205.403000Z" fill="rgb(247,247,247)" stroke="none" stroke-width="1"/><path id="ejzl8oyh07p41" d="M113.415000,184.160000L113.415000,189.447000C113.415000,191.179000,114.772000,192.535000,116.456000,192.535000L130.025000,192.535000C131.709000,192.535000,133.066000,191.132000,133.066000,189.447000L133.066000,184.160000L113.415000,184.160000Z" fill="rgb(59,69,90)" stroke="none" stroke-width="1"/><path id="ejzl8oyh07p42" d="M156.180000,113.182000C156.180000,94.606600,141.442000,79.493900,123.241000,79.493900C105.040000,79.493900,90.301800,94.559800,90.301800,113.182000C90.301800,119.779000,92.173300,125.955000,95.401700,131.149000C104.572000,146.870000,106.678000,160.017000,106.678000,160.017000L123.241000,160.017000L139.804000,160.017000C139.804000,160.017000,141.910000,146.870000,151.080000,131.149000C154.309000,125.955000,156.180000,119.826000,156.180000,113.182000Z" fill="rgb(140,171,239)" stroke="none" stroke-width="1"/><path id="ejzl8oyh07p43" d="M106.303000,160.018000L106.303000,182.476000C106.303000,183.412000,107.051000,184.160000,107.940000,184.160000L138.634000,184.160000C139.523000,184.160000,140.271000,183.412000,140.271000,182.476000L140.271000,160.018000L106.303000,160.018000Z" fill="rgb(158,166,173)" stroke="none" stroke-width="1"/><path id="ejzl8oyh07p44" d="M155.618000,106.912000C147.243000,123.615000,131.007000,149.443000,106.677000,159.923000C106.677000,159.970000,106.677000,160.017000,106.677000,160.017000L123.240000,160.017000L139.803000,160.017000C139.803000,160.017000,141.909000,146.869000,151.079000,131.148000C154.308000,125.955000,156.179000,119.779000,156.179000,113.181000C156.179000,111.029000,155.992000,108.924000,155.618000,106.912000Z" fill="rgb(121,159,226)" stroke="none" stroke-width="1"/><path id="ejzl8oyh07p45" d="M95.682600,115.989000C95.682600,99.753200,108.549000,86.605600,124.458000,86.605600C133.722000,86.605600,142.003000,91.097300,147.244000,98.068800C142.284000,89.272500,132.973000,83.330400,122.305000,83.330400C106.444000,83.330400,93.530300,96.478000,93.530300,112.714000C93.530300,119.451000,95.776100,125.674000,99.472400,130.634000C97.086200,126.329000,95.682600,121.323000,95.682600,115.989000Z" fill="rgb(214,225,242)" stroke="none" stroke-width="1"/><path id="ejzl8oyh07p46" d="M116.832000,160.018000L112.855000,116.925000L118.422000,121.651000L123.242000,113.791000L128.201000,121.417000L133.629000,116.879000L129.652000,160.018000L131.336000,160.018000L135.734000,112.948000L128.576000,118.844000L123.242000,110.609000L118.001000,119.078000L110.796000,112.902000L115.147000,160.018000L116.832000,160.018000Z" fill="rgb(246,247,247)" stroke="none" stroke-width="1"/><path id="ejzl8oyh07p47" d="M114.725000,155.712000L115.146000,160.017000L116.830000,160.017000L116.315000,154.730000C115.801000,155.057000,115.286000,155.385000,114.725000,155.712000Z" fill="rgb(237,236,237)" stroke="none" stroke-width="1"/><path id="ejzl8oyh07p48" d="M131.287000,142.237000L129.649000,160.017000L131.334000,160.017000L133.159000,140.272000C132.550000,140.927000,131.942000,141.582000,131.287000,142.237000Z" fill="rgb(237,236,237)" stroke="none" stroke-width="1"/><path id="ejzl8oyh07p49" d="M140.226000,165.585000L106.305000,165.585000L106.305000,169.749000L140.226000,169.749000L140.226000,165.585000Z" fill="rgb(59,69,90)" stroke="none" stroke-width="1"/><path id="ejzl8oyh07p50" d="M140.225000,174.428000L106.304000,174.428000L106.304000,178.592000L140.225000,178.592000L140.225000,174.428000Z" fill="rgb(59,69,90)" stroke="none" stroke-width="1"/><path id="ejzl8oyh07p51" d="M139.662000,160.018000C138.118000,162.029000,136.527000,163.901000,134.937000,165.585000C133.533000,167.083000,132.129000,168.486000,130.726000,169.750000C128.760000,171.528000,126.795000,173.118000,124.877000,174.475000C122.538000,176.113000,120.245000,177.516000,118.046000,178.639000C113.554000,180.932000,109.530000,182.242000,106.349000,182.944000C106.536000,183.693000,107.144000,184.207000,107.893000,184.207000L138.586000,184.207000C139.475000,184.207000,140.224000,183.459000,140.224000,182.523000L140.224000,178.639000L140.224000,174.475000L140.224000,169.750000L140.224000,165.585000L140.224000,160.018000L139.662000,160.018000Z" opacity="0.11" fill="rgb(0,0,0)" stroke="none" stroke-width="1"/><g id="ejzl8oyh07p52" opacity="0.11"><path id="ejzl8oyh07p53" d="M298.416000,339.358000C314.102000,339.358000,326.817000,336.781000,326.817000,333.603000C326.817000,330.425000,314.102000,327.848000,298.416000,327.848000C282.731000,327.848000,270.016000,330.425000,270.016000,333.603000C270.016000,336.781000,282.731000,339.358000,298.416000,339.358000Z" fill="rgb(0,0,0)" stroke="none" stroke-width="1"/></g><path id="ejzl8oyh07p54" d="M306.139000,329.533000L306.139000,332.153000L312.829000,335.475000L316.198000,332.153000L312.829000,328.831000L312.408000,328.831000L312.315000,329.533000L306.139000,329.533000Z" fill="rgb(59,69,90)" stroke="none" stroke-width="1"/><path id="ejzl8oyh07p55" d="M289.669000,328.831000L289.201000,328.831000L285.879000,332.153000L289.201000,335.475000L295.892000,332.153000L295.892000,329.533000L289.762000,329.533000L289.669000,328.831000Z" fill="rgb(59,69,90)" stroke="none" stroke-width="1"/><path id="ejzl8oyh07p56" d="M296.966000,174.663000C293.410000,174.522000,288.825000,176.534000,286.579000,179.341000C284.895000,181.400000,283.912000,183.927000,282.976000,186.407000C280.262000,193.378000,279.046000,199.835000,277.689000,207.181000C276.847000,211.860000,276.051000,216.538000,275.396000,221.171000C274.695000,226.317000,274.227000,231.464000,274.086000,236.564000C274.086000,237.125000,273.946000,238.716000,273.899000,240.588000C273.759000,244.518000,273.852000,249.805000,275.490000,249.992000C275.818000,250.039000,276.098000,249.899000,276.379000,249.758000C278.485000,248.729000,280.169000,247.372000,281.994000,246.202000C282.649000,245.781000,283.304000,245.407000,284.052000,245.033000C285.503000,244.331000,287.094000,243.769000,288.684000,243.348000C285.971000,243.489000,285.643000,242.974000,285.643000,242.974000C285.643000,242.974000,288.076000,233.055000,289.807000,224.446000C290.696000,220.001000,291.398000,215.883000,291.445000,213.684000C291.632000,206.994000,292.474000,184.909000,292.474000,184.909000L296.592000,176.441000L297.340000,176.441000C297.294000,176.441000,297.247000,176.441000,297.200000,176.441000C297.294000,176.487000,297.013000,174.803000,296.966000,174.663000Z" fill="rgb(247,247,247)" stroke="none" stroke-width="1"/><path id="ejzl8oyh07p57" d="M327.425000,245.594000C327.004000,241.196000,326.583000,236.844000,326.021000,232.493000C324.945000,223.790000,323.542000,215.088000,321.062000,206.666000C320.126000,203.437000,319.050000,200.256000,317.974000,197.074000C316.664000,193.191000,315.354000,189.354000,314.044000,185.470000C312.406000,180.651000,309.692000,177.282000,304.873000,175.598000C304.031000,175.317000,303.095000,175.083000,302.159000,174.896000C302.159000,174.990000,302.112000,175.083000,302.112000,175.224000C302.066000,175.692000,301.925000,176.206000,301.645000,176.534000L304.779000,176.581000C304.779000,176.581000,313.669000,208.116000,313.997000,213.590000C314.137000,215.649000,314.558000,220.188000,314.979000,224.913000C315.728000,232.446000,316.570000,240.588000,316.570000,240.588000C316.570000,240.588000,312.640000,240.681000,307.025000,241.102000C307.446000,241.102000,307.867000,241.102000,308.289000,241.055000C312.219000,241.009000,316.289000,242.693000,320.079000,243.816000C320.360000,243.910000,320.641000,243.956000,320.875000,244.050000C322.419000,244.471000,323.635000,245.594000,324.945000,246.483000C326.864000,247.746000,327.659000,248.261000,327.425000,245.594000Z" fill="rgb(247,247,247)" stroke="none" stroke-width="1"/><path id="ejzl8oyh07p58" d="M320.080000,243.769000C316.290000,242.693000,312.219000,240.962000,308.289000,241.009000C307.868000,241.009000,307.447000,241.009000,307.026000,241.056000C306.698000,241.102000,306.324000,241.102000,305.950000,241.149000C303.330000,241.383000,300.335000,241.664000,297.247000,242.038000C297.107000,242.038000,296.966000,242.085000,296.779000,242.085000C292.802000,242.927000,290.276000,243.302000,288.591000,243.348000C287,243.769000,285.410000,244.331000,283.959000,245.033000C283.210000,245.407000,282.555000,245.781000,281.900000,246.202000L281.900000,250.507000L289.433000,329.720000L295.609000,329.720000L295.609000,330.469000L295.656000,330.469000L302.441000,275.211000L302.487000,274.931000L306.231000,330.469000L306.277000,330.469000L306.277000,329.720000L312.500000,329.720000L320.361000,268.567000L320.080000,243.769000Z" fill="rgb(59,69,90)" stroke="none" stroke-width="1"/><path id="ejzl8oyh07p59" d="M315.071000,224.867000C314.603000,220.094000,314.182000,215.602000,314.089000,213.544000C313.668000,206.900000,311.188000,200.069000,309.503000,193.659000C308.521000,189.869000,307.491000,186.079000,306.415000,182.289000C306.041000,181.026000,305.947000,178.733000,305.246000,177.704000C304.123000,176.019000,301.690000,176.768000,300.052000,176.815000C297.853000,176.908000,295.373000,175.551000,293.455000,177.329000C292.192000,178.499000,292.472000,180.651000,292.379000,182.195000C292.238000,185.705000,292.098000,189.167000,292.004000,192.676000C291.817000,199.694000,291.630000,206.666000,291.349000,213.684000C291.303000,215.930000,290.601000,220.001000,289.712000,224.446000C288.823000,228.844000,287.887000,233.195000,286.858000,237.546000C286.530000,238.950000,286.203000,240.400000,285.828000,241.804000C285.688000,242.459000,283.536000,244.752000,284.097000,245.173000C284.425000,245.407000,286.343000,244.799000,286.764000,244.705000C287.747000,244.518000,288.682000,244.284000,289.665000,244.050000C293.455000,243.161000,297.245000,242.225000,301.128000,241.898000C303.374000,241.711000,305.620000,241.804000,307.866000,241.898000C309.691000,241.991000,311.515000,242.038000,313.293000,242.412000C315.399000,242.833000,317.551000,243.629000,319.657000,243.208000C319.610000,242.225000,318.814000,241.523000,318.206000,240.775000C316.335000,238.669000,316.241000,236.517000,315.960000,233.897000C315.633000,230.902000,315.352000,227.861000,315.071000,224.867000Z" fill="rgb(215,232,244)" stroke="none" stroke-width="1"/><path id="ejzl8oyh07p60" d="M307.398000,156.321000C308.193000,157.912000,308.521000,159.737000,308.521000,161.515000C308.521000,161.983000,308.521000,162.544000,308.895000,162.825000C309.270000,163.152000,308.895000,163.761000,309.223000,163.386000C309.550000,163.012000,310.673000,161.655000,310.720000,161.187000C310.907000,160.018000,310.954000,158.801000,310.907000,157.631000C310.860000,156.602000,310.720000,155.526000,310.065000,154.684000C309.691000,154.216000,309.176000,153.841000,308.708000,153.514000C307.960000,152.999000,307.211000,152.531000,306.369000,152.297000C304.918000,151.923000,303.983000,152.438000,305.199000,153.561000C306.088000,154.356000,306.837000,155.245000,307.398000,156.321000Z" fill="rgb(26,49,81)" stroke="none" stroke-width="1"/><path id="ejzl8oyh07p61" d="M296.965000,176.066000C297.012000,176.627000,297.105000,177.189000,297.386000,177.657000C297.713000,178.124000,298.181000,178.452000,298.696000,178.733000C299.304000,179.060000,300.006000,179.341000,300.708000,179.388000C301.410000,179.435000,302.158000,179.201000,302.626000,178.639000C303.889000,177.002000,303.889000,173.492000,304.077000,171.527000C305.855000,171.293000,308.007000,170.825000,308.709000,169.001000C308.943000,168.392000,308.989000,167.784000,308.989000,167.129000C309.130000,164.509000,309.270000,161.889000,309.457000,159.269000C309.504000,158.380000,309.551000,157.444000,309.317000,156.555000C308.849000,155.058000,307.539000,154.122000,306.229000,153.467000C302.907000,151.876000,298.930000,151.736000,295.655000,153.560000C294.812000,154.028000,293.970000,154.683000,293.456000,155.619000C292.660000,157.023000,292.660000,158.801000,292.660000,160.485000C292.707000,162.029000,292.707000,163.573000,292.754000,165.117000C292.801000,166.895000,292.941000,168.907000,294.251000,169.936000C294.953000,170.451000,295.842000,170.591000,296.450000,171.293000C297.479000,172.557000,296.918000,174.428000,296.965000,176.066000Z" fill="rgb(234,197,176)" stroke="none" stroke-width="1"/><path id="ejzl8oyh07p62" d="M309.646000,166.146000C309.646000,165.678000,309.506000,164.228000,308.757000,165.070000C308.570000,165.304000,308.476000,165.632000,308.476000,165.912000C308.430000,166.240000,308.430000,166.567000,308.336000,166.848000C308.102000,167.503000,307.307000,167.784000,306.698000,167.737000C306.418000,167.737000,306.184000,167.644000,305.950000,167.503000C305.716000,167.363000,305.575000,167.129000,305.388000,166.942000C305.014000,166.427000,304.593000,165.912000,304.219000,165.398000C303.517000,164.509000,302.113000,164.789000,301.131000,164.883000C300.008000,164.977000,298.885000,165.257000,297.902000,165.959000C297.809000,166.053000,297.715000,166.099000,297.621000,166.193000C297.387000,166.380000,297.153000,166.567000,296.920000,166.661000C296.031000,167.035000,295.001000,166.521000,294.440000,165.725000C294.159000,165.351000,293.925000,164.836000,293.504000,164.789000C293.176000,164.743000,292.849000,164.930000,292.615000,165.257000C292.428000,165.585000,292.381000,165.959000,292.334000,166.333000C292.194000,167.690000,292.287000,169.094000,292.802000,170.310000C293.925000,172.977000,296.311000,173.445000,298.791000,173.492000C299.774000,173.539000,300.709000,173.539000,301.692000,173.586000C303.470000,173.632000,305.341000,173.679000,306.839000,172.697000C308.196000,171.854000,309.038000,170.357000,309.459000,168.720000C309.552000,167.877000,309.646000,166.988000,309.646000,166.146000ZM303.049000,169.468000C302.113000,170.030000,301.084000,170.030000,300.054000,169.655000C299.633000,169.515000,299.867000,168.766000,300.288000,168.907000C301.131000,169.234000,301.926000,169.234000,302.721000,168.766000C303.096000,168.532000,303.423000,169.234000,303.049000,169.468000Z" fill="rgb(26,49,81)" stroke="none" stroke-width="1"/><path id="ejzl8oyh07p63" d="M310.722000,151.970000C310.909000,151.361000,311.096000,150.706000,311.190000,150.051000C310.581000,150.239000,309.926000,150.239000,309.318000,150.098000C309.318000,149.724000,309.365000,149.350000,309.365000,148.975000C309.365000,148.648000,305.201000,148.227000,304.873000,148.180000C301.691000,147.759000,298.837000,147.338000,295.843000,148.928000C293.316000,150.285000,291.632000,152.391000,291.117000,155.245000C290.603000,157.959000,291.304000,161.608000,292.755000,163.948000C292.802000,163.199000,292.474000,161.468000,292.661000,160.766000C292.802000,160.064000,293.082000,159.409000,293.410000,158.801000C294.112000,157.584000,295.188000,156.602000,296.404000,155.947000C298.323000,154.871000,300.522000,154.356000,302.721000,154.169000C304.733000,153.982000,307.166000,153.841000,309.084000,154.496000C310.020000,154.824000,310.160000,155.058000,310.768000,154.122000C310.862000,153.935000,311.798000,152.017000,311.704000,152.017000C311.424000,152.017000,311.049000,151.970000,310.722000,151.970000Z" fill="rgb(26,49,81)" stroke="none" stroke-width="1"/><path id="ejzl8oyh07p64" d="M323.167000,160.531000C323.307000,160.437000,323.447000,160.391000,323.588000,160.297000C323.775000,159.361000,323.541000,158.379000,323.307000,157.490000C322.792000,155.337000,322.044000,153.232000,320.219000,151.875000C319.330000,151.220000,316.944000,150.846000,316.570000,152.483000C316.429000,153.138000,317.318000,153.419000,317.739000,153.887000C317.880000,154.027000,318.862000,155.618000,318.862000,155.618000C318.441000,155.665000,318.020000,155.431000,317.646000,155.150000C317.365000,155.478000,317.131000,155.805000,316.850000,156.133000C316.804000,156.226000,316.710000,156.273000,316.757000,156.367000C316.804000,156.414000,316.850000,156.460000,316.897000,156.507000C319.237000,157.630000,319.658000,159.595000,320.874000,161.701000C321.623000,161.280000,322.371000,160.905000,323.167000,160.531000Z" fill="rgb(234,197,176)" stroke="none" stroke-width="1"/><path id="ejzl8oyh07p65" d="M315.867000,196.979000L308.521000,179.621000L319.657000,180.135000C321.248000,179.948000,322.324000,178.498000,322.090000,176.954000L319.189000,159.969000L324.102000,158.800000L330.419000,171.854000C333.086000,177.375000,332.805000,183.832000,329.670000,189.119000L315.867000,196.979000Z" fill="rgb(247,247,247)" stroke="none" stroke-width="1"/><path id="ejzl8oyh07p66" d="M278.531000,160.859000C278.391000,160.765000,278.251000,160.672000,278.110000,160.625000C278.017000,159.689000,278.297000,158.753000,278.578000,157.818000C279.280000,155.712000,280.169000,153.653000,282.087000,152.437000C283.023000,151.829000,285.456000,151.641000,285.690000,153.279000C285.783000,153.934000,284.895000,154.168000,284.427000,154.589000C284.286000,154.729000,283.163000,156.227000,283.163000,156.227000C283.584000,156.320000,284.052000,156.086000,284.427000,155.852000C284.661000,156.227000,284.894000,156.554000,285.175000,156.929000C285.222000,157.022000,285.269000,157.116000,285.222000,157.163000C285.175000,157.209000,285.128000,157.256000,285.082000,157.303000C282.649000,158.239000,282.087000,160.204000,280.730000,162.169000C280.028000,161.748000,279.280000,161.327000,278.531000,160.859000Z" fill="rgb(234,197,176)" stroke="none" stroke-width="1"/><path id="ejzl8oyh07p67" d="M279.795000,202.220000L291.539000,176.393000C289.386000,177.750000,287.234000,179.106000,285.082000,180.463000C283.631000,181.352000,282.228000,182.288000,280.777000,183.177000C279.280000,184.113000,278.110000,184.674000,277.034000,182.662000C276.754000,182.101000,276.520000,181.446000,276.426000,180.838000C276.145000,178.498000,282.743000,160.765000,282.509000,160.672000C282.462000,160.672000,277.689000,159.174000,277.689000,159.174000L270.437000,171.714000C268.472000,175.083000,267.677000,179.200000,267.536000,183.083000C267.489000,185.095000,267.583000,187.201000,268.051000,189.166000C268.472000,190.850000,268.753000,192.675000,270.250000,193.798000C271.654000,194.781000,272.917000,195.810000,274.180000,197.026000C274.742000,197.401000,279.935000,201.846000,279.795000,202.220000Z" fill="rgb(247,247,247)" stroke="none" stroke-width="1"/><path id="ejzl8oyh07p68" d="M291.680000,184.160000L291.680000,189.447000C291.680000,191.179000,293.037000,192.535000,294.721000,192.535000L308.290000,192.535000C309.974000,192.535000,311.331000,191.132000,311.331000,189.447000L311.331000,184.160000L291.680000,184.160000Z" fill="rgb(59,69,90)" stroke="none" stroke-width="1"/><path id="ejzl8oyh07p69" d="M334.445000,113.182000C334.445000,94.606600,319.706000,79.493900,301.506000,79.493900C283.305000,79.493900,268.566000,94.559800,268.566000,113.182000C268.566000,119.779000,270.438000,125.955000,273.666000,131.149000C282.837000,146.870000,284.942000,160.017000,284.942000,160.017000L301.506000,160.017000L318.069000,160.017000C318.069000,160.017000,320.174000,146.870000,329.345000,131.149000C332.573000,125.955000,334.445000,119.826000,334.445000,113.182000Z" fill="rgb(140,171,239)" stroke="none" stroke-width="1"/><path id="ejzl8oyh07p70" d="M284.568000,160.018000L284.568000,182.476000C284.568000,183.412000,285.317000,184.160000,286.206000,184.160000L316.899000,184.160000C317.788000,184.160000,318.537000,183.412000,318.537000,182.476000L318.537000,160.018000L284.568000,160.018000Z" fill="rgb(158,166,173)" stroke="none" stroke-width="1"/><path id="ejzl8oyh07p71" d="M333.882000,106.912000C325.507000,123.615000,309.272000,149.443000,284.941000,159.923000C284.941000,159.970000,284.941000,160.017000,284.941000,160.017000L301.505000,160.017000L318.068000,160.017000C318.068000,160.017000,320.173000,146.869000,329.344000,131.148000C332.572000,125.955000,334.444000,119.779000,334.444000,113.181000C334.444000,111.029000,334.257000,108.924000,333.882000,106.912000Z" fill="rgb(121,159,226)" stroke="none" stroke-width="1"/><path id="ejzl8oyh07p72" d="M273.947000,115.989000C273.947000,99.753200,286.814000,86.605600,302.722000,86.605600C311.986000,86.605600,320.268000,91.097300,325.508000,98.068800C320.549000,89.272500,311.238000,83.330400,300.570000,83.330400C284.709000,83.330400,271.795000,96.478000,271.795000,112.714000C271.795000,119.451000,274.041000,125.674000,277.737000,130.634000C275.351000,126.329000,273.947000,121.323000,273.947000,115.989000Z" fill="rgb(214,225,242)" stroke="none" stroke-width="1"/><path id="ejzl8oyh07p73" d="M295.096000,160.018000L291.119000,116.925000L296.687000,121.651000L301.506000,113.791000L306.466000,121.417000L311.893000,116.879000L307.916000,160.018000L309.601000,160.018000L313.999000,112.948000L306.840000,118.844000L301.506000,110.609000L296.266000,119.078000L289.061000,112.902000L293.412000,160.018000L295.096000,160.018000Z" fill="rgb(246,247,247)" stroke="none" stroke-width="1"/><path id="ejzl8oyh07p74" d="M292.992000,155.712000L293.413000,160.017000L295.098000,160.017000L294.583000,154.730000C294.068000,155.057000,293.554000,155.385000,292.992000,155.712000Z" fill="rgb(237,236,237)" stroke="none" stroke-width="1"/><path id="ejzl8oyh07p75" d="M309.554000,142.237000L307.916000,160.017000L309.600000,160.017000L311.425000,140.272000C310.817000,140.927000,310.209000,141.582000,309.554000,142.237000Z" fill="rgb(237,236,237)" stroke="none" stroke-width="1"/><path id="ejzl8oyh07p76" d="M318.490000,165.585000L284.568000,165.585000L284.568000,169.749000L318.490000,169.749000L318.490000,165.585000Z" fill="rgb(59,69,90)" stroke="none" stroke-width="1"/><path id="ejzl8oyh07p77" d="M318.490000,174.428000L284.568000,174.428000L284.568000,178.592000L318.490000,178.592000L318.490000,174.428000Z" fill="rgb(59,69,90)" stroke="none" stroke-width="1"/><path id="ejzl8oyh07p78" d="M317.931000,160.018000C316.387000,162.029000,314.796000,163.901000,313.205000,165.585000C311.801000,167.083000,310.398000,168.486000,308.994000,169.750000C307.029000,171.528000,305.064000,173.118000,303.146000,174.475000C300.806000,176.113000,298.513000,177.516000,296.314000,178.639000C291.823000,180.932000,287.799000,182.242000,284.617000,182.944000C284.804000,183.693000,285.413000,184.207000,286.161000,184.207000L316.855000,184.207000C317.744000,184.207000,318.492000,183.459000,318.492000,182.523000L318.492000,178.639000L318.492000,174.475000L318.492000,169.750000L318.492000,165.585000L318.492000,160.018000L317.931000,160.018000Z" opacity="0.11" fill="rgb(0,0,0)" stroke="none" stroke-width="1"/><g id="ejzl8oyh07p79" opacity="0.11"><path id="ejzl8oyh07p80" d="M210.271000,339.358000C225.956000,339.358000,238.672000,336.782000,238.672000,333.603000C238.672000,330.425000,225.956000,327.848000,210.271000,327.848000C194.586000,327.848000,181.870000,330.425000,181.870000,333.603000C181.870000,336.782000,194.586000,339.358000,210.271000,339.358000Z" fill="rgb(0,0,0)" stroke="none" stroke-width="1"/></g><g id="ejzl8oyh07p81" transform="matrix(1 0 0 1 0 60)"><path id="ejzl8oyh07p82" d="M215.600000,261.502000L211.623000,266.555000L214.571000,268.848000L218.969000,263.233000L215.600000,261.502000Z" fill="rgb(234,197,176)" stroke="none" stroke-width="1"/><path id="ejzl8oyh07p83" d="M214.759000,268.474000L212.700000,265.760000L211.390000,265.198000L209.051000,266.181000L211.203000,274.743000C212.466000,275.071000,213.730000,274.135000,213.776000,272.825000L213.776000,272.404000L214.759000,268.474000Z" fill="rgb(59,69,90)" stroke="none" stroke-width="1"/><path id="ejzl8oyh07p84" d="M202.968000,261.503000L206.945000,266.556000L203.998000,268.895000L199.553000,263.234000L202.968000,261.503000Z" fill="rgb(234,197,176)" stroke="none" stroke-width="1"/><path id="ejzl8oyh07p85" d="M203.764000,268.848000L205.495000,265.900000L206.758000,265.199000L209.191000,265.900000L208.021000,274.650000C206.805000,275.118000,205.448000,274.322000,205.261000,273.012000L205.214000,272.591000L203.764000,268.848000Z" fill="rgb(59,69,90)" stroke="none" stroke-width="1"/><path id="ejzl8oyh07p86" d="M237.032000,211.298000C234.412000,205.169000,231.183000,200.958000,228.376000,195.203000C225.101000,194.688000,221.825000,193.612000,218.550000,192.863000C218.784000,192.442000,219.018000,192.021000,219.299000,191.647000C214.901000,192.068000,210.409000,191.553000,206.011000,192.068000C204.186000,192.162000,202.361000,192.208000,200.537000,192.115000C200.771000,192.442000,200.958000,192.817000,201.192000,193.144000C198.010000,194.127000,194.875000,195.530000,191.694000,196.279000C189.307000,202.362000,186.687000,207.087000,184.675000,213.591000C182.663000,220.141000,181.400000,228.470000,179.107000,235.254000C185.658000,245.688000,194.127000,257.713000,200.490000,268.240000C202.736000,267.351000,203.344000,264.590000,205.637000,263.842000C202.689000,254.203000,200.116000,244.471000,196.840000,234.926000C200.537000,228.423000,203.812000,221.732000,207.087000,214.994000C208.631000,211.860000,213.029000,211.579000,214.901000,214.527000C218.644000,220.422000,222.340000,226.317000,225.849000,232.353000C222.247000,243.208000,217.427000,253.408000,212.889000,263.842000C215.041000,264.965000,214.994000,267.538000,217.147000,268.661000C225.709000,257.104000,236.283000,244.378000,243.769000,231.979000C241.524000,225.382000,239.605000,217.427000,237.032000,211.298000Z" fill="rgb(214,112,134)" stroke="none" stroke-width="1"/><path id="ejzl8oyh07p87" d="M218.411000,131.383000C217.709000,130.868000,216.914000,130.447000,216.025000,130.120000C214.481000,129.558000,212.797000,129.512000,211.112000,129.558000C207.322000,129.699000,203.252000,130.260000,200.444000,132.834000C195.204000,137.700000,195.765000,148.648000,194.783000,155.432000C194.034000,160.720000,193.239000,165.960000,192.490000,171.247000L190.385000,196.607000L219.955000,197.074000L229.687000,195.530000L227.161000,168.908000C226.599000,163.106000,225.757000,157.257000,225.008000,151.455000C224.307000,145.139000,224.166000,135.547000,218.411000,131.383000Z" fill="rgb(71,78,187)" stroke="none" stroke-width="1"/><path id="ejzl8oyh07p88" d="M214.716000,109.579000C213.265000,108.082000,211.160000,107.240000,209.101000,107.287000C201.849000,107.380000,201.287000,114.399000,202.644000,119.826000C203.253000,122.212000,204.422000,124.598000,206.434000,126.049000C206.996000,126.423000,207.604000,126.751000,208.259000,126.985000C207.978000,127.967000,208.165000,129.277000,208.119000,130.307000C208.072000,130.915000,207.885000,131.476000,208.306000,131.944000C208.820000,132.553000,209.897000,132.646000,210.645000,132.646000C211.207000,132.646000,211.815000,132.553000,212.330000,132.225000C213.125000,131.710000,212.938000,130.962000,212.891000,130.166000C212.844000,129.043000,212.985000,127.874000,212.891000,126.751000C213.078000,126.657000,213.312000,126.517000,213.499000,126.376000C215.418000,124.973000,216.073000,122.399000,216.447000,120.060000C216.821000,116.972000,217.102000,111.966000,214.716000,109.579000Z" fill="rgb(234,197,176)" stroke="none" stroke-width="1"/><path id="ejzl8oyh07p89" d="M215.230000,116.317000C215.464000,116.597000,215.838000,116.644000,216.119000,116.878000C217.055000,117.627000,216.166000,119.264000,216.727000,120.294000C217.476000,121.651000,217.335000,123.990000,215.932000,125.113000C215.464000,125.487000,214.809000,125.768000,214.622000,126.329000C214.388000,126.984000,214.856000,127.873000,214.388000,128.388000C215.136000,129.184000,216.446000,128.996000,217.476000,128.575000C218.505000,128.154000,219.488000,127.546000,220.564000,127.593000C220.891000,127.593000,221.312000,127.640000,221.546000,127.406000C221.687000,127.265000,221.687000,127.031000,221.687000,126.797000C221.921000,124.271000,224.915000,124.926000,225.289000,122.914000C225.383000,122.352000,224.728000,121.042000,224.728000,120.294000C224.728000,119.171000,225.383000,118.141000,225.009000,116.972000C224.868000,116.504000,224.541000,116.083000,224.354000,115.615000C224.026000,114.632000,224.354000,113.556000,224.588000,112.574000C224.775000,111.544000,224.775000,110.328000,223.933000,109.719000C223.278000,109.252000,222.342000,109.298000,221.687000,108.784000C220.283000,107.708000,221.312000,104.807000,219.722000,104.011000C218.879000,103.590000,217.897000,104.058000,217.008000,103.918000C216.025000,103.777000,215.323000,103.029000,214.528000,102.467000C213.733000,101.906000,212.516000,101.625000,211.861000,102.327000C211.300000,102.935000,211.440000,103.918000,210.972000,104.573000C210.551000,105.134000,209.756000,105.228000,209.147000,105.555000C206.153000,106.959000,211.768000,107.895000,212.563000,108.877000C213.265000,109.719000,213.967000,111.263000,214.435000,112.199000C214.996000,113.275000,214.622000,115.568000,215.230000,116.317000Z" fill="rgb(59,69,90)" stroke="none" stroke-width="1"/><path id="ejzl8oyh07p90" d="M206.527000,109.252000C202.877000,110.048000,205.076000,112.715000,203.907000,114.960000C203.439000,115.849000,202.176000,116.177000,201.942000,117.113000C201.754000,117.861000,202.316000,118.610000,202.737000,119.265000C203.205000,119.920000,203.532000,120.856000,202.971000,121.464000C202.831000,121.651000,202.597000,121.745000,202.456000,121.979000C202.176000,122.540000,202.831000,123.102000,203.392000,123.336000C203.954000,123.569000,204.655000,124.084000,204.421000,124.646000C203.766000,126.330000,203.345000,125.628000,204.421000,127.079000C204.702000,127.406000,205.123000,127.359000,205.404000,127.734000C204.936000,128.248000,204.234000,128.435000,203.532000,128.155000C201.848000,127.500000,202.316000,128.342000,200.959000,128.529000C199.555000,128.763000,199.509000,128.342000,198.292000,127.547000C197.169000,126.845000,194.783000,126.330000,194.362000,124.833000C194.128000,123.991000,194.783000,123.148000,194.596000,122.353000C194.409000,121.558000,193.566000,120.996000,193.145000,120.247000C192.350000,118.750000,193.566000,117.159000,193.800000,115.569000C194.128000,113.370000,192.865000,110.656000,195.157000,109.252000C195.672000,108.971000,196.280000,108.784000,196.795000,108.504000C198.292000,107.661000,198.573000,106.117000,199.181000,104.807000C199.789000,103.497000,201.287000,102.047000,203.111000,102.374000C204.796000,102.655000,205.685000,104.246000,207.369000,104.386000C207.977000,104.433000,208.632000,104.339000,209.147000,104.526000C209.568000,104.714000,209.802000,105.041000,209.942000,105.369000C210.364000,106.117000,211.533000,108.644000,210.644000,109.299000C209.662000,110.141000,208.071000,108.925000,206.527000,109.252000Z" fill="rgb(59,69,90)" stroke="none" stroke-width="1"/><path id="ejzl8oyh07p91" d="M220.378000,117.814000C220.565000,117.534000,220.752000,117.253000,220.752000,116.925000C220.799000,116.411000,220.565000,116.036000,220.144000,115.802000C219.910000,115.662000,219.629000,115.568000,219.348000,115.475000C218.787000,115.241000,218.319000,114.960000,218.600000,114.165000C218.647000,114.024000,218.740000,113.884000,218.787000,113.790000C218.974000,113.323000,219.021000,112.761000,218.881000,112.246000C218.740000,111.872000,218.506000,111.545000,218.085000,111.404000C217.758000,111.311000,217.477000,111.404000,217.149000,111.404000C215.933000,111.311000,216.401000,110.234000,216.494000,109.533000C216.635000,108.316000,215.793000,107.334000,214.623000,107.146000C214.436000,107.100000,214.436000,107.427000,214.623000,107.427000C215.231000,107.521000,215.746000,107.848000,216.026000,108.363000C216.307000,108.878000,216.214000,109.439000,216.120000,110.001000C216.026000,110.468000,216.026000,111.077000,216.401000,111.404000C217.056000,111.966000,217.945000,111.217000,218.506000,112.012000C219.021000,112.808000,218.459000,113.463000,218.226000,114.165000C217.664000,115.989000,221.407000,115.428000,220.237000,117.393000C219.957000,117.908000,219.395000,118.422000,219.489000,119.078000C219.536000,119.545000,219.910000,119.920000,220.425000,119.873000C220.612000,119.873000,220.612000,119.545000,220.425000,119.592000C219.629000,119.686000,219.816000,118.703000,220.003000,118.329000C220.097000,118.189000,220.237000,118.001000,220.378000,117.814000Z" fill="rgb(198,156,109)" stroke="none" stroke-width="1"/><path id="ejzl8oyh07p92" d="M203.907000,108.456000C202.878000,108.316000,201.287000,108.363000,201.147000,109.673000C201.053000,110.374000,201.474000,110.983000,201.615000,111.638000C201.849000,112.948000,200.492000,113.229000,199.556000,113.650000C198.573000,114.071000,197.684000,115.240000,198.761000,116.083000C198.901000,116.176000,198.995000,116.270000,199.135000,116.363000C199.041000,116.644000,198.995000,116.972000,198.901000,117.252000C198.807000,117.346000,198.527000,117.440000,198.433000,117.580000C198.293000,117.720000,198.106000,117.861000,198.106000,118.095000C198.059000,118.469000,198.293000,118.750000,198.667000,118.796000C198.854000,118.796000,198.854000,118.516000,198.667000,118.516000C198.714000,118.282000,198.714000,118.001000,198.761000,117.767000C198.854000,117.720000,198.901000,117.673000,198.995000,117.627000C199.088000,117.580000,199.182000,117.533000,199.228000,117.440000C199.369000,117.346000,199.462000,117.206000,199.509000,117.065000C199.650000,116.738000,199.556000,116.457000,199.322000,116.176000C199.088000,115.942000,198.807000,115.849000,198.667000,115.521000C198.386000,114.960000,198.807000,114.445000,199.322000,114.118000C199.884000,113.790000,200.539000,113.696000,201.053000,113.369000C201.942000,112.854000,202.036000,112.059000,201.755000,111.123000C201.521000,110.421000,201.147000,109.485000,201.895000,108.971000C202.457000,108.596000,203.252000,108.643000,203.907000,108.737000C204.094000,108.784000,204.094000,108.503000,203.907000,108.456000Z" fill="rgb(198,156,109)" stroke="none" stroke-width="1"/><path id="ejzl8oyh07p93" d="M197.121000,113.697000C197.308000,113.650000,197.215000,113.369000,197.028000,113.416000C196.232000,113.650000,195.203000,114.071000,195.250000,115.054000C195.250000,115.334000,195.390000,115.568000,195.577000,115.755000C195.905000,116.036000,196.326000,116.036000,196.606000,116.364000C197.168000,117.065000,196.466000,117.908000,195.624000,117.674000C195.437000,117.627000,195.343000,117.908000,195.530000,117.954000C196.326000,118.188000,197.215000,117.627000,197.121000,116.738000C197.074000,116.223000,196.747000,115.989000,196.373000,115.802000C195.811000,115.475000,195.296000,115.007000,195.858000,114.352000C196.139000,113.977000,196.653000,113.837000,197.121000,113.697000Z" fill="rgb(198,156,109)" stroke="none" stroke-width="1"/><path id="ejzl8oyh07p94" d="M233.850000,103.543000C233.476000,102.420000,232.914000,101.297000,231.979000,100.502000C231.324000,99.940500,229.218000,98.396500,228.423000,99.566200C228.376000,99.613000,228.376000,99.706600,228.376000,99.800100C228.329000,100.502000,228.329000,101.718000,228.750000,102.327000C229.125000,102.888000,229.733000,102.701000,230.247000,103.169000C230.575000,103.496000,230.669000,104.151000,230.294000,104.385000C230.060000,104.526000,229.780000,104.479000,229.546000,104.573000C229.312000,104.619000,229.031000,104.807000,229.078000,105.087000C229.125000,105.228000,229.218000,105.321000,229.312000,105.415000C229.826000,105.836000,230.341000,106.210000,230.809000,106.631000C231.558000,107.193000,232.353000,107.988000,232.213000,108.924000C233.055000,108.971000,233.897000,108.924000,234.692000,108.784000C234.458000,107.006000,234.365000,105.134000,233.850000,103.543000Z" fill="rgb(234,197,176)" stroke="none" stroke-width="1"/><path id="ejzl8oyh07p95" d="M217.428000,142.940000C217.100000,141.957000,216.773000,140.928000,216.492000,139.898000C216.305000,139.290000,214.387000,130.026000,215.931000,130.353000C219.346000,131.055000,222.809000,131.196000,226.224000,130.868000C226.739000,130.821000,231.932000,130.447000,231.932000,129.979000C231.886000,124.786000,231.698000,119.639000,231.371000,114.445000C231.184000,111.872000,230.763000,109.205000,230.763000,106.678000C230.763000,105.555000,230.763000,105.789000,231.652000,105.321000C232.400000,104.947000,233.617000,104.713000,234.272000,105.321000C234.880000,105.883000,235.067000,106.725000,235.254000,107.567000C236.611000,114.071000,238.951000,120.247000,240.869000,126.610000C242.132000,130.775000,244.425000,136.483000,241.758000,140.600000C240.869000,141.910000,239.465000,142.799000,238.062000,143.595000C233.430000,146.215000,228.657000,148.554000,223.744000,150.613000C223.136000,150.847000,222.528000,151.128000,221.920000,150.987000C221.031000,150.800000,220.469000,149.911000,220.048000,149.069000C218.972000,146.963000,218.130000,144.998000,217.428000,142.940000Z" fill="rgb(71,78,187)" stroke="none" stroke-width="1"/><path id="ejzl8oyh07p96" d="M184.393000,105.274000C184.767000,104.151000,185.329000,103.028000,186.265000,102.233000C186.920000,101.671000,189.025000,100.127000,189.820000,101.297000C189.867000,101.344000,189.867000,101.438000,189.867000,101.531000C189.914000,102.233000,189.914000,103.449000,189.493000,104.058000C189.119000,104.619000,188.510000,104.432000,187.996000,104.900000C187.668000,105.227000,187.575000,105.882000,187.949000,106.116000C188.183000,106.257000,188.464000,106.210000,188.698000,106.304000C188.931000,106.350000,189.212000,106.537000,189.165000,106.818000C189.119000,106.959000,189.025000,107.052000,188.931000,107.146000C188.417000,107.567000,187.902000,107.941000,187.434000,108.362000C186.686000,108.924000,185.890000,109.719000,186.031000,110.655000C185.188000,110.702000,184.346000,110.655000,183.551000,110.515000C183.785000,108.737000,183.925000,106.865000,184.393000,105.274000Z" fill="rgb(234,197,176)" stroke="none" stroke-width="1"/><path id="ejzl8oyh07p97" d="M202.220000,144.905000C202.688000,142.097000,203.062000,139.524000,203.062000,139.056000C203.062000,137.699000,203.250000,132.927000,201.940000,132.178000C200.910000,131.617000,196.652000,133.161000,195.155000,133.020000C193.377000,132.833000,191.786000,131.710000,190.710000,130.307000C189.587000,128.903000,188.932000,127.218000,188.324000,125.534000C187.388000,122.820000,186.219000,119.826000,186.499000,116.925000C186.733000,114.071000,187.575000,111.310000,187.575000,108.409000C187.575000,107.287000,187.575000,107.520000,186.686000,107.053000C185.938000,106.678000,184.721000,106.444000,184.066000,107.053000C182.335000,108.643000,182.101000,112.153000,181.586000,114.258000C180.744000,117.627000,179.902000,120.996000,179.060000,124.411000C178.545000,126.517000,177.984000,128.669000,178.311000,130.821000C178.592000,133.020000,179.715000,134.985000,180.978000,136.810000C185.704000,143.782000,192.348000,149.490000,199.974000,153.093000C200.489000,153.467000,201.518000,148.928000,202.220000,144.905000Z" fill="rgb(71,78,187)" stroke="none" stroke-width="1"/><path id="ejzl8oyh07p98" d="M198.084000,129.793000L198.084000,136.349000C198.084000,138.496000,199.767000,140.178000,201.855000,140.178000L218.681000,140.178000C220.770000,140.178000,222.453000,138.438000,222.453000,136.349000L222.453000,129.793000L198.084000,129.793000Z" fill="rgb(59,69,90)" stroke="none" stroke-width="1"/><path id="ejzl8oyh07p99" d="M251.116000,41.775200C251.116000,18.740800,232.839000,0,210.269000,0C187.699000,0,169.422000,18.682800,169.422000,41.775200C169.422000,49.956100,171.743000,57.614900,175.746000,64.055200C187.118000,83.550300,189.729000,99.854300,189.729000,99.854300L210.269000,99.854300L230.808000,99.854300C230.808000,99.854300,233.419000,83.550300,244.791000,64.055200C248.795000,57.614900,251.116000,50.014200,251.116000,41.775200Z" fill="rgb(247,248,249)" stroke="none" stroke-width="1"/><path id="ejzl8oyh07p100" d="M189.266000,99.854100L189.266000,127.704000C189.266000,128.865000,190.194000,129.793000,191.296000,129.793000L229.358000,129.793000C230.461000,129.793000,231.389000,128.865000,231.389000,127.704000L231.389000,99.854100L189.266000,99.854100Z" fill="rgb(158,166,173)" stroke="none" stroke-width="1"/><path id="ejzl8oyh07p101" d="M250.420000,34.000700C240.035000,54.714200,219.901000,86.741900,189.730000,99.738600C189.730000,99.796600,189.730000,99.854600,189.730000,99.854600L210.270000,99.854600L230.809000,99.854600C230.809000,99.854600,233.420000,83.550700,244.792000,64.055600C248.796000,57.615300,251.117000,49.956500,251.117000,41.775500C251.117000,39.106600,250.885000,36.495600,250.420000,34.000700Z" opacity="0.2" fill="rgb(121,159,226)" stroke="none" stroke-width="1"/><path id="ejzl8oyh07p102" d="M176.094000,45.256300C176.094000,25.123000,192.050000,8.819040,211.777000,8.819040C223.265000,8.819040,233.535000,14.389100,240.033000,23.034200C233.883000,12.126200,222.337000,4.757570,209.108000,4.757570C189.439000,4.757570,173.425000,21.061500,173.425000,41.194800C173.425000,49.549800,176.210000,57.266600,180.793000,63.416900C177.834000,58.078900,176.094000,51.870700,176.094000,45.256300Z" fill="rgb(214,225,242)" stroke="none" stroke-width="1"/><path id="ejzl8oyh07p103" d="M202.321000,99.854300L197.389000,46.416900L204.293000,52.277000L210.270000,42.529500L216.420000,51.986900L223.150000,46.358900L218.218000,99.854300L220.307000,99.854300L225.761000,41.485100L216.884000,48.795800L210.270000,38.584000L203.771000,49.085900L194.836000,41.427100L200.232000,99.854300L202.321000,99.854300Z" fill="rgb(88,123,201)" stroke="none" stroke-width="1"/><path id="ejzl8oyh07p104" d="M199.709000,94.515900L200.231000,99.853900L202.320000,99.853900L201.682000,93.297500C201.043000,93.703600,200.405000,94.109800,199.709000,94.515900Z" fill="rgb(237,236,237)" stroke="none" stroke-width="1"/><path id="ejzl8oyh07p105" d="M220.248000,77.805800L218.217000,99.853800L220.306000,99.853800L222.568000,75.368900C221.814000,76.181200,221.060000,76.993500,220.248000,77.805800Z" fill="rgb(237,236,237)" stroke="none" stroke-width="1"/><path id="ejzl8oyh07p106" d="M231.333000,106.759000L189.268000,106.759000L189.268000,111.923000L231.333000,111.923000L231.333000,106.759000Z" fill="rgb(59,69,90)" stroke="none" stroke-width="1"/><path id="ejzl8oyh07p107" d="M231.331000,117.725000L189.266000,117.725000L189.266000,122.889000L231.331000,122.889000L231.331000,117.725000Z" fill="rgb(59,69,90)" stroke="none" stroke-width="1"/><path id="ejzl8oyh07p108" d="M230.635000,99.854100C228.721000,102.349000,226.748000,104.670000,224.775000,106.759000C223.034000,108.615000,221.294000,110.356000,219.553000,111.922000C217.116000,114.127000,214.679000,116.100000,212.301000,117.783000C209.400000,119.813000,206.556000,121.554000,203.829000,122.946000C198.259000,125.790000,193.270000,127.414000,189.324000,128.284000C189.556000,129.213000,190.311000,129.851000,191.239000,129.851000L229.301000,129.851000C230.403000,129.851000,231.331000,128.923000,231.331000,127.762000L231.331000,122.946000L231.331000,117.783000L231.331000,111.922000L231.331000,106.759000L231.331000,99.854100L230.635000,99.854100Z" opacity="0.11" fill="rgb(0,0,0)" stroke="none" stroke-width="1"/></g><script><![CDATA[!function(t,n){"object"==typeof exports&&"undefined"!=typeof module?module.exports=n():"function"==typeof define&&define.amd?define(n):(t=t||self).__SVGATOR_PLAYER__=n()}(this,(function(){"use strict";function t(n){return(t="function"==typeof Symbol&&"symbol"==typeof Symbol.iterator?function(t){return typeof t}:function(t){return t&&"function"==typeof Symbol&&t.constructor===Symbol&&t!==Symbol.prototype?"symbol":typeof t})(n)}function n(t,n){if(!(t instanceof n))throw new TypeError("Cannot call a class as a function")}function r(t,n){for(var r=0;r<n.length;r++){var e=n[r];e.enumerable=e.enumerable||!1,e.configurable=!0,"value"in e&&(e.writable=!0),Object.defineProperty(t,e.key,e)}}function e(t,n,e){return n&&r(t.prototype,n),e&&r(t,e),t}function i(t){return(i=Object.setPrototypeOf?Object.getPrototypeOf:function(t){return t.__proto__||Object.getPrototypeOf(t)})(t)}function o(t,n){return(o=Object.setPrototypeOf||function(t,n){return t.__proto__=n,t})(t,n)}function u(t,n){return!n||"object"!=typeof n&&"function"!=typeof n?function(t){if(void 0===t)throw new ReferenceError("this hasn't been initialised - super() hasn't been called");return t}(t):n}function a(t){var n=function(){if("undefined"==typeof Reflect||!Reflect.construct)return!1;if(Reflect.construct.sham)return!1;if("function"==typeof Proxy)return!0;try{return Date.prototype.toString.call(Reflect.construct(Date,[],(function(){}))),!0}catch(t){return!1}}();return function(){var r,e=i(t);if(n){var o=i(this).constructor;r=Reflect.construct(e,arguments,o)}else r=e.apply(this,arguments);return u(this,r)}}function l(t,n,r){return(l="undefined"!=typeof Reflect&&Reflect.get?Reflect.get:function(t,n,r){var e=function(t,n){for(;!Object.prototype.hasOwnProperty.call(t,n)&&null!==(t=i(t)););return t}(t,n);if(e){var o=Object.getOwnPropertyDescriptor(e,n);return o.get?o.get.call(r):o.value}})(t,n,r||t)}var f=Math.abs;function s(t){return t}function c(t,n,r){var e=1-r;return 3*r*e*(t*e+n*r)+r*r*r}function h(){var t=arguments.length>0&&void 0!==arguments[0]?arguments[0]:0,n=arguments.length>1&&void 0!==arguments[1]?arguments[1]:0,r=arguments.length>2&&void 0!==arguments[2]?arguments[2]:1,e=arguments.length>3&&void 0!==arguments[3]?arguments[3]:1;return t<0||t>1||r<0||r>1?null:f(t-n)<=1e-5&&f(r-e)<=1e-5?s:function(i){if(i<=0)return t>0?i*n/t:0===n&&r>0?i*e/r:0;if(i>=1)return r<1?1+(i-1)*(e-1)/(r-1):1===r&&t<1?1+(i-1)*(n-1)/(t-1):1;for(var o,u=0,a=1;u<a;){var l=c(t,r,o=(u+a)/2);if(f(i-l)<1e-5)break;l<i?u=o:a=o}return c(n,e,o)}}function v(){return 1}function y(t){return 1===t?1:0}function d(){var t=arguments.length>0&&void 0!==arguments[0]?arguments[0]:1,n=arguments.length>1&&void 0!==arguments[1]?arguments[1]:0;if(1===t){if(0===n)return y;if(1===n)return v}var r=1/t;return function(t){return t>=1?1:(t+=n*r)-t%r}}function g(t){var n=arguments.length>1&&void 0!==arguments[1]?arguments[1]:2;if(Number.isInteger(t))return t;var r=Math.pow(10,n);return Math.round(t*r)/r}var p=Math.PI/180;function m(t,n,r){return t>=.5?r:n}function b(t,n,r){return 0===t||n===r?n:t*(r-n)+n}function w(t,n,r){var e=b(t,n,r);return e<=0?0:e}function k(t,n,r){return 0===t?n:1===t?r:{x:b(t,n.x,r.x),y:b(t,n.y,r.y)}}function x(t,n,r){var e=function(t,n,r){return Math.round(b(t,n,r))}(t,n,r);return e<=0?0:e>=255?255:e}function A(t,n,r){return 0===t?n:1===t?r:{r:x(t,n.r,r.r),g:x(t,n.g,r.g),b:x(t,n.b,r.b),a:b(t,null==n.a?1:n.a,null==r.a?1:r.a)}}function _(t,n,r){if(0===t)return n;if(1===t)return r;var e=n.length;if(e!==r.length)return m(t,n,r);for(var i=[],o=0;o<e;o++)i.push(A(t,n[o],r[o]));return i}function S(t,n){for(var r=[],e=0;e<t;e++)r.push(n);return r}function O(t,n){if(--n<=0)return t;var r=(t=Object.assign([],t)).length;do{for(var e=0;e<r;e++)t.push(t[e])}while(--n>0);return t}var M,j=function(){function t(r){n(this,t),this.list=r,this.length=r.length}return e(t,[{key:"setAttribute",value:function(t,n){for(var r=this.list,e=0;e<this.length;e++)r[e].setAttribute(t,n)}},{key:"removeAttribute",value:function(t){for(var n=this.list,r=0;r<this.length;r++)n[r].removeAttribute(t)}},{key:"style",value:function(t,n){for(var r=this.list,e=0;e<this.length;e++)r[e].style[t]=n}}]),t}(),F=/-./g,P=function(t,n){return n.toUpperCase()};function q(t){return"function"==typeof t?t:m}function B(t){return t?"function"==typeof t?t:Array.isArray(t)?function(t){var n=arguments.length>1&&void 0!==arguments[1]?arguments[1]:s;if(!Array.isArray(t))return n;switch(t.length){case 1:return d(t[0])||n;case 2:return d(t[0],t[1])||n;case 4:return h(t[0],t[1],t[2],t[3])||n}return n}(t,null):function(t,n){var r=arguments.length>2&&void 0!==arguments[2]?arguments[2]:s;switch(t){case"linear":return s;case"steps":return d(n.steps||1,n.jump||0)||r;case"bezier":case"cubic-bezier":return h(n.x1||0,n.y1||0,n.x2||0,n.y2||0)||r}return r}(t.type,t.value,null):null}function I(t,n,r){var e=arguments.length>3&&void 0!==arguments[3]&&arguments[3],i=n.length-1;if(t<=n[0].t)return e?[0,0,n[0].v]:n[0].v;if(t>=n[i].t)return e?[i,1,n[i].v]:n[i].v;var o,u=n[0],a=null;for(o=1;o<=i;o++){if(!(t>n[o].t)){a=n[o];break}u=n[o]}return null==a?e?[i,1,n[i].v]:n[i].v:u.t===a.t?e?[o,1,a.v]:a.v:(t=(t-u.t)/(a.t-u.t),u.e&&(t=u.e(t)),e?[o,t,r(t,u.v,a.v)]:r(t,u.v,a.v))}function R(t,n){var r=arguments.length>2&&void 0!==arguments[2]?arguments[2]:null;return t&&t.length?"function"!=typeof n?null:("function"!=typeof r&&(r=null),function(e){var i=I(e,t,n);return null!=i&&r&&(i=r(i)),i}):null}function E(t,n){return t.t-n.t}function T(n,r,e,i,o){var u,a="@"===e[0],l="#"===e[0],f=M[e],s=m;switch(a?(u=e.substr(1),e=u.replace(F,P)):l&&(e=e.substr(1)),t(f)){case"function":if(s=f(i,o,I,B,e,a,r,n),l)return s;break;case"string":s=R(i,q(f));break;case"object":if((s=R(i,q(f.i),f.f))&&"function"==typeof f.u)return f.u(r,s,e,a,n)}return s?function(t,n,r){var e=arguments.length>3&&void 0!==arguments[3]&&arguments[3];if(e)return t instanceof j?function(e){return t.style(n,r(e))}:function(e){return t.style[n]=r(e)};if(Array.isArray(n)){var i=n.length;return function(e){var o=r(e);if(null==o)for(var u=0;u<i;u++)t[u].removeAttribute(n);else for(var a=0;a<i;a++)t[a].setAttribute(n,o)}}return function(e){var i=r(e);null==i?t.removeAttribute(n):t.setAttribute(n,i)}}(r,e,s,a):null}function z(n,r,e,i){if(!i||"object"!==t(i))return null;var o=null,u=null;return Array.isArray(i)?u=function(t){if(!t||!t.length)return null;for(var n=0;n<t.length;n++)t[n].e&&(t[n].e=B(t[n].e));return t.sort(E)}(i):(u=i.keys,o=i.data||null),u?T(n,r,e,u,o):null}function C(t,n,r){if(!r)return null;var e=[];for(var i in r)if(r.hasOwnProperty(i)){var o=z(t,n,i,r[i]);o&&e.push(o)}return e.length?e:null}function D(t,n){if(!n.duration||n.duration<0)return null;var r=function(t,n){if(!n)return null;var r=[];if(Array.isArray(n))for(var e=n.length,i=0;i<e;i++){var o=n[i];if(2===o.length){var u=null;if("string"==typeof o[0])u=t.getElementById(o[0]);else if(Array.isArray(o[0])){u=[];for(var a=0;a<o[0].length;a++)if("string"==typeof o[0][a]){var l=t.getElementById(o[0][a]);l&&u.push(l)}u=u.length?1===u.length?u[0]:new j(u):null}if(u){var f=C(t,u,o[1]);f&&(r=r.concat(f))}}}else for(var s in n)if(n.hasOwnProperty(s)){var c=t.getElementById(s);if(c){var h=C(t,c,n[s]);h&&(r=r.concat(h))}}return r.length?r:null}(t,n.elements);return r?function(t,n){var r=arguments.length>2&&void 0!==arguments[2]?arguments[2]:1/0,e=arguments.length>3&&void 0!==arguments[3]?arguments[3]:1,i=arguments.length>4&&void 0!==arguments[4]&&arguments[4],o=arguments.length>5&&void 0!==arguments[5]?arguments[5]:1,u=t.length,a=e>0?n:0;i&&r%2==0&&(a=n-a);var l=null;return function(f,s){var c=f%n,h=1+(f-c)/n;s*=e,i&&h%2==0&&(s=-s);var v=!1;if(h>r)c=a,v=!0,-1===o&&(c=e>0?0:n);else if(s<0&&(c=n-c),c===l)return!1;l=c;for(var y=0;y<u;y++)t[y](c);return v}}(r,n.duration,n.iterations||1/0,n.direction||1,!!n.alternate,n.fill||1):null}function N(t,n){if(M=n,!t||!t.root||!Array.isArray(t.animations))return null;for(var r=document.getElementsByTagName("svg"),e=!1,i=0;i<r.length;i++)if(r[i].id===t.root&&!r[i].svgatorAnimation){(e=r[i]).svgatorAnimation=!0;break}if(!e)return null;var o=t.animations.map((function(t){return D(e,t)})).filter((function(t){return!!t}));return o.length?{element:e,animations:o,animationSettings:t.animationSettings,options:t.options||void 0}:null}var L=function(){function t(r,e){var i=arguments.length>2&&void 0!==arguments[2]?arguments[2]:{};n(this,t),this._id=0,this._running=!1,this._rollingBack=!1,this._animations=r,this.duration=e.duration,this.alternate=e.alternate,this.fill=e.fill,this.iterations=e.iterations,this.direction=i.direction||1,this.speed=i.speed||1,this.fps=i.fps||100,this.offset=i.offset||0,this.rollbackStartOffset=0}return e(t,[{key:"_rollback",value:function(){var t=this,n=1/0,r=null;this.rollbackStartOffset=this.offset,this._rollingBack||(this._rollingBack=!0,this._running=!0);this._id=window.requestAnimationFrame((function e(i){if(t._rollingBack){null==r&&(r=i);var o=i-r,u=t.rollbackStartOffset-o,a=Math.round(u*t.speed);if(a>t.duration&&n!=1/0){var l=!!t.alternate&&a/t.duration%2>1,f=a%t.duration;a=(f+=l?t.duration:0)||t.duration}var s=t.fps?1e3/t.fps:0,c=Math.max(0,a);if(c<n-s){t.offset=c,n=c;for(var h=t._animations,v=h.length,y=0;y<v;y++)h[y](c,t.direction)}var d=!1;if(t.iterations>0&&-1===t.fill){var g=t.iterations*t.duration,p=g==a;a=p?0:a,t.offset=p?0:t.offset,d=a>g}a>0&&t.offset>=a&&!d?t._id=window.requestAnimationFrame(e):t.stop()}}))}},{key:"_start",value:function(){var t=this,n=arguments.length>0&&void 0!==arguments[0]?arguments[0]:0,r=-1/0,e=null,i={},o=function o(u){t._running=!0,null==e&&(e=u);var a=Math.round((u-e+n)*t.speed),l=t.fps?1e3/t.fps:0;if(a>r+l&&!t._rollingBack){t.offset=a,r=a;for(var f=t._animations,s=f.length,c=0,h=0;h<s;h++)i[h]?c++:(i[h]=f[h](a,t.direction),i[h]&&c++);if(c===s)return void t._stop()}t._id=window.requestAnimationFrame(o)};this._id=window.requestAnimationFrame(o)}},{key:"_stop",value:function(){this._id&&window.cancelAnimationFrame(this._id),this._running=!1,this._rollingBack=!1}},{key:"play",value:function(){!this._rollingBack&&this._running||(this._rollingBack=!1,this.rollbackStartOffset>this.duration&&(this.offset=this.rollbackStartOffset-(this.rollbackStartOffset-this.offset)%this.duration,this.rollbackStartOffset=0),this._start(this.offset))}},{key:"stop",value:function(){this._stop(),this.offset=0,this.rollbackStartOffset=0;var t=this.direction,n=this._animations;window.requestAnimationFrame((function(){for(var r=0;r<n.length;r++)n[r](0,t)}))}},{key:"reachedToEnd",value:function(){return this.iterations>0&&this.offset>=this.iterations*this.duration}},{key:"restart",value:function(){this._stop(),this.offset=0,this._start()}},{key:"pause",value:function(){this._stop()}},{key:"reverse",value:function(){this.direction=-this.direction}}],[{key:"build",value:function(n,r){return(n=N(n,r))?{el:n.element,options:n.options||{},player:new t(n.animations,n.animationSettings,n.options)}:null}}]),t}();!function(){for(var t=0,n=["ms","moz","webkit","o"],r=0;r<n.length&&!window.requestAnimationFrame;++r)window.requestAnimationFrame=window[n[r]+"RequestAnimationFrame"],window.cancelAnimationFrame=window[n[r]+"CancelAnimationFrame"]||window[n[r]+"CancelRequestAnimationFrame"];window.requestAnimationFrame||(window.requestAnimationFrame=function(n){var r=Date.now(),e=Math.max(0,16-(r-t)),i=window.setTimeout((function(){n(r+e)}),e);return t=r+e,i},window.cancelAnimationFrame=window.clearTimeout)}();var V=/\.0+$/g;function $(t){return Number.isInteger(t)?t+"":t.toFixed(6).replace(V,"")}function G(t){var n=arguments.length>1&&void 0!==arguments[1]?arguments[1]:" ";return t&&t.length?t.map($).join(n):""}function H(t){return t?null==t.a||t.a>=1?"rgb("+t.r+","+t.g+","+t.b+")":"rgba("+t.r+","+t.g+","+t.b+","+t.a+")":"transparent"}var Q={f:null,i:function(t,n,r){return 0===t?n:1===t?r:{x:w(t,n.x,r.x),y:w(t,n.y,r.y)}},u:function(t,n){return function(r){var e=n(r);t.setAttribute("rx",$(e.x)),t.setAttribute("ry",$(e.y))}}},U={f:null,i:function(t,n,r){return 0===t?n:1===t?r:{width:w(t,n.width,r.width),height:w(t,n.height,r.height)}},u:function(t,n){return function(r){var e=n(r);t.setAttribute("width",$(e.width)),t.setAttribute("height",$(e.height))}}},Y=Math.sin,Z=Math.cos,J=Math.acos,K=Math.asin,W=Math.tan,X=Math.atan2,tt=Math.PI/180,nt=180/Math.PI,rt=Math.sqrt,et=function(){function t(){var r=arguments.length>0&&void 0!==arguments[0]?arguments[0]:1,e=arguments.length>1&&void 0!==arguments[1]?arguments[1]:0,i=arguments.length>2&&void 0!==arguments[2]?arguments[2]:0,o=arguments.length>3&&void 0!==arguments[3]?arguments[3]:1,u=arguments.length>4&&void 0!==arguments[4]?arguments[4]:0,a=arguments.length>5&&void 0!==arguments[5]?arguments[5]:0;n(this,t),this.m=[r,e,i,o,u,a],this.i=null,this.w=null,this.s=null}return e(t,[{key:"point",value:function(t,n){var r=this.m;return{x:r[0]*t+r[2]*n+r[4],y:r[1]*t+r[3]*n+r[5]}}},{key:"translateSelf",value:function(){var t=arguments.length>0&&void 0!==arguments[0]?arguments[0]:0,n=arguments.length>1&&void 0!==arguments[1]?arguments[1]:0;if(!t&&!n)return this;var r=this.m;return r[4]+=r[0]*t+r[2]*n,r[5]+=r[1]*t+r[3]*n,this.w=this.s=this.i=null,this}},{key:"rotateSelf",value:function(){var t=arguments.length>0&&void 0!==arguments[0]?arguments[0]:0;if(t%=360){var n=Y(t*=tt),r=Z(t),e=this.m,i=e[0],o=e[1];e[0]=i*r+e[2]*n,e[1]=o*r+e[3]*n,e[2]=e[2]*r-i*n,e[3]=e[3]*r-o*n,this.w=this.s=this.i=null}return this}},{key:"scaleSelf",value:function(){var t=arguments.length>0&&void 0!==arguments[0]?arguments[0]:1,n=arguments.length>1&&void 0!==arguments[1]?arguments[1]:1;if(1!==t||1!==n){var r=this.m;r[0]*=t,r[1]*=t,r[2]*=n,r[3]*=n,this.w=this.s=this.i=null}return this}},{key:"skewSelf",value:function(t,n){if(n%=360,(t%=360)||n){var r=this.m,e=r[0],i=r[1],o=r[2],u=r[3];t&&(t=W(t*tt),r[2]+=e*t,r[3]+=i*t),n&&(n=W(n*tt),r[0]+=o*n,r[1]+=u*n),this.w=this.s=this.i=null}return this}},{key:"resetSelf",value:function(){var t=arguments.length>0&&void 0!==arguments[0]?arguments[0]:1,n=arguments.length>1&&void 0!==arguments[1]?arguments[1]:0,r=arguments.length>2&&void 0!==arguments[2]?arguments[2]:0,e=arguments.length>3&&void 0!==arguments[3]?arguments[3]:1,i=arguments.length>4&&void 0!==arguments[4]?arguments[4]:0,o=arguments.length>5&&void 0!==arguments[5]?arguments[5]:0,u=this.m;return u[0]=t,u[1]=n,u[2]=r,u[3]=e,u[4]=i,u[5]=o,this.w=this.s=this.i=null,this}},{key:"recomposeSelf",value:function(){var t=arguments.length>0&&void 0!==arguments[0]?arguments[0]:null,n=arguments.length>1&&void 0!==arguments[1]?arguments[1]:null,r=arguments.length>2&&void 0!==arguments[2]?arguments[2]:null,e=arguments.length>3&&void 0!==arguments[3]?arguments[3]:null,i=arguments.length>4&&void 0!==arguments[4]?arguments[4]:null;return this.isIdentity||this.resetSelf(),t&&(t.x||t.y)&&this.translateSelf(t.x,t.y),n&&this.rotateSelf(n),r&&(r.x&&this.skewSelf(r.x,0),r.y&&this.skewSelf(0,r.y)),!e||1===e.x&&1===e.y||this.scaleSelf(e.x,e.y),i&&(i.x||i.y)&&this.translateSelf(i.x,i.y),this}},{key:"decompose",value:function(){var t=arguments.length>0&&void 0!==arguments[0]?arguments[0]:0,n=arguments.length>1&&void 0!==arguments[1]?arguments[1]:0,r=this.m,e=r[0]*r[0]+r[1]*r[1],i=[[r[0],r[1]],[r[2],r[3]]],o=rt(e);if(0===o)return{origin:{x:r[4],y:r[5]},translate:{x:t,y:n},scale:{x:0,y:0},skew:{x:0,y:0},rotate:0};i[0][0]/=o,i[0][1]/=o;var u=r[0]*r[3]-r[1]*r[2]<0;u&&(o=-o);var a=i[0][0]*i[1][0]+i[0][1]*i[1][1];i[1][0]-=i[0][0]*a,i[1][1]-=i[0][1]*a;var l=rt(i[1][0]*i[1][0]+i[1][1]*i[1][1]);if(0===l)return{origin:{x:r[4],y:r[5]},translate:{x:t,y:n},scale:{x:o,y:0},skew:{x:0,y:0},rotate:0};i[1][0]/=l,i[1][1]/=l,a/=l;var f=0;return i[1][1]<0?(f=J(i[1][1])*nt,i[0][1]<0&&(f=360-f)):f=K(i[0][1])*nt,u&&(f=-f),a=X(a,rt(i[0][0]*i[0][0]+i[0][1]*i[0][1]))*nt,{origin:{x:r[4],y:r[5]},translate:{x:t,y:n},scale:{x:o,y:l},skew:{x:a,y:0},rotate:f}}},{key:"toString",value:function(){return null===this.s&&(this.s="matrix("+this.m.map(ot).join(" ")+")"),this.s}},{key:"determinant",get:function(){var t=this.m;return t[0]*t[3]-t[1]*t[2]}},{key:"isIdentity",get:function(){if(null===this.i){var t=this.m;this.i=1===t[0]&&0===t[1]&&0===t[2]&&1===t[3]&&0===t[4]&&0===t[5]}return this.i}}]),t}(),it=/\.0+$/;function ot(t){return Number.isInteger(t)?t:t.toFixed(14).replace(it,"")}Object.freeze({M:2,L:2,Z:0,H:1,V:1,C:6,Q:4,T:2,S:4,A:7});function ut(t,n,r){return t+(n-t)*r}function at(t,n,r){var e=arguments.length>3&&void 0!==arguments[3]&&arguments[3],i={x:ut(t.x,n.x,r),y:ut(t.y,n.y,r)};return e&&(i.a=lt(t,n)),i}function lt(t,n){return Math.atan2(n.y-t.y,n.x-t.x)}function ft(t,n,r,e){var i=1-e;return i*i*t+2*i*e*n+e*e*r}function st(t,n,r,e){return 2*(1-e)*(n-t)+2*e*(r-n)}function ct(t,n,r,e){var i=arguments.length>4&&void 0!==arguments[4]&&arguments[4],o={x:ft(t.x,n.x,r.x,e),y:ft(t.y,n.y,r.y,e)};return i&&(o.a=ht(t,n,r,e)),o}function ht(t,n,r,e){return Math.atan2(st(t.y,n.y,r.y,e),st(t.x,n.x,r.x,e))}function vt(t,n,r,e,i){var o=i*i;return i*o*(e-t+3*(n-r))+3*o*(t+r-2*n)+3*i*(n-t)+t}function yt(t,n,r,e,i){var o=1-i;return 3*(o*o*(n-t)+2*o*i*(r-n)+i*i*(e-r))}function dt(t,n,r,e,i){var o=arguments.length>5&&void 0!==arguments[5]&&arguments[5],u={x:vt(t.x,n.x,r.x,e.x,i),y:vt(t.y,n.y,r.y,e.y,i)};return o&&(u.a=gt(t,n,r,e,i)),u}function gt(t,n,r,e,i){return Math.atan2(yt(t.y,n.y,r.y,e.y,i),yt(t.x,n.x,r.x,e.x,i))}function pt(t,n,r){var e=arguments.length>3&&void 0!==arguments[3]&&arguments[3];if(bt(n)){if(wt(r))return ct(n,r.start,r,t,e)}else if(bt(r)){if(n.end)return ct(n,n.end,r,t,e)}else{if(n.end)return r.start?dt(n,n.end,r.start,r,t,e):ct(n,n.end,r,t,e);if(r.start)return ct(n,r.start,r,t,e)}return at(n,r,t,e)}function mt(t,n,r){var e=pt(t,n,r,!0);return e.a=function(t){var n=arguments.length>1&&void 0!==arguments[1]&&arguments[1];return n?t+Math.PI:t}(e.a)/p,e}function bt(t){return!t.type||"corner"===t.type}function wt(t){return null!=t.start&&!bt(t)}var kt=new et;var xt={f:$,i:b},At={f:$,i:function(t,n,r){var e=b(t,n,r);return e<=0?0:e>=1?1:e}};function _t(t,n,r,e,i,o,u,a){return n=function(t,n,r){for(var e,i,o,u=t.length-1,a={},l=0;l<=u;l++)(e=t[l]).e&&(e.e=n(e.e)),e.v&&"g"===(i=e.v).t&&i.r&&(o=r.getElementById(i.r))&&(a[i.r]=o.querySelectorAll("stop"));return a}(t,e,a),function(e){var i,o=r(e,t,St);return o?"c"===o.t?H(o.v):"g"===o.t?(n[o.r]&&function(t,n){for(var r=0,e=t.length;r<e;r++)t[r].setAttribute("stop-color",H(n[r]))}(n[o.r],o.v),(i=o.r)?"url(#"+i+")":"none"):"none":"none"}}function St(t,n,r){if(0===t)return n;if(1===t)return r;if(n&&r){var e=n.t;if(e===r.t)switch(n.t){case"c":return{t:e,v:A(t,n.v,r.v)};case"g":if(n.r===r.r)return{t:e,v:_(t,n.v,r.v),r:n.r}}}return m(t,n,r)}var Ot={fill:_t,"fill-opacity":At,stroke:_t,"stroke-opacity":At,"stroke-width":xt,"stroke-dashoffset":{f:$,i:b},"stroke-dasharray":{f:function(t){var n=arguments.length>1&&void 0!==arguments[1]?arguments[1]:" ";return t&&t.length>0&&(t=t.map((function(t){return Math.floor(1e4*t)/1e4}))),G(t,n)},i:function(t,n,r){var e,i,o,u=n.length,a=r.length;if(u!==a)if(0===u)n=S(u=a,0);else if(0===a)a=u,r=S(u,0);else{var l=(o=(e=u)*(i=a)/function(t,n){for(var r;n;)r=n,n=t%n,t=r;return t||1}(e,i))<0?-o:o;n=O(n,Math.floor(l/u)),r=O(r,Math.floor(l/a)),u=a=l}for(var f=[],s=0;s<u;s++)f.push(g(w(t,n[s],r[s]),6));return f}},opacity:At,transform:function(n,r,e,i){if(!(n=function(n,r){if(!n||"object"!==t(n))return null;var e=!1;for(var i in n)n.hasOwnProperty(i)&&(n[i]&&n[i].length?(n[i].forEach((function(t){t.e&&(t.e=r(t.e))})),e=!0):delete n[i]);return e?n:null}(n,i)))return null;var o=function(t,i,o){var u=arguments.length>3&&void 0!==arguments[3]?arguments[3]:null;return n[t]?e(i,n[t],o):r&&r[t]?r[t]:u};return r&&r.a&&n.o?function(t){var r=e(t,n.o,mt);return kt.recomposeSelf(r,o("r",t,b,0)+r.a,o("k",t,k),o("s",t,k),o("t",t,k)).toString()}:function(t){return kt.recomposeSelf(o("o",t,pt,null),o("r",t,b,0),o("k",t,k),o("s",t,k),o("t",t,k)).toString()}},r:xt,"#size":U,"#radius":Q,_:function(t,n){if(Array.isArray(t))for(var r=0;r<t.length;r++)this[t[r]]=n;else this[t]=n}};return function(t){!function(t,n){if("function"!=typeof n&&null!==n)throw new TypeError("Super expression must either be null or a function");t.prototype=Object.create(n&&n.prototype,{constructor:{value:t,writable:!0,configurable:!0}}),n&&o(t,n)}(u,t);var r=a(u);function u(){return n(this,u),r.apply(this,arguments)}return e(u,null,[{key:"build",value:function(t){var n=l(i(u),"build",this).call(this,t,Ot),r=(n.el,n.options,n.player);return function(t){t.play()}(r),r}}]),u}(L)}));
__SVGATOR_PLAYER__.build({"root":"ejzl8oyh07p1","animations":[{"duration":6000,"direction":1,"iterations": Infinity,"fill":1,"alternate":false,"elements":{"ejzl8oyh07p81":{"transform":{"data":{"t":{"x":-210.26950073242188,"y":-137.4044647216797}},"keys":{"o":[{"t":0,"v":{"x":210.26950073242188,"y":197.4044647216797,"type":"corner"}},{"t":400,"v":{"x":210.26950073242188,"y":175.4044647216797,"type":"corner"}},{"t":1000,"v":{"x":210.26950073242188,"y":137.4044647216797,"type":"corner"}},{"t":1500,"v":{"x":210.26950073242188,"y":157.4044647216797,"type":"corner"}},{"t":1900,"v":{"x":210.26950073242188,"y":137.4044647216797,"type":"corner"}},{"t":2400,"v":{"x":210.26950073242188,"y":167.4044647216797,"type":"corner"}},{"t":3000,"v":{"x":210.26950073242188,"y":137.4044647216797,"type":"corner"}}]}}}}}],"options":{"start":"load","hover":"freeze","click":"freeze","scroll":25,"exportedIds":"unique","title":"Group 19312"},"animationSettings":{"duration":3000,"direction":1,"iterations":1,"fill":1,"alternate":false}})]]></script></svg>
